<svg width="9" height="20" viewBox="0 0 9 20" fill="none" xmlns="http://www.w3.org/2000/svg">
<path d="M0.0203782 9.93375C0.0166145 8.99735 0.0264001 8.06095 0.000807132 7.1253C-0.00897841 6.75646 0.0655422 6.61119 0.482557 6.60968C1.83221 6.60592 1.83748 6.58559 1.82995 5.2111C1.82543 4.35675 1.85328 3.51067 2.19126 2.70675C2.71968 1.45195 3.6892 0.747389 5.01552 0.632973C6.09343 0.540387 7.18414 0.599853 8.26883 0.584046C8.52401 0.580282 8.66703 0.645017 8.66327 0.937831C8.65273 1.76734 8.65423 2.59761 8.66251 3.42787C8.66553 3.69886 8.56391 3.80349 8.28765 3.79596C7.73515 3.78091 7.18113 3.79521 6.62788 3.79295C6.04752 3.78994 5.75771 4.09028 5.75621 4.65408C5.75395 5.28788 5.55975 6.07599 5.86159 6.50881C6.12204 6.88217 6.97263 6.60817 7.56126 6.61721C8.68058 6.63452 8.67381 6.62172 8.53831 7.75835C8.45325 8.47571 8.39303 9.19607 8.32228 9.91418C8.07388 10.0933 7.7916 9.98042 7.52589 10.0038C6.98317 10.0504 6.27108 9.77116 5.93837 10.1257C5.61018 10.4742 5.84353 11.178 5.84127 11.7245C5.83148 14.0136 5.83976 16.3026 5.83374 18.5909C5.83299 18.8183 5.90149 19.0576 5.76524 19.2729C4.44946 19.373 3.13368 19.373 1.81791 19.2729C1.68091 19.0561 1.75016 18.816 1.74941 18.5872C1.74414 15.9248 1.7336 13.2623 1.75693 10.6007C1.76145 10.1234 1.63876 9.95859 1.15324 9.99397C0.779134 10.0218 0.38997 10.0813 0.0203782 9.93375Z" fill="#FEFEFE"/>
</svg>
