<svg width="21" height="21" viewBox="0 0 21 21" fill="none" xmlns="http://www.w3.org/2000/svg">
<path d="M20.6005 4.85467C20.586 2.22057 18.6109 0.221968 15.9804 0.202109C12.2811 0.173222 8.58182 0.173222 4.88252 0.203914C2.45243 0.223774 0.43036 2.04544 0.367171 4.4647C0.266067 8.37163 0.260651 12.284 0.365365 16.1909C0.432166 18.686 2.4434 20.4517 4.9421 20.477C6.77641 20.495 8.61071 20.4806 10.4468 20.4806C10.4468 20.4824 10.4468 20.4824 10.4468 20.4842C12.2215 20.4842 13.9963 20.4842 15.771 20.4842C15.8306 20.4842 15.892 20.4842 15.9515 20.4842C18.5965 20.4427 20.586 18.4892 20.6023 15.8641C20.6222 12.1937 20.6222 8.52509 20.6005 4.85467ZM10.3674 16.3064C7.12305 16.2848 4.51061 13.6236 4.51241 10.3395C4.51602 7.01937 7.15193 4.37985 10.4667 4.37985C13.758 4.37985 16.4318 7.05548 16.4336 10.3486C16.4372 13.6705 13.7309 16.3281 10.3674 16.3064ZM16.5762 4.90522C16.1411 4.81315 15.8956 4.58566 15.9317 4.1632C15.9642 3.77684 16.2278 3.58185 16.5961 3.59629C16.9626 3.61074 17.2081 3.82017 17.2099 4.21555C17.2099 4.64885 16.9355 4.83662 16.5762 4.90522Z" fill="white"/>
<path d="M10.5016 5.62463C7.89099 5.60657 5.78407 7.67558 5.75518 10.2826C5.7263 12.9041 7.78447 15.0254 10.3807 15.0525C13.04 15.0814 15.1759 12.9943 15.1867 10.3584C15.1975 7.76946 13.0924 5.64268 10.5016 5.62463Z" fill="white"/>
</svg>
