<svg width="21" height="21" viewBox="0 0 21 21" fill="none" xmlns="http://www.w3.org/2000/svg">
<path d="M11.7974 8.64542C12.1259 8.24545 12.4592 7.88755 12.8711 7.60662C13.471 7.19714 14.1464 7.00192 14.8558 6.91939C15.7176 6.8186 16.5739 6.84558 17.4143 7.08763C18.7039 7.45981 19.5411 8.31926 20.0323 9.54057C20.3355 10.2937 20.4775 11.0849 20.5355 11.8911C20.66 13.6315 20.5854 15.375 20.6021 17.1169C20.61 17.9573 20.6053 18.7969 20.6029 19.6373C20.6021 20.0936 20.3529 20.3435 19.895 20.3451C18.9372 20.3483 17.9785 20.3483 17.0207 20.3451C16.5652 20.3435 16.3184 20.0896 16.3184 19.6325C16.3184 17.5359 16.3224 15.4392 16.316 13.3418C16.3144 12.8347 16.2612 12.3316 16.0867 11.8475C15.7494 10.9119 15.0883 10.454 14.0892 10.473C13.1155 10.4921 12.3957 11.0547 12.0537 12.0554C11.8791 12.5657 11.7934 13.0863 11.795 13.6275C11.8029 15.5995 11.7982 17.5708 11.7982 19.5428C11.7982 20.1174 11.5688 20.3443 10.9887 20.3451C10.1142 20.3459 9.23888 20.3459 8.36436 20.3451C7.84218 20.3443 7.60411 20.1055 7.60411 19.5801C7.60332 15.6646 7.60332 11.7483 7.60411 7.83279C7.60411 7.29872 7.84298 7.06382 8.38023 7.06382C9.27618 7.06382 10.1713 7.06302 11.0673 7.06382C11.541 7.06461 11.7942 7.31935 11.7974 7.79788C11.799 8.08039 11.7974 8.3629 11.7974 8.64542Z" fill="#FEFEFE"/>
<path d="M5.72099 13.7074C5.72099 15.6168 5.72099 17.5269 5.72099 19.4363C5.72099 19.5125 5.72337 19.5894 5.71861 19.6656C5.69163 20.0815 5.44006 20.3386 5.02343 20.3417C4.09257 20.3497 3.16249 20.3505 2.23163 20.3417C1.79437 20.3378 1.52931 20.0529 1.52931 19.6069C1.52773 15.6692 1.52852 11.7322 1.52852 7.7945C1.52852 7.78021 1.52852 7.76672 1.52931 7.75323C1.54439 7.35485 1.82135 7.06837 2.21814 7.06599C3.15535 7.05964 4.09336 7.06044 5.03058 7.06599C5.41863 7.06837 5.67893 7.31994 5.71543 7.708C5.72337 7.79053 5.72019 7.87465 5.72019 7.95797C5.72099 9.87446 5.72099 11.791 5.72099 13.7074Z" fill="#FEFEFE"/>
<path d="M0.927741 3.24154C0.924566 1.74485 2.11493 0.54258 3.61479 0.529882C5.10275 0.517185 6.34232 1.7512 6.33518 3.23836C6.32803 4.73108 5.11942 5.93573 3.62828 5.93732C2.13239 5.93811 0.930915 4.73822 0.927741 3.24154Z" fill="#FEFEFE"/>
</svg>
