<svg width="29" height="20" viewBox="0 0 29 20" fill="none" xmlns="http://www.w3.org/2000/svg">
<path d="M28.4551 7.63326C28.3793 6.30442 28.2948 4.97679 28.0247 3.66823C27.6819 2.0054 26.5277 0.929457 24.8561 0.690291C23.7371 0.529853 22.6112 0.451722 21.4835 0.399237C18.0455 0.239992 14.6056 0.186313 11.1639 0.267427C8.86403 0.321702 6.56482 0.378958 4.27548 0.626474C3.15639 0.747548 2.16185 1.0893 1.42258 1.96723C0.846082 2.65193 0.656177 3.46843 0.52608 4.3082C0.317677 5.65552 0.229507 7.01357 0.188196 8.37401C0.109891 10.9696 0.166616 13.5599 0.653094 16.1227C0.955216 17.714 1.96948 18.6832 3.60464 19.0118C4.4105 19.174 5.23055 19.2337 6.04936 19.2856C8.8073 19.4615 11.5702 19.4991 14.3337 19.4764C15.5045 19.4764 16.676 19.4991 17.8463 19.4717C20.1659 19.418 22.4866 19.3709 24.7914 19.0625C26.4999 18.8341 27.6535 17.8166 28.0124 16.186C28.2245 15.2221 28.3176 14.2428 28.3885 13.2623C28.5235 11.3877 28.5624 9.51139 28.4551 7.63326ZM11.4512 13.9637C11.4512 11.2327 11.4512 8.54817 11.4512 5.8243C13.9255 7.18534 16.3715 8.53147 18.8482 9.8943C16.3696 11.2577 13.9255 12.6027 11.4512 13.9637Z" fill="#FEFEFE"/>
</svg>
