<svg width="149" height="124" viewBox="0 0 149 124" fill="none" xmlns="http://www.w3.org/2000/svg">
<path d="M114.577 35.5147C111.023 35.5147 108.446 35.5147 105.25 35.5147C105.25 27.0556 105.25 18.8031 105.25 10.0684C102.936 9.91684 101.213 9.72396 99.4776 9.72396C71.3171 9.69641 43.1567 9.77907 15.01 9.62752C10.8907 9.59997 9.25121 10.4542 9.34765 15.0006C9.63697 28.9155 9.44409 42.8304 9.47165 56.7453C9.47165 58.2056 9.60942 59.6522 9.71963 61.7326C27.0237 61.7326 44.1211 61.7326 61.8798 61.7326C61.8798 67.3674 62.0176 72.3823 61.742 77.3696C61.7007 78.1962 59.8546 79.6015 58.8351 79.6015C40.3324 79.7393 21.8435 79.6704 3.34083 79.7255C-0.378996 79.7393 0.240975 77.1078 0.227198 74.9311C0.199643 57.9163 0.213421 40.8878 0.213421 23.8593C0.213421 17.7974 0.420077 11.7354 0.144535 5.68727C-0.0483447 1.66435 1.23293 0.314193 5.36606 0.355524C27.2992 0.534627 49.2324 0.438187 71.1656 0.438187C83.7717 0.438187 96.3777 0.644844 108.984 0.32797C113.654 0.217753 114.798 1.84345 114.674 6.22458C114.384 15.841 114.577 25.4574 114.577 35.5147Z" fill="#2C65A7"/>
<path d="M79.7898 96.2579C81.1813 96.3819 82.1733 96.6161 83.1239 96.5059C86.7473 96.1201 88.3316 97.1948 88.3454 101.314C88.3592 105.599 86.4717 106.205 82.9861 106.04C78.9494 105.861 74.8989 105.998 70.6143 105.998C70.6143 85.2224 70.6143 65.163 70.6143 44.6626C96.653 44.6626 122.554 44.6626 148.882 44.6626C148.882 64.8047 148.882 84.9882 148.882 105.53C147.711 105.681 146.457 105.819 145.204 105.998C141.484 106.494 139.996 105.158 140.065 101.135C140.285 87.2339 140.147 73.3328 140.147 59.4317C140.147 57.6682 140.147 55.891 140.147 53.7417C119.799 53.7417 99.9733 53.7417 79.7898 53.7417C79.7898 67.877 79.7898 81.847 79.7898 96.2579Z" fill="#2C65A7"/>
<path d="M131.785 123.33C120.542 123.33 110.099 123.426 99.6564 123.192C98.5542 123.165 96.5841 121.195 96.5703 120.12C96.3637 104.579 96.3636 89.025 96.5841 73.4844C96.5979 72.4098 98.6093 70.4672 99.7253 70.4396C109.369 70.1916 119.041 70.2192 128.685 70.4258C129.732 70.4534 131.647 72.1342 131.661 73.0573C131.826 89.5485 131.785 106.04 131.785 123.33ZM122.306 113.906C122.306 102.265 122.306 91.2293 122.306 80.1663C116.644 80.1663 111.353 80.1663 106.09 80.1663C106.09 91.6426 106.09 102.678 106.09 113.906C111.684 113.906 116.85 113.906 122.306 113.906Z" fill="#2C65A7"/>
<path d="M48.5549 106.012C45.951 106.012 43.3334 106.026 40.7295 106.012C35.632 105.985 33.4414 102.968 35.4529 98.3109C35.8386 97.4017 37.7812 96.5475 38.8972 96.6715C43.2783 97.1123 45.4964 95.3764 46.4746 91.078C46.7639 89.7829 48.9269 88.0057 50.2357 87.9919C64.6742 87.9368 61.6707 86.1182 61.9325 98.738C62.084 106.012 61.9601 106.012 54.4515 106.026C52.4814 106.012 50.525 106.012 48.5549 106.012Z" fill="#2C65A7"/>
<path d="M122.306 113.907C116.85 113.907 111.683 113.907 106.09 113.907C106.09 102.679 106.09 91.6433 106.09 80.167C111.353 80.167 116.643 80.167 122.306 80.167C122.306 91.23 122.306 102.279 122.306 113.907Z" fill="white"/>
</svg>
