<svg width="183" height="125" viewBox="0 0 183 125" fill="none" xmlns="http://www.w3.org/2000/svg">
<path d="M49.5573 69.9803C49.5573 71.1651 49.5573 73.397 49.5573 75.6427C49.5573 87.9181 49.6262 100.194 49.5298 112.469C49.4471 122.278 42.9305 126.742 33.7962 123.642C32.4599 123.188 30.6826 123.367 29.3187 123.849C21.1626 126.701 14.2466 122.127 14.1364 113.433C13.9986 103.293 14.1088 93.1672 14.1088 82.7379C12.7586 82.669 11.684 82.6277 10.6094 82.545C4.29949 82.049 0.359182 78.0675 0.221411 71.73C0.0836401 64.8552 0.111251 57.9804 0.193914 51.1056C0.317908 40.5937 7.5922 33.2505 18.0766 32.9612C20.5151 32.8923 22.9399 32.9474 26.7149 32.9474C20.7907 29.1862 17.002 24.9291 17.8837 18.9085C18.421 15.2713 20.0605 11.2209 22.5128 8.56188C27.9272 2.66527 37.1716 3.53323 42.4896 9.69161C48.5378 16.7042 46.8846 25.2322 38.3428 32.1759C41.4839 33.6638 44.7628 35.2068 48.4413 36.9565C48.5929 36.0472 48.9374 34.9037 48.9374 33.7465C49.0063 27.8499 48.8271 21.9532 49.0475 16.0704C49.3093 9.12674 53.4011 4.78695 60.0554 4.71807C76.4226 4.55274 92.7899 4.56652 109.157 4.71807C115.811 4.77317 120.096 9.26451 120.165 16.0015C120.289 27.4503 120.303 38.9129 120.165 50.3617C120.082 57.0711 115.743 61.3696 109.006 61.4522C97.8737 61.59 86.7418 61.2594 75.6236 61.6313C71.6972 61.7553 67.7431 63.1055 63.9544 64.3454C59.3528 65.8471 54.9579 67.8448 49.5573 69.9803ZM76.6844 52.4971C77.1115 53.0482 77.5386 53.5855 77.9657 54.1366C88.0781 54.1366 98.1905 54.1504 108.303 54.1228C111.348 54.109 112.629 52.4833 112.615 49.4524C112.546 38.4996 112.574 27.5468 112.601 16.6077C112.615 13.8661 111.568 12.2542 108.606 12.2542C92.5833 12.2679 76.5743 12.1853 60.5653 12.4195C59.2151 12.4333 56.8041 14.5136 56.7628 15.7122C56.4459 24.7776 56.5837 33.8567 56.5837 43.2802C57.7685 42.9771 58.4435 42.9358 58.9671 42.6327C63.6513 40.0013 68.2942 38.9404 73.3366 41.999C74.2183 42.5363 76.1196 41.8612 77.332 41.2825C82.2091 38.9955 87.031 36.5845 91.8255 34.1184C94.2778 32.8647 96.6889 32.3412 98.1079 35.2344C99.5683 38.1965 97.419 39.712 95.0631 40.883C90.3789 43.2113 85.5982 45.3606 81.0655 47.9507C79.3158 48.9288 78.131 50.9403 76.6844 52.4971ZM21.5622 82.1317C21.5759 82.1317 21.5897 82.1317 21.6035 82.1317C21.6035 92.2854 21.4657 102.439 21.7413 112.579C21.7826 114.136 23.7528 115.638 24.8274 117.153C25.8745 115.583 27.0731 114.095 27.8997 112.428C28.2854 111.642 27.9685 110.499 27.9685 109.507C27.9685 100.662 27.9685 91.8308 27.9685 82.9859C27.9685 82.0077 27.6241 80.8091 28.0512 80.0789C29.0845 78.343 30.476 76.8275 31.7297 75.2156C32.9972 76.8137 35.3255 78.3843 35.3806 80.0238C35.7251 90.3291 35.5184 100.648 35.6148 110.953C35.6424 113.392 34.7193 116.988 38.6182 117.015C42.8065 117.057 41.9386 113.309 41.9661 110.692C42.0626 102.508 41.9937 94.3245 42.0074 86.1409C42.0074 78.1226 41.911 70.0905 42.0763 62.0722C42.159 57.5258 45.4517 55.4041 48.2622 58.2146C51.858 61.8105 54.8202 60.6532 58.3058 58.6968C60.8683 57.264 63.5824 56.0792 66.2001 54.729C68.3906 53.5993 71.1874 52.4833 69.4928 49.3422C67.8533 46.2836 65.277 47.8542 63.0726 48.9288C52.1611 54.2193 54.5859 54.7979 45.4517 45.8152C44.4047 44.7819 43.5092 43.4869 42.283 42.7567C40.6848 41.8061 38.8525 40.7728 37.089 40.7039C30.7102 40.4559 24.3177 40.4972 17.9389 40.6488C11.7116 40.7866 7.78507 44.5339 7.56464 50.7612C7.3442 57.3053 7.28909 63.8632 7.6473 70.3936C7.72996 71.978 9.70006 73.4659 10.8022 74.9952C11.8906 73.4383 13.7919 71.9366 13.9021 70.3247C14.2878 64.621 14.0812 58.8759 14.0537 53.1446C14.0399 50.4305 13.9986 47.3169 17.5118 47.1791C21.3556 47.0138 21.5484 50.2514 21.5484 53.1584C21.5622 62.8162 21.5622 72.4739 21.5622 82.1317ZM31.8399 25.8797C35.5735 25.8659 38.6734 22.6697 38.5632 18.9498C38.4392 15.1887 35.2704 12.1164 31.5781 12.323C27.445 12.5572 25.4887 15.1749 25.158 18.9912C24.8274 22.6972 28.1063 25.8935 31.8399 25.8797Z" fill="#2C65A7"/>
<path d="M182.161 35.7718C181.072 39.8361 180.259 44.0105 178.744 47.9095C178.248 49.1907 175.947 49.7556 174.459 50.6511C174.225 49.053 173.329 47.1793 173.853 45.9256C176.76 39.0508 176.994 32.3138 173.949 25.4665C168.535 13.26 153.849 7.68028 141.78 13.3013C129.146 19.1842 123.98 33.9119 130.166 46.4353C136.007 58.2836 151.134 63.147 162.955 57.1126C165.104 56.0104 167.887 52.2493 169.885 56.1757C171.759 59.8542 167.391 60.9151 165.022 62.0999C149.316 69.9666 130.386 62.5408 123.98 46.1322C117.697 30.0405 126.556 12.0338 143.254 6.93631C145.94 6.10968 148.779 6.05457 149.853 2.25209C150.542 -0.18646 153.545 0.323294 154.124 2.6654C154.909 5.88925 157.183 5.98569 159.483 6.64699C173.013 10.477 181.554 21.7329 182.161 35.7718Z" fill="#2C65A7"/>
<path d="M151.853 41.5171C149.965 39.8225 147.568 38.6928 147.238 37.1222C146.866 35.3312 147.802 32.6722 149.097 31.2532C152.073 27.988 155.518 25.0948 159.003 22.3532C160.395 21.2648 162.42 21.003 164.156 20.3555C163.908 22.0776 164.087 23.9926 163.343 25.4668C161.29 29.5724 159.003 33.5677 156.51 37.4115C155.545 38.927 153.768 39.8914 151.853 41.5171Z" fill="#2C65A7"/>
<path d="M180.207 11.483C178.857 12.0065 176.969 13.3705 176.253 12.9158C173.415 11.0697 170.825 8.76891 168.483 6.31658C168.138 5.95837 169.695 3.79536 170.37 2.45898C173.704 4.82865 177.052 7.19831 180.386 9.56798C180.331 10.2017 180.276 10.8355 180.207 11.483Z" fill="#2C65A7"/>
<path d="M137.661 5.20066C133.073 8.41073 129.615 10.8217 126.171 13.2327C125.441 12.1581 123.953 10.2982 124.118 10.1467C126.874 7.46011 129.753 4.87001 132.853 2.59679C133.28 2.27991 135.002 3.72651 137.661 5.20066Z" fill="#2C65A7"/>
<path d="M76.6841 52.4974C78.1307 50.9406 79.3156 48.9429 81.079 47.9372C85.6117 45.3471 90.3924 43.1979 95.0766 40.8696C97.4325 39.6985 99.5817 38.1968 98.1213 35.2209C96.7023 32.3415 94.2913 32.8513 91.839 34.105C87.0445 36.5711 82.2226 38.9821 77.3455 41.2691C76.1331 41.834 74.2318 42.509 73.3501 41.9855C68.3077 38.927 63.6648 39.9878 58.9806 42.6192C58.457 42.9086 57.782 42.9499 56.5972 43.2668C56.5972 33.8432 56.4456 24.7641 56.7763 15.6988C56.8176 14.5139 59.2423 12.4336 60.5787 12.406C76.5877 12.1718 92.6105 12.2545 108.619 12.2407C111.568 12.2407 112.615 13.8388 112.615 16.5943C112.587 27.5471 112.56 38.4999 112.629 49.4389C112.642 52.4699 111.361 54.0956 108.316 54.1094C98.204 54.1369 88.0916 54.1231 77.9792 54.1231C77.5245 53.5858 77.0975 53.0348 76.6841 52.4974Z" fill="white"/>
<path d="M21.5623 82.132C21.5623 72.4742 21.5623 62.8165 21.5623 53.1587C21.5623 50.2518 21.3694 47.0141 17.5256 47.1795C14.0124 47.331 14.0538 50.4309 14.0676 53.1449C14.0952 58.8762 14.3018 64.6213 13.916 70.325C13.8058 71.9507 11.9045 73.4386 10.8161 74.9955C9.71398 73.4662 7.74388 71.9783 7.66122 70.3939C7.30301 63.8635 7.34435 57.3056 7.57856 50.7615C7.79899 44.548 11.7254 40.7869 17.9527 40.6491C24.3315 40.5113 30.7241 40.47 37.1029 40.7042C38.8664 40.7731 40.7125 41.8064 42.2969 42.757C43.5231 43.4872 44.4186 44.7822 45.4656 45.8155C54.6136 54.7982 52.1751 54.2196 63.0865 48.9291C65.2909 47.8545 67.8672 46.2977 69.5067 49.3425C71.1875 52.4836 68.4045 53.5996 66.214 54.7293C63.5963 56.0795 60.8823 57.2505 58.3197 58.6971C54.8341 60.6535 51.872 61.8108 48.2761 58.2149C45.4656 55.4044 42.1867 57.5261 42.0902 62.0725C41.9387 70.0908 42.0351 78.1091 42.0214 86.1412C42.0214 94.3248 42.0764 102.508 41.98 110.692C41.9524 113.31 42.8204 117.057 38.6322 117.016C34.7195 116.974 35.6425 113.392 35.6288 110.954C35.5323 100.635 35.739 90.3156 35.3946 80.0241C35.3395 78.3846 33.0111 76.814 31.7436 75.2159C30.4899 76.8278 29.0984 78.3433 28.0651 80.0792C27.638 80.8094 27.9825 82.008 27.9825 82.9862C27.9825 91.8311 27.9825 100.662 27.9825 109.507C27.9825 110.485 28.2994 111.629 27.9136 112.428C27.087 114.095 25.8883 115.597 24.8412 117.153C23.7666 115.624 21.7965 114.136 21.7552 112.579C21.4796 102.439 21.6174 92.2857 21.6174 82.132C21.5899 82.132 21.5761 82.132 21.5623 82.132Z" fill="white"/>
<path d="M31.8399 25.8803C28.1063 25.8941 24.8274 22.6978 25.1443 18.9917C25.4749 15.1755 27.4312 12.5716 31.5644 12.3236C35.2566 12.1032 38.4392 15.1893 38.5494 18.9504C38.6734 22.6565 35.5735 25.8527 31.8399 25.8803Z" fill="white"/>
</svg>
