<svg width="129" height="129" viewBox="0 0 129 129" fill="none" xmlns="http://www.w3.org/2000/svg">
<path d="M116.462 128.384C109.036 121.813 102.45 122.378 95.2312 128.178C95.2312 120.807 95.0935 115.131 95.2863 109.469C95.3828 106.589 94.5561 104.688 92.1589 102.897C85.1739 97.6753 82.0603 90.525 83.2727 81.8592C83.7411 78.5251 82.4874 77.1061 79.6906 76.059C76.0121 74.6951 72.1959 73.4689 68.8618 71.485C64.4669 68.8673 61.2844 69.446 58.9423 73.8822C58.2948 75.1084 57.7437 76.8581 58.1157 78.0705C59.1214 81.3632 58.2259 83.6915 55.7873 85.9372C54.4234 87.2047 53.459 88.9544 52.4946 90.5801C49.133 96.2563 44.2283 99.4388 37.6291 99.3423C31.0436 99.2459 26.2079 95.9945 22.9427 90.2494C21.9369 88.4722 20.2424 87.0945 19.278 85.3034C18.3273 83.54 17.0048 81.2392 17.4456 79.6135C18.2998 76.4999 17.5145 74.64 15.5306 72.3116C5.19774 60.1464 6.74077 42.4428 18.8371 31.8069C30.4236 21.6256 48.2788 22.2042 58.6116 33.8735C62.1937 37.9102 64.9491 38.4888 69.1511 35.94C70.2533 35.2649 71.5345 34.8241 72.7745 34.4521C79.6906 32.3718 84.0855 29.6301 83.5069 20.5097C82.8594 10.0942 92.8753 1.13903 103.194 0.119523C114.271 -0.968869 124.301 5.46504 127.607 15.7841C130.9 26.0894 126.712 37.2351 117.523 42.5393C107.906 48.0914 95.8512 46.5622 89.0177 38.0755C86.0694 34.4245 83.8238 34.3557 80.1039 36.2294C75.3095 38.6403 70.2395 40.5003 66.0788 42.2637C66.0788 50.1167 66.0788 57.3221 66.0788 65.3542C71.9066 67.8341 78.6298 70.6859 84.2784 73.0694C89.3208 69.4322 93.2473 65.4644 97.9866 63.3978C108.099 59.0029 120.002 63.5769 125.61 73.0969C131.231 82.6169 129.385 95.0301 120.65 101.946C117.233 104.66 116.2 107.457 116.407 111.48C116.668 116.509 116.462 121.523 116.462 128.384ZM35.2043 73.4C35.3007 67.9443 36.83 62.8192 31.2503 58.6861C27.7647 56.1097 28.9081 50.3509 32.3938 47.4164C35.9758 44.3992 41.2525 44.8263 44.2697 48.3808C47.2593 51.9077 46.8184 56.9364 43.2364 60.2291C40.7289 62.5299 39.0344 69.7077 40.4396 72.5596C40.7427 73.1658 41.528 73.7307 42.2031 73.9373C48.8575 76.0039 54.1341 73.7444 57.5095 67.531C56.6966 64.7755 49.2707 66.0293 53.1559 60.2842C55.7184 61.1246 57.9917 61.8686 61.2017 62.9156C61.2017 56.647 61.2017 51.0397 61.2017 46.1489C57.4681 44.0548 54.4234 49.9238 52.3568 45.3911C51.916 44.413 55.4842 41.6162 57.3028 39.5496C50.9378 29.4097 36.0998 26.1583 25.1608 32.854C13.7395 39.8527 9.89573 55.2142 16.7705 66.3324C21.5374 74.0751 24.8852 75.3977 35.2043 73.4ZM105.757 4.66597C95.6032 4.73486 87.3369 13.1389 87.5436 23.1686C87.7502 33.1157 95.8925 41.1616 105.785 41.2167C115.842 41.2718 124.287 32.9091 124.287 22.8931C124.273 12.8771 115.869 4.59709 105.757 4.66597ZM106.06 66.5803C95.8098 66.4977 87.5436 74.5848 87.5298 84.7386C87.516 94.5617 95.6721 102.938 105.468 103.145C115.373 103.351 124.025 95.0439 124.273 85.083C124.521 75.0808 116.241 66.663 106.06 66.5803ZM100.425 107.498C100.425 111.811 100.425 115.586 100.425 118.575C104.365 118.575 107.865 118.575 111.392 118.575C111.392 115.379 111.392 111.425 111.392 107.498C107.562 107.498 104.173 107.498 100.425 107.498ZM48.7886 87.3425C41.4316 87.3425 34.4603 87.3425 26.6901 87.3425C29.349 92.1507 32.5867 94.603 37.4224 94.6857C42.6026 94.7821 46.35 92.564 48.7886 87.3425ZM21.6338 79.8753C21.6476 80.4677 21.6614 81.0463 21.6752 81.6387C22.8462 81.928 24.0035 82.4654 25.1746 82.4791C33.5097 82.548 41.8449 82.5893 50.18 82.4378C51.3649 82.424 52.5222 81.3632 53.6932 80.7845C52.4257 80.1232 51.1582 78.9246 49.8769 78.8971C41.8724 78.718 33.8541 78.7593 25.8496 78.8558C24.4581 78.8695 23.0529 79.5171 21.6338 79.8753ZM37.7669 48.2568C36.0034 51.026 34.2399 52.569 34.419 53.8503C34.6119 55.2142 36.6371 56.3302 37.8771 57.5425C39.1032 56.2888 41.1285 55.1453 41.3076 53.7538C41.4729 52.5001 39.613 50.9709 37.7669 48.2568Z" fill="#2C65A7"/>
<path d="M5.21331 106.837C26.9812 106.837 48.4735 106.837 70.5995 106.837C70.5995 99.2736 70.4893 91.958 70.696 84.6561C70.7373 83.2646 72.0048 81.9007 72.6936 80.523C73.534 81.942 75.0495 83.3611 75.0909 84.7939C75.2975 95.2645 75.2975 105.749 75.1597 116.219C75.0495 124.444 71.1782 128.206 62.9946 128.233C46.1314 128.288 29.2819 128.302 12.4187 128.233C4.44177 128.206 0.708166 124.403 0.708166 116.454C0.680611 81.5976 0.680611 46.7277 0.708166 11.8716C0.708166 3.92218 4.51067 0.0921389 12.3912 0.0783618C29.4059 0.0370304 46.4344 0.0370304 63.4492 0.0783618C70.7648 0.0921389 74.7878 3.83952 75.1184 11.0725C75.3389 15.9772 75.3251 20.8956 75.0633 25.8002C75.0082 26.9713 73.5616 28.0735 72.7625 29.217C72.0323 28.0184 70.8337 26.8611 70.6822 25.5936C70.3653 22.907 70.5857 20.1378 70.5857 17.162C48.4872 17.162 26.9811 17.162 5.19952 17.162C5.2133 47.141 5.21331 76.8307 5.21331 106.837ZM70.2551 112.197C48.4597 112.197 26.9674 112.197 5.53016 112.197C4.0009 121.221 6.03992 123.728 14.5817 123.728C29.957 123.742 45.346 123.742 60.7213 123.728C69.5938 123.728 71.123 121.965 70.2551 112.197ZM5.06174 12.1609C26.9811 12.1609 48.4872 12.1609 69.9795 12.1609C70.5582 7.04959 68.9738 4.76258 64.1105 4.72125C46.6136 4.5697 29.1166 4.61103 11.6197 4.67992C7.3212 4.6937 5.07552 7.03581 5.06174 12.1609Z" fill="#2C65A7"/>
<path d="M35.2056 73.3999C24.8865 75.3976 21.5387 74.075 16.7581 66.346C9.86949 55.2279 13.7133 39.8664 25.1483 32.8676C36.0873 26.1582 50.9253 29.4233 57.2903 39.5633C55.4717 41.6299 51.9035 44.4404 52.3443 45.4048C54.4247 49.9512 57.4557 44.0684 61.1893 46.1625C61.1893 51.0396 61.1893 56.6469 61.1893 62.9293C57.9792 61.8822 55.7059 61.1383 53.1434 60.2979C49.2445 66.0567 56.6841 64.7892 57.497 67.5446C54.1216 73.7443 48.845 76.0176 42.1906 73.951C41.5155 73.7443 40.7302 73.1795 40.4271 72.5733C39.0219 69.7214 40.7165 62.5298 43.2239 60.2428C46.8059 56.95 47.2468 51.9214 44.2572 48.3944C41.24 44.8399 35.9634 44.4128 32.3813 47.43C28.9095 50.3646 27.7522 56.1234 31.2378 58.6997C36.8313 62.8191 35.302 67.9442 35.2056 73.3999Z" fill="white"/>
<path d="M105.757 4.66595C115.869 4.59707 124.287 12.8633 124.287 22.8793C124.287 32.8953 115.842 41.258 105.784 41.2029C95.8923 41.1478 87.75 33.1019 87.5434 23.1548C87.3229 13.1389 95.5892 4.73484 105.757 4.66595ZM98.9922 26.4751C101.1 30.7598 102.492 33.8734 104.227 36.7942C104.544 37.3453 107.024 37.4555 107.203 37.0973C108.981 33.653 111.185 30.195 111.846 26.4889C112.48 22.9757 109.394 21.2398 106.074 20.3856C105.399 20.2065 105.04 18.8288 104.531 18.0022C105.467 17.9333 106.432 17.6853 107.327 17.8369C108.746 18.0711 110.11 18.5808 112.494 19.2421C110.565 15.0539 109.27 11.8989 107.575 8.99197C107.314 8.53733 104.572 8.70265 103.993 9.40528C102.45 11.3065 101.417 13.6486 100.246 15.8392C98.4273 19.2284 99.8739 23.0309 103.621 24.7117C104.999 25.3316 106.418 25.8414 107.823 26.3925C107.686 26.9573 107.548 27.536 107.41 28.1008C105.054 27.66 102.698 27.2053 98.9922 26.4751Z" fill="white"/>
<path d="M106.062 66.5802C116.23 66.6629 124.51 75.0807 124.276 85.0829C124.028 95.0437 115.39 103.351 105.47 103.145C95.6745 102.938 87.5185 94.5615 87.5322 84.7385C87.5598 74.5985 95.826 66.4976 106.062 66.5802ZM105.911 95.2917C111.739 95.2642 116.45 90.4422 116.354 84.6145C116.271 79.0072 111.642 74.3505 106.062 74.2265C100.414 74.1163 95.3163 79.0623 95.275 84.6971C95.2474 90.3595 100.207 95.3055 105.911 95.2917Z" fill="white"/>
<path d="M100.428 107.499C104.175 107.499 107.564 107.499 111.394 107.499C111.394 111.425 111.394 115.379 111.394 118.575C107.867 118.575 104.368 118.575 100.428 118.575C100.428 115.586 100.428 111.811 100.428 107.499Z" fill="white"/>
<path d="M48.79 87.3428C46.3515 92.5643 42.6041 94.7824 37.4101 94.686C32.5744 94.6033 29.3505 92.1372 26.6777 87.3428C34.4618 87.3428 41.4331 87.3428 48.79 87.3428Z" fill="white"/>
<path d="M21.6387 79.8751C23.0439 79.5169 24.4492 78.8694 25.8683 78.8556C33.8728 78.7592 41.891 78.7178 49.8956 78.8969C51.1768 78.9245 52.4443 80.1231 53.7118 80.7844C52.5407 81.363 51.3835 82.4239 50.1987 82.4377C41.8635 82.5892 33.5283 82.5479 25.1932 82.479C24.0221 82.4652 22.8511 81.9279 21.6938 81.6386C21.68 81.0462 21.6524 80.4675 21.6387 79.8751Z" fill="white"/>
<path d="M37.7667 48.2568C39.6266 50.9709 41.4727 52.4864 41.3074 53.7401C41.1283 55.1316 39.1031 56.2751 37.8769 57.5288C36.6507 56.3027 34.6255 55.2005 34.4188 53.8366C34.2397 52.5691 36.0032 51.026 37.7667 48.2568Z" fill="white"/>
<path d="M70.2576 112.196C71.1255 121.964 69.5963 123.727 60.7238 123.727C45.3485 123.741 29.9595 123.741 14.5842 123.727C6.02865 123.713 4.0034 121.206 5.53266 112.196C26.9699 112.196 48.4622 112.196 70.2576 112.196ZM44.6184 119.856C43.8882 118.051 43.4749 115.902 42.9238 115.861C39.3968 115.626 35.8148 115.737 32.2878 116.081C31.9021 116.122 31.7368 118.327 31.3923 119.856C35.925 119.856 39.6311 119.856 44.6184 119.856Z" fill="white"/>
<path d="M5.06152 12.1606C5.0753 7.03556 7.32098 4.69345 11.6194 4.67967C29.1164 4.61079 46.6133 4.56946 64.1103 4.721C68.9736 4.76234 70.558 7.06311 69.9793 12.1606C48.5008 12.1606 26.9809 12.1606 5.06152 12.1606Z" fill="white"/>
<path d="M98.9941 26.475C102.7 27.2052 105.056 27.6736 107.426 28.1283C107.564 27.5634 107.701 26.9848 107.839 26.4199C106.434 25.8551 105.015 25.3453 103.637 24.7391C99.8759 23.0583 98.4293 19.242 100.262 15.8667C101.446 13.6761 102.466 11.334 104.009 9.43274C104.588 8.7301 107.316 8.56478 107.591 9.01942C109.286 11.9402 110.581 15.0951 112.509 19.2696C110.126 18.5945 108.748 18.0985 107.343 17.8643C106.448 17.7128 105.483 17.9608 104.546 18.0297C105.056 18.8563 105.414 20.234 106.089 20.4131C109.41 21.2673 112.496 23.0032 111.862 26.5164C111.201 30.2224 108.996 33.6805 107.219 37.1247C107.04 37.483 104.56 37.359 104.243 36.8216C102.494 33.8733 101.116 30.7597 98.9941 26.475Z" fill="#2C65A7"/>
<path d="M105.908 95.2912C100.204 95.3187 95.2441 90.3727 95.2854 84.6965C95.3267 79.0479 100.41 74.1157 106.073 74.2259C111.653 74.3362 116.282 79.0066 116.364 84.6139C116.447 90.4416 111.735 95.2636 105.908 95.2912ZM106.183 90.5932C109.476 90.111 111.804 88.3199 111.694 84.5863C111.597 81.1696 109.421 79.0479 106.073 78.979C102.505 78.9102 100.162 80.8803 100.121 84.669C100.066 88.4577 102.325 90.2212 106.183 90.5932Z" fill="#2C65A7"/>
<path d="M44.6167 119.856C39.6294 119.856 35.9095 119.856 31.3906 119.856C31.7351 118.327 31.9004 116.123 32.2861 116.081C35.8131 115.737 39.3951 115.627 42.9221 115.861C43.4732 115.902 43.8865 118.052 44.6167 119.856Z" fill="#2C65A7"/>
<path d="M106.187 90.5934C102.33 90.2214 100.084 88.4579 100.126 84.6692C100.181 80.8805 102.523 78.9104 106.077 78.9793C109.425 79.0482 111.602 81.1698 111.698 84.5866C111.809 88.3064 109.466 90.1112 106.187 90.5934Z" fill="white"/>
</svg>
