<svg width="115" height="102" viewBox="0 0 115 102" fill="none" xmlns="http://www.w3.org/2000/svg">
<path d="M85.5943 86.9305C81.2682 86.655 77.7964 86.7514 74.4486 86.1452C65.5485 84.5471 59.0733 79.4082 54.3753 71.7619C47.5143 60.63 40.3088 49.7047 33.6683 38.4488C29.8107 31.9185 24.5892 29.0528 17.122 29.4386C11.6111 29.7141 6.0727 29.4937 0.134766 29.4937C0.134766 24.5339 0.134766 20.0564 0.134766 14.7522C10.7983 15.3997 21.9715 12.2172 32.0977 17.5352C37.0574 20.139 41.7003 24.4513 44.9242 29.0804C52.5705 40.0608 59.3075 51.6886 66.3889 63.0685C71.2109 70.8251 75.4681 72.7539 85.5805 71.3348C85.5805 68.4003 85.4289 65.3418 85.6218 62.3108C85.8836 58.0399 88.9558 56.4004 92.2761 59.0181C99.33 64.584 106.163 70.4255 113.011 76.267C115.353 78.2647 115.16 80.6344 112.873 82.5769C106.026 88.4047 99.1785 94.2324 92.1521 99.8397C89.0385 102.32 85.9662 100.859 85.6493 96.8776C85.3876 93.6813 85.5943 90.4299 85.5943 86.9305Z" fill="#2C65A7"/>
<path d="M62.7963 44.4556C59.7103 39.5509 57.1202 35.8173 55.0123 31.8082C54.475 30.7887 55.1087 28.667 55.8802 27.5097C61.3498 19.3674 69.1338 15.193 78.9156 14.7383C80.8581 14.6419 82.8007 14.7245 85.5561 14.7245C85.5561 11.5834 85.2944 8.69016 85.6526 5.86585C85.873 4.11615 86.6032 1.66383 87.8569 1.03008C89.0693 0.41011 91.6594 1.20918 92.9682 2.24247C99.4986 7.39511 105.808 12.8508 112.215 18.1688C115.328 20.7451 115.384 23.2388 112.256 25.8427C105.85 31.1606 99.5537 36.6164 93.0095 41.769C91.7007 42.8023 89.0831 43.5463 87.8294 42.9125C86.5757 42.2788 85.9006 39.8127 85.6664 38.0492C85.3082 35.5004 85.5699 32.8828 85.5699 30.1825C73.57 27.1102 67.9352 34.4258 62.7963 44.4556Z" fill="#2C65A7"/>
<path d="M0 86.3103C0 81.6123 0 77.121 0 71.8857C5.37308 71.8857 10.5808 71.5412 15.7197 71.9683C24.3993 72.671 30.6403 69.5435 34.4428 61.6217C35.0628 60.3404 36.0685 59.252 37.4324 57.3232C40.2016 61.7595 42.8469 65.6171 44.9823 69.7364C45.5058 70.7559 44.7205 72.8914 43.9352 74.1038C39.499 80.9097 33.0651 85.3459 25.1295 86.1312C16.9183 86.9303 8.56937 86.3103 0 86.3103Z" fill="#2C65A7"/>
</svg>
