<svg width="137" height="137" viewBox="0 0 137 137" fill="none" xmlns="http://www.w3.org/2000/svg">
<path d="M45.7222 131.898C53.2813 131.918 58.6607 131.298 64.0001 130.178C65.64 129.838 67.6597 129.318 68.1597 131.678C68.6596 133.978 66.7198 134.518 65.04 134.858C51.1616 137.617 37.3631 137.717 23.9046 132.738C12.006 128.338 4.76679 119.759 1.80712 107.441C-1.03256 95.7019 -0.29265 84.2032 4.14685 72.9845C4.88677 71.1447 5.32671 67.905 8.32638 69.2049C10.9661 70.3448 9.12628 72.7045 8.44636 74.4843C4.5268 84.7832 3.94685 95.362 6.24659 106.061C9.16627 119.579 19.4851 128.538 34.6234 130.778C39.0029 131.438 43.4225 131.678 45.7222 131.898Z" fill="#2C65A7"/>
<path fill-rule="evenodd" clip-rule="evenodd" d="M82.8373 9.59143C82.1774 15.1708 79.1777 20.4902 76.1781 25.7896C75.0182 27.8494 73.7383 29.8692 72.3385 31.769C71.0386 33.5488 71.4386 34.2687 73.4984 34.8686C78.0979 36.2085 80.2976 39.5281 79.3177 44.1476C78.3378 48.7471 74.9782 50.5469 70.2387 50.4869C65.5073 50.4334 60.7758 50.4645 56.0455 50.4955H56.0455C48.3801 50.5458 40.7177 50.596 33.0629 50.2869C27.1436 50.0469 23.164 51.8867 19.6844 56.5062C19.359 56.9386 19.0354 57.5123 18.6936 58.1181C17.4392 60.342 15.9397 63.0003 13.2051 60.7057C10.9778 58.8342 13.0214 56.9148 14.8204 55.2251C15.3473 54.7302 15.8533 54.255 16.2248 53.8065L16.2593 53.7647C18.4203 51.1479 19.8901 49.3681 17.2047 45.8074C14.405 42.0678 16.5647 36.7684 21.3842 35.1686C24.7756 34.0447 24.1427 33.0569 22.725 30.8442L22.6641 30.7491C20.1243 26.7495 17.8246 22.59 15.6049 18.4104C14.105 15.5508 13.0251 12.4911 12.8852 9.21148C12.6052 3.09216 16.1848 0.712428 21.6042 3.39213C22.2705 3.71984 22.913 4.08933 23.5545 4.45821C24.0873 4.76463 24.6193 5.07062 25.1638 5.35191C30.1232 7.85163 34.6227 8.05161 39.1822 3.93207C44.3816 -0.767406 50.7009 -1.02738 55.8204 3.49212C61.2397 8.29158 66.3992 7.95162 72.0385 4.512C72.7585 4.07205 73.4984 3.6521 74.2583 3.29214C79.4777 0.832414 82.9973 3.15215 82.8373 9.59143ZM77.7964 11.617L77.7964 11.6172C77.2097 13.3704 76.6559 15.0251 75.8213 16.5301C74.0908 19.6451 72.2456 22.6913 70.3991 25.7397L70.3991 25.7397C69.2584 27.6229 68.1172 29.5069 67.0023 31.4084C65.6625 33.6881 63.8627 34.928 61.143 34.3481C58.9842 33.8835 59.1219 32.5228 59.2599 31.1588C59.3238 30.5265 59.3879 29.8934 59.2232 29.3486C58.9414 28.4227 59.085 27.2267 59.2267 26.0475C59.5072 23.7121 59.7798 21.4429 56.7235 21.4695C53.9044 21.5007 54.2999 24.5766 54.641 27.2299L54.641 27.23C54.7379 27.9834 54.8304 28.7027 54.8437 29.3086C54.9237 33.2482 53.8238 35.068 49.7043 34.4681C48.5444 34.2881 47.3045 34.2881 46.1447 34.4681C41.7452 35.128 40.3853 33.1282 40.9052 29.0087C41.0942 27.5596 41.0103 26.0733 40.9271 24.5986C40.9046 24.201 40.8822 23.8043 40.8653 23.4093C40.8053 22.0694 40.1253 21.0496 38.7055 21.1296C37.3456 21.2095 36.7057 22.2094 36.6857 23.5893C36.6794 24.2836 36.685 24.9799 36.6907 25.677V25.677V25.677C36.7029 27.1884 36.7152 28.7031 36.6057 30.2085C36.5792 30.575 36.6316 30.9851 36.6847 31.4007C36.8316 32.5503 36.984 33.7422 35.4859 34.1681C33.5661 34.708 31.3263 35.008 29.8865 33.0082C24.807 25.969 20.0676 18.7298 17.6278 10.2908C17.4079 9.55085 17.3879 8.47097 17.7878 7.91103C18.5354 6.88807 19.6119 7.52939 20.4463 8.02647L20.4875 8.05101C23.2672 9.69083 26.0869 11.1507 29.3665 11.7106C34.086 12.5105 38.0056 11.2307 41.5052 8.01102C45.2647 4.5714 49.7043 4.01147 53.4838 7.45108C60.1631 13.5304 66.8623 12.9105 74.0015 8.77093C74.1813 8.66214 74.3644 8.543 74.5498 8.42234C75.9323 7.52277 77.4444 6.53889 78.661 9.13089C78.3452 9.97725 78.0673 10.8076 77.7964 11.617ZM69.441 39.1686H48.0834C43.2166 39.1553 38.3586 39.1597 33.5036 39.1642C31.0772 39.1664 28.6515 39.1686 26.2259 39.1686C23.7461 39.1486 21.0064 39.1686 20.9265 42.3883C20.8465 45.5479 23.4862 45.9279 26.0259 45.9279H69.761C72.3007 45.9279 74.9004 45.5679 74.7804 42.3683C74.6626 39.1664 71.9977 39.1675 69.5721 39.1686C69.5283 39.1686 69.4846 39.1686 69.441 39.1686Z" fill="#2C65A7"/>
<path fill-rule="evenodd" clip-rule="evenodd" d="M72.5523 87.5973C72.5556 90.4592 72.5589 93.3207 72.5589 96.1822C72.5589 99.0566 72.5544 101.931 72.5499 104.805C72.538 112.468 72.5261 120.129 72.5989 127.779C72.6389 134.198 75.1386 136.678 81.6178 136.698C96.9161 136.758 112.194 136.758 127.493 136.698C133.892 136.678 136.432 134.118 136.452 127.679C136.512 107.121 136.512 86.5632 136.452 66.0055C136.432 59.5263 134.032 57.3065 127.373 57.2865L127.353 57.2865C112.061 57.2665 96.7895 57.2465 81.4979 57.2865C74.8786 57.3065 72.6189 59.5263 72.5789 66.1055C72.536 73.2772 72.5442 80.4387 72.5523 87.5973ZM77.413 88.2929C77.4053 91.076 77.3976 93.859 77.3976 96.6421C77.3976 99.4685 77.4053 102.296 77.413 105.125C77.4331 112.485 77.4531 119.852 77.3376 127.219C77.2776 130.738 78.5175 132.018 82.0771 131.978C97.0154 131.838 111.974 131.838 126.912 131.978C130.492 132.018 131.632 130.658 131.612 127.179C131.512 106.961 131.512 86.7632 131.612 66.5455C131.632 63.0459 130.372 61.666 126.872 61.686C111.934 61.766 96.9754 61.766 82.0371 61.686C78.5175 61.666 77.2776 63.1058 77.3376 66.5855C77.4531 73.8213 77.4331 81.0571 77.413 88.2929Z" fill="#2C65A7"/>
<path fill-rule="evenodd" clip-rule="evenodd" d="M50.1505 80.0609V80.0609C50.1809 80.7609 50.2113 81.4613 50.1022 82.1431C49.2823 86.8826 50.8621 89.3023 55.8815 90.6222C62.2008 92.302 66.0804 98.2013 66.0004 103.861C65.9204 109.62 61.5009 115.099 55.0816 117.179C54.7284 117.293 54.3769 117.391 54.0319 117.488C52.0725 118.037 50.3224 118.528 49.6422 121.419C49.0823 123.778 46.3626 123.279 45.8426 120.899C45.3253 118.508 43.9007 118.107 42.1795 117.622L42.1793 117.622C41.9712 117.564 41.7588 117.504 41.5431 117.439C35.6238 115.659 31.4243 112.06 29.9444 105.8C29.5045 103.961 29.6044 102.161 31.6242 101.621C33.644 101.101 34.1839 102.941 34.4039 104.461C34.6839 106.4 35.4838 108.02 36.8237 109.38C39.0234 111.6 41.9231 113.86 44.7427 112.92C46.0845 112.468 45.8907 110.737 45.6914 108.957C45.5908 108.057 45.4887 107.146 45.5827 106.38C45.6528 105.79 45.6276 105.189 45.6026 104.591C45.5776 103.994 45.5527 103.4 45.6227 102.821C46.3026 97.0615 45.6827 92.8619 38.5035 91.1221C32.9441 89.7823 29.6844 84.6029 29.7844 78.6235C29.8844 72.1643 33.964 68.1247 39.6633 65.625C40.2796 65.3548 40.9342 65.1632 41.5848 64.9728C43.6787 64.36 45.7323 63.759 46.3426 60.5855C46.7025 58.7258 49.5622 59.1257 49.8622 61.3655C50.1948 63.799 51.6158 64.2093 53.2795 64.6898L53.2796 64.6898C53.5162 64.7581 53.7577 64.8279 54.0017 64.9051C60.021 66.8248 64.5205 70.3844 65.8404 76.9637C66.1404 78.5035 66.2204 80.2433 64.2806 80.7233C62.3208 81.2232 61.6609 79.7434 61.2209 78.1436C61.1451 77.8699 61.0746 77.5926 61.0041 77.3149L61.0041 77.3149C60.7395 76.2741 60.4736 75.2281 59.9211 74.344C58.0213 71.2644 54.7817 68.7646 51.582 69.4446C49.5331 69.878 49.7874 71.7347 50.0503 73.655C50.1877 74.6585 50.3275 75.6795 50.1422 76.5238C50.0195 77.0828 50.0548 77.6791 50.0897 78.2681C50.106 78.543 50.1222 78.8163 50.1222 79.0835C50.1222 79.4079 50.1363 79.7343 50.1505 80.0609ZM45.6221 79.0233C45.6221 79.3958 45.6341 79.7703 45.646 80.1449C45.672 80.9568 45.6979 81.7693 45.6021 82.563C45.5266 83.1612 45.6077 83.8368 45.6887 84.5117C45.8649 85.9799 46.0408 87.4447 44.6022 88.1023C42.7872 88.9386 40.9248 87.6533 39.2543 86.5005L39.2542 86.5004C39.0474 86.3577 38.8434 86.217 38.6429 86.0826C35.2233 83.7828 33.5435 80.5432 34.7034 76.5036C35.9032 72.4041 39.2429 70.4843 43.2024 69.3644C45.2222 68.8045 45.5821 69.8244 45.6021 71.4042C45.6155 73.0966 45.611 74.7801 45.6066 76.4665V76.4666C45.6044 77.3109 45.6021 78.156 45.6021 79.0033V79.0034C45.6021 79.0233 45.6021 79.0233 45.6221 79.0233ZM50.099 102.124C50.1012 102.688 50.1034 103.253 50.1034 103.821H50.1234C50.1234 104.668 50.1256 105.513 50.1279 106.358C50.1323 108.044 50.1367 109.728 50.1234 111.42C50.1034 112.9 50.6234 113.72 52.2232 113.2C56.2027 111.92 59.9023 110.12 61.0022 105.661C62.1421 101.041 59.7224 97.8614 55.9428 95.6017C51.4233 92.902 50.1434 93.6219 50.1034 98.7413C50.0901 99.8738 50.0945 100.997 50.099 102.124Z" fill="#2C65A7"/>
<path d="M105.477 98.2015C104.317 98.1415 103.117 98.2015 101.977 97.9615C100.738 97.7015 99.6377 96.8216 100.038 95.5018C101.118 92.1021 104.117 93.442 106.437 93.262C108.417 93.122 110.736 92.962 111.156 95.7217C111.356 97.0216 110.277 97.8815 108.977 98.0415C107.817 98.1815 106.637 98.0615 105.477 98.0615C105.477 98.0815 105.477 98.1415 105.477 98.2015Z" fill="#2C65A7"/>
<path d="M105.675 111.48C107.614 111.94 110.834 110.441 110.994 113.62C111.174 117.12 107.854 116.34 105.675 116.34C103.495 116.34 100.115 117.22 100.115 113.88C100.135 110.301 103.655 111.98 105.675 111.48Z" fill="#2C65A7"/>
<path d="M89.7777 111.48C91.8575 111.94 95.3971 110.381 95.2971 113.96C95.1971 117.14 91.8375 116.36 89.5977 116.38C87.538 116.38 84.4383 117.08 84.3783 114.04C84.2983 110.301 87.7779 111.98 89.7777 111.48Z" fill="#2C65A7"/>
<path d="M105.775 107.32C103.515 107 100.135 108.04 100.155 104.681C100.175 101.681 103.395 102.401 105.455 102.461C107.615 102.521 111.034 101.441 110.994 104.921C110.974 107.86 107.755 107.04 105.775 107.32Z" fill="#2C65A7"/>
<path d="M121.614 111.48C123.734 111.8 127.013 110.621 126.973 113.78C126.953 117.08 123.614 116.38 121.354 116.36C119.294 116.34 116.134 117.08 116.154 113.96C116.174 110.181 119.714 112.06 121.614 111.48Z" fill="#2C65A7"/>
<path d="M121.174 98.1815C119.234 97.8216 115.994 99.0214 116.174 95.6618C116.374 92.1822 119.694 93.4021 121.854 93.2621C124.033 93.1221 127.133 92.9221 126.973 95.8018C126.773 99.1014 123.373 97.8416 121.174 98.1815Z" fill="#2C65A7"/>
<path d="M89.6593 98.1821C87.6595 97.7822 84.2399 99.182 84.4199 95.5024C84.5599 92.4628 87.6195 93.2827 89.6593 93.2427C91.9191 93.2027 95.2787 92.5828 95.2987 95.7024C95.3387 99.0221 91.8791 97.8822 89.6593 98.1821Z" fill="#2C65A7"/>
<path d="M121.674 102.341C122.834 102.421 124.053 102.321 125.153 102.621C126.273 102.941 127.513 103.781 126.953 105.141C125.653 108.3 122.694 107.06 120.354 107.2C118.554 107.3 116.434 107.44 116.074 104.881C115.874 103.481 116.874 102.701 118.154 102.521C119.294 102.361 120.494 102.481 121.654 102.481C121.674 102.441 121.674 102.401 121.674 102.341Z" fill="#2C65A7"/>
<path d="M89.7977 107.26C87.9179 106.9 84.5183 108.24 84.4183 104.801C84.3183 101.641 87.5179 102.461 89.5577 102.461C91.7575 102.461 95.1371 101.541 95.2571 104.821C95.3571 107.64 92.2174 107.22 89.7977 107.26Z" fill="#2C65A7"/>
<path d="M90.1359 120.619C91.3158 120.679 92.5156 120.619 93.6755 120.819C94.7954 121.019 95.5953 122.059 95.3153 123.019C94.3154 126.298 91.4358 124.899 89.316 125.019C87.5962 125.119 85.3564 125.799 84.4965 123.439C84.0366 122.179 84.6965 121.019 86.1163 120.839C87.4362 120.659 88.816 120.799 90.1559 120.799C90.1359 120.739 90.1359 120.679 90.1359 120.619Z" fill="#2C65A7"/>
<path d="M121.193 125.198C119.934 125.078 118.754 125.038 117.594 124.838C116.674 124.678 116.194 123.978 116.114 123.058C116.034 122.139 116.414 121.159 117.234 120.999C120.054 120.439 122.933 120.419 125.733 121.019C126.293 121.139 126.873 122.239 126.993 122.958C127.133 123.798 126.473 124.618 125.613 124.778C124.133 125.038 122.613 125.078 121.193 125.198Z" fill="#2C65A7"/>
<path d="M105.475 125.139C104.295 125.079 103.095 125.119 101.935 124.919C100.616 124.679 99.5357 123.679 100.116 122.419C101.435 119.519 104.255 120.879 106.455 120.739C108.175 120.639 110.454 119.979 111.074 122.599C111.414 124.019 110.374 124.819 109.055 124.959C107.875 125.079 106.695 124.979 105.495 124.979C105.475 125.039 105.475 125.079 105.475 125.139Z" fill="#2C65A7"/>
<path fill-rule="evenodd" clip-rule="evenodd" d="M99.6958 86.7939C101.282 86.7984 102.869 86.8028 104.455 86.8028H113.114C124.993 86.7828 125.493 86.1629 124.893 74.4442C124.673 70.1247 122.733 68.4849 118.474 68.5849C112.821 68.7265 107.159 68.6976 101.5 68.6687C99.1712 68.6567 96.843 68.6448 94.5164 68.6448C84.0576 68.6448 83.8176 68.8848 84.0176 79.5436V80.5635C83.8976 84.783 85.9373 86.8428 90.1769 86.8028C93.3499 86.7762 96.5228 86.785 99.6958 86.7939ZM100.635 82.027C101.769 82.0248 102.902 82.0226 104.035 82.0226C105.416 82.0226 106.799 82.003 108.182 81.9835C111.225 81.9406 114.269 81.8976 117.294 82.0626C120.59 82.2575 120.462 80.3638 120.335 78.469C120.319 78.2255 120.302 77.9821 120.293 77.743C120.278 77.341 120.306 76.9165 120.334 76.4925C120.455 74.6598 120.575 72.8386 117.214 72.9036C111.774 73.0188 106.335 73.0029 100.895 72.987C97.8357 72.9781 94.7761 72.9692 91.7164 72.9836C91.5653 72.9836 91.4122 72.9779 91.2589 72.9722C90.2973 72.9366 89.3287 72.9008 88.7768 74.2634C86.997 78.6629 89.1167 82.0026 93.8362 82.0226C96.1026 82.0359 98.369 82.0315 100.635 82.027Z" fill="#2C65A7"/>
</svg>
