<svg width="137" height="138" viewBox="0 0 137 138" fill="none" xmlns="http://www.w3.org/2000/svg">
<path fill-rule="evenodd" clip-rule="evenodd" d="M38.7975 98.5523C33.7122 88.8426 34.2059 84.4486 41.1509 77.2074C42.0265 76.2926 42.0199 75.4088 42.0131 74.4903V74.4902C42.0113 74.2522 42.0095 74.0118 42.0231 73.7679C42.1324 71.6802 42.0969 69.5865 42.0615 67.4917V67.4916C41.9955 63.5921 41.9294 59.6887 42.7966 55.8132C45.331 44.5071 55.1888 36.9039 67.0214 36.5254C78.6895 36.1634 89.5677 44.7704 91.7236 55.698C92.4806 59.5325 93.4681 63.1366 95.3277 66.6584C97.9938 71.7272 97.1215 77.3226 95.591 82.556C94.2251 87.2463 94.6201 90.9491 98.8989 93.8456C100.528 94.9482 101.746 96.5116 102.602 98.3219C102.997 99.1448 103.573 99.7537 104.56 99.441C105.465 99.1448 105.745 98.3548 105.745 97.4497C105.745 96.0225 105.744 94.5943 105.743 93.1657V93.1641V93.1626V93.161V93.1595V93.1579V93.1564V93.1548C105.74 88.8539 105.737 84.5483 105.762 80.252C105.774 78.8987 104.952 78.1575 104.13 77.4162C103.832 77.1478 103.535 76.8795 103.276 76.5821C100.281 73.1261 100.446 69.8675 103.836 66.7242C104.021 66.5529 104.217 66.3979 104.413 66.2431C104.951 65.8181 105.488 65.3942 105.778 64.6342C107.983 58.8577 113.76 56.4385 119.289 58.9236C121.988 60.1414 123.255 62.3631 123.255 65.276C123.26 68.5669 123.28 71.8589 123.3 75.1512V75.1521V75.153V75.1538V75.1547V75.1556V75.1565V75.1573V75.1582V75.1591V75.1595C123.354 84.0316 123.409 92.9053 123.157 101.761C122.877 111.158 114.402 117.824 105.054 116.688C104.438 116.615 103.807 116.586 103.175 116.557H103.175C101.967 116.502 100.758 116.447 99.6559 116.079C95.1302 114.532 94.5542 116.622 94.7846 120.457C94.9391 122.992 94.9079 125.543 94.8767 128.094C94.8514 130.164 94.8261 132.234 94.8998 134.297C94.9821 136.733 94.0605 137.375 91.7401 137.375C76.0729 137.292 60.4221 137.292 44.755 137.375C42.451 137.391 41.9408 136.535 41.9902 134.445C42.0461 131.863 42.0361 129.281 42.026 126.701C42.0154 123.969 42.0047 121.24 42.0724 118.515C42.1383 116.161 41.5623 115.174 39.0114 115.734C37.1701 116.129 35.2916 116.33 33.4109 116.53L33.4098 116.531L33.4088 116.531L33.4078 116.531L33.4068 116.531L33.406 116.531L33.4053 116.531L33.4046 116.531C32.7828 116.597 32.1609 116.664 31.5399 116.737C22.0112 117.873 13.7004 110.78 13.6017 101.218C13.4865 89.3363 13.5193 77.4543 13.5852 65.5722C13.6016 60.7339 15.9715 58.6438 20.8428 58.4463C25.928 58.2488 28.4789 59.9274 31.721 64.7658C35.8517 70.9043 36.2302 74.3603 31.326 79.3139C30.6869 79.9644 30.8312 81.3981 30.9743 82.8197C31.0376 83.4483 31.1006 84.0745 31.0956 84.6296C31.0901 85.8854 31.1047 87.143 31.1193 88.4012C31.1486 90.919 31.1779 93.4392 31.0462 95.9521C30.8652 99.3587 32.1159 100.264 35.2428 99.1612C35.968 98.9233 36.74 98.8257 37.5912 98.7182L37.5913 98.7182L37.5914 98.7182C37.9763 98.6696 38.3773 98.6189 38.7975 98.5523ZM48.2086 105.637L48.2138 105.639C49.5555 106.334 50.8496 107.005 52.1437 107.67C53.3945 108.312 54.5629 108.509 55.2376 106.88C55.8465 105.415 55.8301 104.444 54.0033 103.621C49.7738 101.729 45.9229 99.2109 42.8454 95.6727C38.2703 90.4064 38.978 84.1527 44.8368 80.4005C46.5154 79.3307 46.5647 78.08 46.5647 76.533C46.5647 75.1291 46.5611 73.7239 46.5574 72.3181V72.3164V72.3148V72.3131V72.3114V72.3097V72.308V72.3063V72.3047V72.303V72.3022V72.302V72.3018V72.3016V72.3014V72.3013V72.3011V72.3009V72.3007C46.5476 68.5382 46.5378 64.7717 46.5976 61.014C46.7951 49.8396 55.8301 40.9857 67.1197 40.8705C78.2282 40.7388 87.5594 49.5763 88.0861 60.6519C88.0973 60.9314 88.0898 61.2142 88.0824 61.4972V61.4973V61.4975V61.4976V61.4977V61.4979V61.498V61.4982V61.4983V61.4985C88.0571 62.4648 88.0317 63.4326 88.7443 64.2725C92.908 69.1109 93.1713 74.6734 91.4597 80.4498C89.4849 87.0985 89.1393 93.1876 96.15 97.6475C90.7521 97.9437 85.7491 97.0386 80.8778 95.8702C78.4586 95.2777 78.8865 92.4471 80.2853 91.0811C86.4814 85.0639 86.1381 77.8388 85.7952 70.6239C85.6646 67.8739 85.534 65.1254 85.7656 62.4457C85.909 60.7388 84.7272 60.7322 83.615 60.7259H83.6149C83.4511 60.725 83.2888 60.7241 83.1324 60.7177C81.783 60.6684 80.4353 60.6647 79.0877 60.6611C76.3923 60.6537 73.697 60.6464 70.9871 60.2734C67.8767 59.8455 65.0625 58.8581 62.3636 57.3934C58.9076 55.5338 50.8436 59.6809 50.6955 63.6142C50.5145 68.502 50.4651 73.4062 50.7449 78.2939C51.0411 83.6425 53.0818 88.3328 57.4264 91.7065C59.1873 93.0724 59.7633 94.5865 58.3974 96.2816C57.0973 97.8779 57.5745 98.7831 58.7595 100.149C63.4333 105.58 61.7382 114.45 55.5503 117.742C54.7274 118.186 54.0692 118.416 53.3286 117.659C52.4548 116.768 51.5692 115.885 50.6826 115.001L50.6824 115.001L50.6824 115.001L50.6823 115.001L50.6822 115.001L50.6822 115.001L50.6821 115.001L50.6821 115.001L50.682 115.001L50.682 115.001C48.9975 113.321 47.3097 111.638 45.6925 109.892C44.2607 108.345 44.1455 106.386 44.8532 103.901C46.0023 104.494 47.0974 105.061 48.1623 105.613L48.1928 105.628L48.2017 105.633L48.2086 105.637ZM79.4793 115.471C78.9692 118.663 78.064 120.046 74.9536 116.359C75.0438 117.201 75.1279 117.951 75.2049 118.639C75.381 120.209 75.5203 121.453 75.6119 122.712C76.4133 133.212 76.4183 133.212 86.8861 132.872L87.0825 132.866C89.403 132.783 90.2916 132.142 90.2258 129.739C90.1673 127.442 90.1868 125.142 90.2063 122.842V122.842V122.842V122.842V122.842V122.841V122.841V122.841V122.841C90.2307 119.966 90.2551 117.09 90.1271 114.22C89.979 111.011 91.4766 110.352 94.1426 110.714C94.9305 110.822 95.7195 110.922 96.5084 111.022L96.5103 111.022C98.6213 111.29 100.731 111.558 102.816 111.965C113.019 113.957 119.355 107.555 118.746 99.0299C118.368 93.7472 118.499 88.3986 118.73 83.0994C118.872 79.9275 117.068 80.1172 115.351 80.2977C115.09 80.3251 114.832 80.3523 114.582 80.3675C114.169 80.3931 113.705 80.3391 113.234 80.2843C111.587 80.0926 109.863 79.8921 109.991 83.0665C110.178 87.7013 110.099 92.3508 110.02 96.9871L110.007 97.7462C109.925 102.437 107.851 104.428 103.145 103.918C98.043 103.358 92.9412 102.568 87.9054 101.564C84.2519 100.84 81.8162 100.972 81.4706 105.629C81.3269 107.555 80.8542 109.453 80.3803 111.355L80.3803 111.355C80.0401 112.72 79.6994 114.088 79.4793 115.471ZM55.3702 72.5337C55.3702 71.7983 55.356 71.0613 55.3417 70.3242V70.3242V70.3242V70.3241V70.3241V70.3241V70.324V70.324C55.31 68.6859 55.2783 67.0472 55.4031 65.4242C55.6006 62.7746 58.7604 60.701 61.0809 61.8859C66.5282 64.6672 72.3211 64.9305 78.2127 64.7001C80.6484 64.6014 81.8168 65.2103 81.57 67.9257C81.4152 69.6401 81.4584 71.3638 81.5015 73.0881V73.0882C81.573 75.9487 81.6446 78.8108 80.8129 81.6345C79.0027 87.7894 73.0123 91.9696 66.9067 91.1961C60.7024 90.4061 55.6994 85.0905 55.3867 78.8038C55.3188 77.3669 55.3365 75.9299 55.3542 74.493C55.3622 73.8399 55.3702 73.1868 55.3702 72.5337ZM40.0876 103.848C40.0688 103.652 40.0478 103.433 40.0478 103.209C39.3989 103.282 38.767 103.358 38.1465 103.433L38.1464 103.434C36.9415 103.579 35.7792 103.72 34.6169 103.818C28.4784 104.312 26.7998 102.781 26.7504 96.6427C26.7456 95.5143 26.7177 94.3831 26.6897 93.252V93.2519V93.2518V93.2518V93.2517V93.2517V93.2516C26.6206 90.4567 26.5515 87.6619 26.8327 84.9088C27.2441 80.8439 25.549 79.6425 21.9449 80.3337C21.5248 80.4167 20.9988 80.3432 20.4672 80.2688C19.2081 80.0927 17.9178 79.9122 17.9294 81.7984C17.9435 83.9803 17.8492 86.1729 17.7549 88.3663C17.5184 93.8658 17.2816 99.3701 18.7522 104.723C20.5296 111.158 25.6148 112.721 37.9577 111.355C41.3476 110.98 40.6856 109.331 40.018 107.668C39.5448 106.489 39.0687 105.303 40.0313 104.559C40.1476 104.474 40.1213 104.199 40.0876 103.848ZM47.8989 117.675C48.0238 117.866 48.1478 118.059 48.2719 118.251L48.2719 118.251L48.272 118.251L48.272 118.251L48.272 118.251L48.2721 118.251C48.6713 118.87 49.0724 119.492 49.5117 120.094C51.2568 122.47 52.1452 123.679 53.2089 123.86C54.3119 124.048 55.6033 123.131 58.234 121.263C58.5527 121.041 58.8658 120.807 59.2297 120.536C59.4859 120.345 59.7673 120.135 60.0937 119.897C61.3609 123.896 60.6861 127.961 59.4354 131.022C58.3834 133.631 56.0289 133.27 53.6144 132.901C52.3273 132.704 51.0232 132.504 49.8902 132.75C48.5243 133.046 46.6153 133.244 46.5988 130.808C46.5878 128.056 46.5915 125.304 46.5951 122.547V122.545C46.597 121.165 46.5988 119.783 46.5988 118.399C47.0267 118.169 47.471 117.922 47.8989 117.675ZM70.197 115.582C70.0763 112.999 69.9497 110.289 66.4461 108.591C65.3599 116.161 64.8333 123.238 64.6852 130.331C64.6148 133.487 66.3597 133.172 68.0411 132.868C68.7181 132.745 69.3847 132.625 69.9185 132.733C72.5187 133.26 72.3871 131.4 72.1238 129.574C71.9381 128.307 71.8043 127.028 71.6705 125.748L71.6705 125.748L71.6705 125.748L71.6705 125.748L71.6705 125.747C71.4131 123.284 71.1555 120.82 70.5274 118.449C70.2892 117.555 70.2436 116.578 70.197 115.582ZM21.0129 75.5213H21.0129C19.7397 75.7164 18.3534 75.9289 18.0949 74.4426L18.027 74.05C17.4477 70.7086 16.8012 66.9793 18.6379 63.8442C19.5767 62.2367 21.3898 62.4983 23.0955 62.7444C23.5726 62.8133 24.0414 62.8809 24.4802 62.9061C26.1918 63.0049 26.7348 64.4037 26.7019 65.9178C26.669 67.5799 26.9817 68.8471 28.7426 69.5713C29.8288 70.0156 31.3757 70.7068 30.9314 72.2044C30.4541 73.8007 29.2034 75.1338 27.4425 75.4464C26.5586 75.5883 25.6385 75.5565 24.5526 75.519C24.0009 75.4999 23.4065 75.4794 22.7522 75.4794C22.3257 75.3201 21.6851 75.4183 21.0129 75.5213ZM118.751 71.8323V71.8323C118.647 71.0416 118.544 70.2614 118.697 69.6702C118.697 68.765 118.697 68.2055 118.681 67.6624C118.679 67.4216 118.682 67.1786 118.686 66.9363C118.715 64.8104 118.743 62.74 115.389 62.7253C112.361 62.7088 109.596 62.7088 109.991 66.9547C110.119 68.1977 109.259 68.7463 108.293 69.3625L108.198 69.4233C105.202 71.3652 105.235 73.949 108.428 75.101C111.456 76.1872 114.994 76.2036 117.874 75.1504C119.129 74.6864 118.938 73.2427 118.751 71.8323ZM68.7984 95.5286L68.7985 95.5286C70.0408 95.3749 70.9789 95.2589 71.9094 95.3262C72.2209 95.348 72.5597 95.1866 72.8973 95.0257C73.5764 94.702 74.251 94.3805 74.6907 95.5566C75.0907 96.6566 74.3498 97.3598 73.6414 98.0321L73.6411 98.0324C73.5336 98.1345 73.4267 98.2359 73.3248 98.3378C73.009 98.6589 72.6811 98.9696 72.3534 99.28L72.3533 99.2801C71.6734 99.9242 70.9946 100.567 70.4283 101.3C68.0749 104.328 66.133 105.398 64.8 100.56C64.6679 100.075 64.3371 99.6462 64.0057 99.2164C63.346 98.3607 62.6839 97.502 63.5821 96.1984C64.4554 94.9184 65.546 95.3427 66.241 95.6131C66.5021 95.7147 66.7073 95.7945 66.8242 95.7541C67.5691 95.6806 68.217 95.6005 68.7984 95.5286ZM76.983 106.202C77.4076 104.48 77.8372 102.737 77.6693 100.741C77.1752 101.159 76.6644 101.554 76.163 101.941C74.3769 103.322 72.7099 104.61 72.3372 106.55C72.041 108.064 74.1969 109.529 76.2869 110.22C76.3368 108.823 76.6585 107.518 76.983 106.202Z" fill="#2C65A7"/>
<path fill-rule="evenodd" clip-rule="evenodd" d="M32.3127 36.5417C37.3651 32.6743 39.883 27.3916 39.883 20.9239C39.7949 20.3643 39.7248 19.7998 39.6546 19.235L39.6546 19.235L39.6546 19.2349C39.5019 18.0059 39.349 16.7757 39.0108 15.5918C36.6739 7.51138 29.6796 1.80076 21.8131 1.37287C12.8604 0.895614 5.04331 5.70109 1.85062 13.6334C-1.34206 21.5658 0.698582 30.3209 7.46246 35.9657C10.1285 38.2039 11.5274 40.4585 11.4616 44.0791C11.3464 50.4809 14.6707 53.7888 20.3813 53.7065C25.7792 53.6242 28.758 50.3328 28.7251 44.0133C28.7251 40.8206 29.696 38.5331 32.3127 36.5417ZM22.8663 35.9427C23.091 37.4642 23.3166 38.9926 23.2937 40.5082C25.1204 37.1345 27.5067 34.633 30.3373 32.2796C36.9037 26.7501 37.2164 16.7606 31.3083 10.6221C25.1698 4.25317 15.4765 4.17089 9.22281 10.4246C3.18304 16.4644 3.3641 26.2728 9.71655 32.0822C10.1741 32.5013 10.6497 32.9025 11.124 33.3025L11.124 33.3025L11.124 33.3025C13.0892 34.9599 15.0317 36.5982 15.5753 39.422C15.6576 39.8499 16.2664 40.3436 16.7272 40.4588C17.3526 40.6234 17.797 40.0474 17.6982 39.455C17.4344 37.8829 17.5845 36.2493 17.7348 34.6133C18.0439 31.2483 18.3539 27.8736 15.0651 25.0056C12.5472 22.8003 13.1396 18.6861 15.5753 16.3656C17.8628 14.1933 22.01 14.0452 24.3963 16.0529C26.9307 18.1924 27.8687 22.3725 25.4496 24.6271C21.7122 28.1271 22.2859 32.012 22.8663 35.9427ZM24.3143 45.9389C23.656 48.1442 22.4382 49.3949 20.3646 49.4279C18.1922 49.4772 16.2996 48.5227 16.168 46.2516C16.0758 44.6717 17.3424 44.8613 18.3836 45.0172C18.6438 45.0562 18.89 45.0931 19.0973 45.0996C19.563 45.1174 20.0501 45.067 20.542 45.0161C21.8756 44.8782 23.2443 44.7367 24.3143 45.9389ZM22.1591 21.138C22.1756 19.8872 21.435 19.1302 20.1514 18.9821C18.8183 19.1302 18.0284 20.0024 18.1107 21.138C18.1929 22.2571 19.0158 23.228 20.3653 23.0799C21.4186 22.9647 22.1427 22.2077 22.1591 21.138Z" fill="#2C65A7"/>
<path fill-rule="evenodd" clip-rule="evenodd" d="M132.714 14.2418C132.892 13.8622 133.073 13.4755 133.26 13.0742C133.218 12.9641 133.188 12.8407 133.157 12.7152C133.091 12.4463 133.023 12.1675 132.832 11.988C132.115 11.2456 131.381 10.5206 130.647 9.79558C129.493 8.65635 128.339 7.51712 127.253 6.31029C125.871 4.76332 124.521 4.00629 122.596 5.35577C120.687 6.70526 119.65 6.09634 119.123 3.87463C118.827 2.60743 118.481 1.17566 116.49 1.27441C115.482 1.3197 114.352 1.19746 113.234 1.07659C111.102 0.846149 109.017 0.620684 107.916 1.57064C104.904 4.18732 102.255 5.32286 98.2555 5.652C96.0174 5.83303 92.5779 9.27257 92.3145 11.5437C91.8702 15.3946 90.9486 18.0442 88.4635 21.204C86.8836 23.1953 86.6203 30.5023 88.9737 31.0618C92.9871 32.0131 92.3939 34.134 91.8364 36.1273C91.468 37.4444 91.1153 38.7057 92.117 39.5372C92.4023 39.7786 92.6583 40.0492 92.9143 40.3198C93.0423 40.4552 93.1703 40.5905 93.3019 40.7221C93.7047 41.1147 94.139 41.4898 94.5736 41.8652C95.5419 42.7017 96.5117 43.5394 97.1365 44.5731C98.5703 46.9266 100.242 46.1131 101.708 45.3994C102.682 44.9254 103.566 44.4953 104.229 45.0668C104.851 45.603 105.239 46.4011 105.628 47.2001C106.431 48.8536 107.236 50.5105 110.121 49.8558C111.454 49.5596 112.935 49.6583 114.301 49.8394C117.082 50.2014 118.86 49.3457 119.354 46.3834C119.683 44.425 120.818 44.4414 122.332 45.2972C122.504 45.3945 122.675 45.5004 122.846 45.6064C123.92 46.2717 124.995 46.9381 126.315 45.4618C126.98 44.72 127.877 44.0161 128.759 43.3237C130.343 42.0807 131.88 40.8749 131.943 39.5537C132.157 35.2748 133.984 32.2796 136.09 28.9553C136.626 28.1087 136.492 26.8575 136.356 25.5878C136.283 24.9075 136.21 24.2218 136.239 23.5903C136.354 21.1217 136.403 18.8012 133.128 18.2911C131.68 18.0607 131.417 17.0568 131.993 15.7896C132.231 15.2745 132.47 14.765 132.714 14.2418ZM104.249 39.3797C104.448 39.3073 104.632 39.2407 104.789 39.1753C106.961 39.5209 108.212 40.3931 108.59 42.3022C108.969 44.3922 110.154 45.1328 112.375 45.0999C114.449 45.067 115.42 44.3593 115.897 42.4832C116.786 38.9614 119.041 38.4512 121.888 40.1134C123.714 41.1831 124.866 40.7223 126.232 39.3399C127.615 37.9575 128.059 36.8055 126.956 34.9952C125.179 32.0823 125.903 29.91 129.376 29.0706C131.35 28.5934 132.042 27.5237 132.025 25.4994C132.009 23.5904 131.663 22.2409 129.622 21.7637C125.903 20.8915 125.163 18.7027 127.072 15.5923C128.076 13.9465 127.713 12.8439 126.413 11.5932C125.113 10.3589 123.994 9.38793 122.085 10.5399C118.662 12.5971 116.572 11.3628 115.65 7.65993C115.239 6.04713 114.169 5.53696 112.54 5.66862C112.292 5.69014 112.043 5.69847 111.797 5.70669C110.538 5.74875 109.363 5.78801 108.936 7.57764C107.998 11.4944 105.677 12.5642 102.156 10.4576C100.461 9.44103 99.5021 10.3563 98.4417 11.3682C98.3691 11.4375 98.2961 11.5072 98.2223 11.5767C96.988 12.7287 96.3133 13.7326 97.3995 15.4935C99.2427 18.4723 98.8312 20.8421 94.9967 21.7472C93.0383 22.208 92.413 23.3765 92.4623 25.3842C92.5117 27.3097 92.8902 28.5934 94.9638 29.0542C98.7654 29.91 99.2426 32.2798 97.4159 35.2914C96.3791 36.9865 96.8728 38.0233 98.14 39.2411C99.4401 40.5083 100.592 41.4958 102.452 40.2121C103.02 39.8251 103.695 39.5803 104.249 39.3797Z" fill="#2C65A7"/>
<path fill-rule="evenodd" clip-rule="evenodd" d="M52.9497 16.3981C52.8345 25.0545 59.5326 31.8019 68.2384 31.8348C76.9607 31.8513 83.9549 25.038 83.8068 16.6449C83.6751 8.26824 76.8948 1.42208 68.6827 1.32333C60.125 1.22459 53.0649 7.98847 52.9497 16.3981ZM68.2873 27.5234C74.36 27.5563 79.1819 22.8167 79.2148 16.7604C79.2642 10.7536 74.3764 5.76709 68.4354 5.73417C62.3957 5.71772 57.5243 10.589 57.5572 16.6123C57.5737 22.8496 62.1653 27.5069 68.2873 27.5234Z" fill="#2C65A7"/>
<path d="M76.2358 14.1274C75.8244 14.5882 75.38 15.1148 74.9028 15.5921C73.3229 17.1719 71.7266 18.7518 70.1302 20.3152C65.9666 24.4295 65.9666 24.4295 61.9675 20.0026C61.1117 19.0645 59.9762 18.2746 61.4244 16.9415C62.4118 16.0364 63.2511 14.5223 64.7158 16.3326C66.0324 17.9783 67.0198 17.1226 68.0895 15.987C69.4226 14.5553 70.8214 13.1893 72.2367 11.8234C72.7798 11.2967 73.3229 10.3422 74.2116 11.3955C74.9028 12.2513 76.0383 12.745 76.2358 14.1274Z" fill="#2C65A7"/>
<path fill-rule="evenodd" clip-rule="evenodd" d="M112.196 36.6079C117.923 36.6079 123.189 31.3581 123.239 25.5981C123.288 19.509 118.565 14.72 112.426 14.6542C106.255 14.5719 101.268 19.2128 101.153 25.1538C101.038 31.1113 106.354 36.6079 112.196 36.6079ZM112.196 31.736C115.931 31.736 118.565 29.251 118.63 25.6469C118.696 21.8617 115.915 18.9488 112.245 18.9488C108.74 18.9324 105.926 21.6807 105.843 25.1861C105.745 29.0864 108.328 31.736 112.196 31.736Z" fill="#2C65A7"/>
</svg>
