<svg width="134" height="132" viewBox="0 0 134 132" fill="none" xmlns="http://www.w3.org/2000/svg">
<path d="M53.5381 62.5819C48.6276 62.6323 44.474 58.5963 44.4067 53.77C44.3562 49.0613 48.6781 44.8404 53.5045 44.8908C58.314 44.9413 62.1818 48.7586 62.3163 53.5514C62.4509 58.4954 58.5326 62.5314 53.5381 62.5819Z" fill="#2C65A7"/>
<path fill-rule="evenodd" clip-rule="evenodd" d="M55.5299 131.704C57.3269 131.709 59.1239 131.715 60.9208 131.715H77.6701C81.1656 131.715 82.8933 131.715 83.7516 130.851C84.5903 130.007 84.5987 128.338 84.6151 125.037L84.6154 124.988C84.6203 123.639 84.5726 122.28 84.5249 120.921V120.921V120.921V120.92V120.92V120.92V120.92V120.919V120.919C84.4108 117.669 84.2966 114.418 84.9012 111.3C86.8515 101.175 89.0613 91.0982 91.2715 81.0199L91.2716 81.0194C92.2441 76.5851 93.2166 72.1504 94.1672 67.711C94.4867 66.2311 95.008 65.054 96.5383 64.4654C98.7943 63.6045 101.037 62.6973 103.281 61.79L103.281 61.7899L103.281 61.7899L103.281 61.7898L103.281 61.7898L103.281 61.7897L103.281 61.7897L103.281 61.7897L103.281 61.7896L103.282 61.7896C108.312 59.755 113.342 57.7203 118.518 56.2085C121.864 55.2331 122.688 53.9214 122.385 51.0121C121.645 43.9492 123.546 38.2483 128.793 32.8839C135.687 25.8377 134.964 14.4361 128.389 7.15448C121.477 -0.497066 110.597 -2.39734 102.542 3.9257C98.2691 7.27499 93.5364 9.23577 88.7928 11.2011C87.0582 11.9197 85.322 12.639 83.6064 13.4271C81.4034 14.4361 79.7554 14.2006 77.7542 12.8049C66.9748 5.30466 54.9004 2.95034 42.3216 6.11185C24.6642 10.5346 12.5731 21.2804 8.28488 39.5769C6.04263 49.1146 3.89459 58.6836 1.74972 68.2386L1.74964 68.239L1.74957 68.2393L1.52463 69.2413C1.37027 69.9347 1.22528 70.5689 1.09238 71.1502L1.09203 71.1518L1.0916 71.1536L1.09107 71.156L1.09101 71.1562C0.312796 74.56 -0.0500882 76.1472 0.549026 77.172C1.07249 78.0674 2.33034 78.5335 4.68722 79.4068L4.6874 79.4069C5.49064 79.7045 6.42153 80.0495 7.4945 80.4748C10.1179 81.5006 11.5977 82.6105 11.9004 85.8057C12.3569 90.6091 13.0822 95.3869 13.8079 100.167L13.8079 100.167C14.2584 103.135 14.7091 106.104 15.0956 109.08C15.5329 112.46 16.8614 114.108 20.5946 113.873C23.3256 113.687 26.0737 113.723 28.8223 113.759C30.7958 113.785 32.7695 113.811 34.7374 113.755C36.9572 113.704 37.8148 114.444 37.7307 116.698C37.6702 118.531 37.6897 120.369 37.7092 122.207C37.7277 123.943 37.7461 125.678 37.6971 127.41C37.5962 130.521 38.9584 131.799 42.0526 131.749C46.5442 131.677 51.0359 131.69 55.5275 131.704H55.5299ZM87.1174 79.0537C87.938 75.1911 88.7708 71.2714 89.6262 67.2734C87.5948 68.0683 85.6235 68.803 83.7049 69.5182L83.7048 69.5182L83.7047 69.5182C79.0478 71.2541 74.7008 72.8744 70.5562 74.9586C68.0001 76.2534 66.3857 76.657 64.25 74.9081C62.1815 73.1928 60.8698 73.8823 60.668 76.4048C60.3821 79.9699 58.3978 80.9285 55.1859 80.4912C54.076 80.3399 52.882 80.2894 51.7721 80.4912C48.2574 81.1302 46.3403 79.6504 46.0881 76.1862C45.8358 72.806 44.1373 73.6301 42.5566 74.9417C39.8827 77.1615 37.7975 76.7579 35.83 74.0505C35.09 73.0247 34.1483 72.0661 33.1225 71.3262C30.3982 69.3418 30.045 67.2397 32.2816 64.6164C34.2492 62.3125 33.2402 61.1017 30.5664 60.8663C27.5562 60.614 26.379 59.1173 26.7995 56.0903C27.0181 54.5432 27.0181 52.9288 26.7995 51.3817C26.3622 48.3547 27.573 46.8412 30.5832 46.5722C33.4588 46.3199 34.0306 44.9409 32.1639 42.738C30.0619 40.2491 30.4823 38.2311 33.0048 36.3645C33.812 35.7759 34.5182 35.036 35.1236 34.2456C37.4107 31.2859 39.8155 29.8733 43.162 32.9507C44.8773 34.5315 45.8695 33.8252 46.0376 31.5549C46.2899 28.3766 48.1229 26.8799 51.1835 25.8205C56.7938 23.8826 62.3191 21.6979 67.856 19.5086L67.8562 19.5085L67.8564 19.5085L67.8566 19.5084L67.8568 19.5083L67.857 19.5082L67.8571 19.5082L67.8573 19.5081L67.8575 19.508C70.1039 18.6198 72.3522 17.7308 74.609 16.8572C74.503 16.6394 74.4259 16.4565 74.3617 16.3044L74.3614 16.3036L74.3614 16.3035C74.2425 16.0218 74.1682 15.8456 74.0372 15.7473C73.3478 15.2597 72.6246 14.7888 71.8679 14.3852C62.9719 9.67656 53.5378 7.97808 43.7169 10.3492C28.952 13.8975 18.1389 22.5244 13.5816 37.2221C11.4434 44.1514 9.98154 51.2827 8.51947 58.4153L8.51946 58.4154C7.83125 61.7727 7.14298 65.1304 6.38409 68.4674C6.20376 69.2638 6.03602 69.9554 5.88959 70.5591C5.37855 72.6659 5.12704 73.7028 5.50568 74.395C5.8726 75.0658 6.83128 75.4128 8.71896 76.0962C9.32205 76.3145 10.02 76.5671 10.8237 76.8756C14.0693 78.1201 15.8182 79.6168 16.1545 83.4846C16.5329 87.9156 17.2297 92.3231 17.9271 96.7349L17.9272 96.735C18.4076 99.7741 18.8884 102.815 19.2656 105.867C19.5851 108.407 20.5437 109.298 23.0662 109.197C27.0517 109.046 31.0709 108.995 35.0564 109.214C38.2516 109.382 40.8413 108.474 43.3974 106.641C47.3493 103.816 51.4357 101.176 55.539 98.5859C55.821 98.4096 56.1051 98.1699 56.3953 97.9251C57.4893 97.0021 58.6678 96.0078 60.1299 98.0814C61.716 100.343 60.287 101.078 58.9429 101.769L58.9428 101.769C58.5483 101.971 58.1611 102.17 57.8597 102.403C56.3112 103.589 54.6669 104.653 53.0272 105.713L53.0268 105.714C52.3873 106.127 51.7485 106.541 51.1162 106.961C42.0836 112.96 42.085 113.014 42.3476 123.637L42.3548 123.928C42.4221 126.384 43.1283 127.073 45.5331 127.04C55.9762 126.922 66.4025 126.871 76.8288 127.056C79.8558 127.107 80.2594 125.879 80.293 123.289C80.3119 121.854 80.2764 120.418 80.241 118.98C80.1501 115.299 80.0591 111.613 80.8816 107.936C82.9975 98.4446 85.0177 88.936 87.1174 79.0537ZM70.8746 40.0816C70.5631 40.6106 70.268 41.1027 69.9864 41.5722C69.4625 42.4457 68.9856 43.2409 68.5372 44.0503C66.6201 47.4977 67.175 48.7253 70.9251 49.9193C71.3881 50.0686 71.9159 50.1355 72.4467 50.2026C73.7087 50.3624 74.9871 50.5242 75.4488 51.8027C76.3232 54.2243 76.1214 56.3432 72.7076 57.1672C66.4855 58.6807 66.1996 59.5384 69.3612 64.7683C70.4038 66.5004 71.026 67.6944 69.193 69.477C67.3936 71.2259 66.1996 70.7719 64.4171 69.7124C59.1367 66.5677 58.464 66.8536 56.9841 72.7562C56.4796 74.7574 55.9247 76.0859 53.419 76.0691C50.8742 76.0523 50.5296 74.6854 50.0288 72.6985L50.0221 72.6721C48.6431 67.0386 47.5837 66.6518 42.5051 69.6956C40.7898 70.7214 39.579 71.4277 37.746 69.5779C36.0138 67.8121 36.367 66.6013 37.4265 64.802C40.5207 59.5047 40.2685 58.933 34.08 57.1168C32.2301 56.5786 31.1707 55.9396 31.2043 53.6862C31.238 51.4328 32.331 50.8442 34.1977 50.3397C40.403 48.6412 40.5712 48.1872 37.3592 42.6041C36.4007 40.9392 36.0139 39.7621 37.5778 38.1309C39.2931 36.3315 40.6048 36.8023 42.3873 37.845C47.735 40.9729 48.5423 40.6533 50.0389 34.6666C50.5098 32.7664 50.947 31.6397 53.2341 31.606C55.6052 31.5556 56.4124 32.5646 56.9505 34.6835C58.5313 40.872 58.9349 40.9729 64.6525 37.7945C64.8624 37.6779 65.0723 37.5362 65.2843 37.3931C66.1423 36.8139 67.0346 36.2115 68.0999 37.1555C68.8811 37.7958 69.5647 38.5823 70.2399 39.3592C70.4514 39.6026 70.6621 39.8449 70.8746 40.0816ZM110.674 20.4357H110.673H110.672H110.672H110.671H110.67H110.67C109.467 20.4377 108.222 20.4396 106.914 20.4396C107.895 22.7073 109.291 23.483 110.544 24.1789L110.714 24.2738C114.801 26.6282 116.331 30.0587 115.81 34.6665C115.607 36.488 115.703 38.3467 115.798 40.1893C115.814 40.4902 115.829 40.7906 115.843 41.0904C115.86 41.5781 116.247 42.3517 116.634 42.4694C117.424 42.7048 117.979 42.0826 118.13 41.3259C118.926 37.3209 121.46 34.4794 124.032 31.5959C124.505 31.065 124.98 30.5327 125.446 29.9915C130.81 23.7525 129.902 14.3184 123.747 8.80258C117.794 3.4549 108.612 3.62307 102.76 9.17254C96.9414 14.6884 96.1847 24.2234 101.431 30.1092C101.941 30.6844 102.466 31.2467 102.989 31.8074C105.569 34.5747 108.115 37.3044 108.73 41.3595C108.848 42.0826 109.419 42.6207 110.277 42.4694C110.867 42.3686 110.977 41.9103 111.091 41.4323L111.091 41.432L111.101 41.3911L111.118 41.3218C111.129 41.2782 111.14 41.2346 111.151 41.1913C112.648 35.4905 110.798 30.1765 105.989 26.46C105.535 26.1068 105.081 25.7705 104.61 25.4342C102.44 23.8871 101.953 21.7009 102.709 19.3634C103.433 17.11 105.266 16.0337 107.67 16.0337C110.815 16.0337 113.96 16.0337 117.104 16.0169L117.236 16.0167L117.319 16.0164C118.871 16.0115 120.311 16.0069 120.182 18.3544C120.064 20.4712 118.738 20.4565 117.227 20.4397L117.222 20.4396C115.096 20.4286 112.963 20.4321 110.675 20.4357H110.675H110.675H110.675H110.674H110.674H110.674ZM74.7436 42.52C77.1652 39.863 75.988 38.0468 73.8691 36.3483C72.7761 35.457 71.7334 34.448 70.8589 33.3213C68.9755 30.8997 67.0752 30.2439 64.4855 32.43C64.3929 32.5072 64.2893 32.6002 64.1772 32.7009C63.3116 33.4783 61.9396 34.7104 61.2399 32.5814C61.1238 32.23 60.9521 31.8496 60.7738 31.4543C60.0217 29.7877 59.1507 27.8574 61.8284 26.7292C64.9831 25.3946 68.1864 24.1815 71.3872 22.9694L71.3873 22.9693L71.3875 22.9692L71.3878 22.9691L71.388 22.969L71.3883 22.9689L71.3885 22.9688C73.5108 22.1652 75.6319 21.3619 77.737 20.5239C79.4018 19.868 80.394 20.6752 81.4366 21.7683C85.0185 25.5352 87.6924 29.8739 89.5927 34.6835L89.6473 34.8239C90.1506 36.115 90.6124 37.2996 88.5836 38.03C85.3682 39.1925 82.1983 40.4732 79.0337 41.7518C77.8951 42.2118 76.7572 42.6715 75.6181 43.1254C75.3154 42.9236 75.0295 42.7218 74.7436 42.52ZM77.3673 67.1054C87.7432 66.1468 92.3341 60.9169 92.4854 50.1711C92.4446 49.5684 92.4084 48.9643 92.3721 48.359L92.372 48.3574L92.3719 48.356C92.2889 46.9693 92.2054 45.5768 92.065 44.1844C91.9137 42.839 91.6951 41.5778 89.6939 42.4691C88.642 42.9385 87.5141 43.3108 86.3913 43.6815C84.1753 44.4132 81.9794 45.1382 80.4279 46.5891C79.5239 47.4236 79.7702 49.4883 80.0161 51.5499L80.0161 51.5501C80.1269 52.4797 80.2377 53.4086 80.243 54.2239C80.243 54.3192 80.2392 54.4145 80.2355 54.5098V54.5099C80.228 54.7004 80.2206 54.891 80.243 55.0815C80.697 58.5121 79.9402 60.9001 75.8034 61.001C74.8448 61.0178 72.5746 61.2196 73.7517 63.1199C73.9945 63.511 74.1712 63.9959 74.3518 64.4917C74.8468 65.8502 75.3714 67.2902 77.3673 67.1054ZM101.953 37.845C103.618 38.6522 104.14 40.5524 104.257 42.4863C104.348 43.9608 104.351 45.4427 104.355 46.9226V46.9228C104.36 49.291 104.366 51.6538 104.728 53.9721C105.031 55.8892 104.644 56.36 103.147 57.0495L102.902 57.1634C99.6403 58.674 98.0167 59.4261 97.2468 58.9084C96.4835 58.3951 96.5597 56.6334 96.7113 53.1249L96.7234 52.8453C96.858 49.7343 96.6898 46.5896 96.5216 43.4617C96.3703 40.5692 98.6741 37.845 101.953 37.845ZM93.5949 32.6145C94.6208 35.5574 95.9829 35.7929 98.2867 33.7581C93.864 28.1077 92.3 21.7174 94.0994 14.2172C93.1818 14.5647 92.329 14.8982 91.5179 15.2154L91.5176 15.2155C89.8167 15.8806 88.2991 16.4741 86.7506 16.9751C84.3122 17.7655 84.8503 18.7577 86.162 20.2375C89.4076 23.8867 91.9805 28.0068 93.5949 32.6145ZM113.556 46.9931C114.048 47.0773 114.576 47.074 115.086 47.0709C116.613 47.0614 117.987 47.0529 117.81 49.3979C117.603 52.0285 116.012 51.775 114.479 51.5309C113.895 51.4379 113.32 51.3463 112.833 51.4159C112.695 51.4351 112.551 51.4584 112.402 51.4824C110.99 51.7106 109.2 51.9997 109.2 49.3979C109.2 46.7924 110.562 46.9806 111.827 47.1556C112.506 47.2494 113.157 47.3394 113.556 46.9931Z" fill="#2C65A7"/>
</svg>
