<svg width="143" height="142" viewBox="0 0 143 142" fill="none" xmlns="http://www.w3.org/2000/svg">
<path d="M96.7953 14.7339C100.563 14.7339 104.351 14.7552 108.119 14.7339C109.928 14.7126 110.779 15.5427 110.715 17.3306C110.673 18.8844 109.779 19.5655 108.289 19.5655C100.563 19.5655 92.8364 19.5655 85.1101 19.5442C83.5989 19.5442 82.8752 18.7993 82.854 17.2242C82.8114 15.3299 83.7266 14.7126 85.4719 14.7339C89.2393 14.7552 93.0279 14.7339 96.7953 14.7339Z" fill="white"/>
<path d="M119.443 13.9466C123.253 17.9268 124.573 13.3294 126.446 11.6692C130.064 8.45523 133.363 4.85815 136.812 1.43135C137.769 0.494835 138.621 -0.846087 140.175 0.941808C141.281 2.24016 141.728 3.13411 140.302 4.5176C134.768 9.92386 129.319 15.4153 123.849 20.8641C122.934 21.7793 121.891 22.801 120.699 21.3749C119.252 19.6721 116.527 18.7356 116.74 16.0325C116.804 15.0108 117.932 13.9253 119.443 13.9466Z" fill="white"/>
<path d="M96.8164 28.6967C93.1981 28.6967 89.601 28.718 85.9826 28.6967C84.514 28.6967 83.0666 28.7606 82.9177 26.6322C82.7687 24.525 83.9819 24.2483 85.5995 24.2483C93.0065 24.2483 100.413 24.2483 107.82 24.2483C109.332 24.2483 110.779 24.3334 110.673 26.4832C110.566 28.4626 109.268 28.718 107.672 28.6967C104.032 28.6755 100.414 28.6967 96.8164 28.6967Z" fill="white"/>
<path d="M92.0488 37.7004C89.7075 37.7004 87.3662 37.7217 85.0249 37.6791C83.8969 37.6578 82.8965 37.3598 82.8965 35.8699C82.8965 34.4651 83.1945 33.2945 84.8759 33.2732C89.7501 33.2306 94.6029 33.2519 99.4771 33.2945C100.839 33.3158 101.222 34.2097 101.308 35.4442C101.414 37.1044 100.626 37.7217 99.094 37.7004C96.7527 37.7004 94.4114 37.7004 92.0488 37.7004Z" fill="white"/>
<path d="M110.737 36.3166C110.652 37.8704 109.12 37.764 107.672 37.7427C106.033 37.7001 105.608 36.7211 105.693 35.2311C105.799 33.5922 106.757 33.1665 108.204 33.1453C110.014 33.1453 110.822 34.0179 110.737 36.3166Z" fill="white"/>
<path fill-rule="evenodd" clip-rule="evenodd" d="M97.22 79.893L97.2208 79.8859C99.2191 80.6941 100.487 82.0094 101.704 83.2716C102.25 83.8379 102.785 84.3935 103.372 84.8878C107.991 89.0808 112.993 89.4001 116.888 85.6753C120.698 82.0357 120.655 76.8423 116.717 72.0958C114.039 68.8764 111.346 65.6706 108.656 62.4668L108.655 62.4664L108.653 62.464C106.577 59.9922 104.502 57.5216 102.436 55.047C93.869 44.7741 82.5807 38.3118 71.2947 31.8508C68.6441 30.3334 65.9936 28.816 63.3785 27.2494C62.1962 26.5431 60.7371 26.3021 59.2886 26.0627C58.7292 25.9703 58.1714 25.8781 57.6317 25.7595C56.6734 25.5442 55.5979 25.5331 54.5228 25.522C51.3477 25.4893 48.1755 25.4566 48.0324 20.1617C48.0179 19.9009 47.6877 19.64 47.3575 19.3792C47.2027 19.2569 47.0479 19.1346 46.9256 19.0123C45.5327 17.613 44.13 16.2233 42.7275 14.834L42.7273 14.8338L42.7269 14.8334L42.7263 14.8328L42.7261 14.8326C39.5003 11.6369 36.276 8.44275 33.1758 5.13487C31.1325 2.96385 29.8555 2.72972 27.6419 5.02845C19.4686 13.4784 11.1464 21.8006 2.69647 29.9738C0.121051 32.4641 0.270042 33.8476 2.67519 36.4656C5.69195 39.7553 9.00521 42.7638 12.32 45.7737C18.5706 51.4493 24.8267 57.13 29.1105 64.7101C30.8324 67.751 33.9102 69.8932 36.9056 71.978L36.907 71.979L36.909 71.9804L36.9094 71.9807C37.3931 72.3174 37.8746 72.6525 38.348 72.9898C43.7968 76.8423 49.2243 80.7799 54.6093 84.7388C54.8344 84.9025 55.0704 85.0607 55.308 85.2201L55.3081 85.2201L55.3082 85.2202C56.5538 86.0552 57.8445 86.9206 57.8445 88.7616C57.8445 92.6992 59.973 95.7642 62.4633 98.9568C52.119 103.682 47.0959 111.77 46.0529 123.2C45.5546 122.73 45.0774 122.27 44.6138 121.822L44.6133 121.822L44.6133 121.822L44.6132 121.822C42.3253 119.613 40.3715 117.727 37.8584 116.666C34.985 115.452 35.4958 114.175 36.9858 111.919C41.2427 105.47 40.0507 98.3183 34.2826 93.5293C29.2169 89.3363 21.8951 89.464 16.8719 93.8486C11.4231 98.6163 10.2312 105.768 14.4668 111.855C16.3398 114.558 15.9354 115.41 13.2536 116.878C5.54859 121.114 1.65353 127.989 0.54674 136.588C0.206189 139.248 0.482887 141.079 4.01611 141.058C18.4896 140.93 32.963 140.951 47.4364 141.058C50.4588 141.079 51.0548 139.717 50.9058 137.056C50.7612 134.599 50.0244 132.287 49.2464 129.847L49.2463 129.847L49.2463 129.846L49.2463 129.846C48.7641 128.334 48.2661 126.772 47.8834 125.094H89.4307L89.4947 125.094C92.4231 125.105 93.8903 125.11 94.4116 125.815C94.935 126.522 94.5048 127.935 93.6425 130.767L93.5812 130.969C93.133 132.403 92.905 133.9 92.6764 135.401L92.6763 135.402L92.6763 135.402L92.6762 135.402L92.6762 135.403L92.6762 135.403L92.6761 135.403L92.6761 135.403L92.676 135.404L92.676 135.404L92.6759 135.404L92.6759 135.405L92.6758 135.405C92.579 136.041 92.482 136.678 92.368 137.311C91.8359 140.227 93.1768 141.079 95.965 141.058C110.268 140.972 124.55 140.951 138.853 141.079C142.11 141.1 142.833 139.738 142.578 136.822C141.854 128.713 138.193 122.221 131.382 117.964C127.87 115.772 126.636 114.558 129.36 110.536C132.808 105.427 131.191 98.4034 126.721 94.2104C122.4 90.1451 115.717 89.3788 110.673 92.3374C105.16 95.5726 101.265 102.469 104.351 107.449C108.757 114.601 105.479 117.453 100.073 120.497C99.4871 120.818 98.9744 121.285 98.3011 121.898L98.3009 121.898L98.3009 121.898C97.9469 122.221 97.5485 122.584 97.0718 122.987C96.2204 113.239 92.3467 105.874 84.3863 100.958C84.0902 100.775 83.6921 100.62 83.2807 100.461C82.0653 99.9891 80.7339 99.4728 81.5767 98.0416C81.8396 97.5983 82.0676 97.1063 82.2998 96.605C83.0267 95.0361 83.7961 93.3753 85.8123 92.8269C96.1116 90.0393 96.114 90.0174 97.22 79.893ZM92.2075 72.2245V72.2228V72.2211V72.2194V72.2177V72.2159V72.2142V72.2125V72.2108V72.2091V72.2074V72.2056V72.2039C92.2017 70.7485 92.196 69.2936 92.196 67.8388C92.2027 66.6376 92.1817 65.4342 92.1606 64.2308V64.2306C92.1152 61.6384 92.0698 59.0457 92.3024 56.4729C92.643 52.3863 91.2382 49.7683 87.6624 47.6398C80.5321 43.4042 73.5508 38.8706 66.6972 34.2093C59.8649 29.5693 51.9258 29.3352 44.3272 29.2075C41.0635 29.1514 38.9797 31.7503 36.8686 34.3833L36.8685 34.3833L36.8685 34.3834C35.7718 35.7512 34.6677 37.1282 33.387 38.1469C33.2025 38.2888 33.037 38.4686 32.8714 38.6483C32.7887 38.7382 32.7059 38.828 32.6208 38.9132C23.0002 48.6402 22.915 50.045 31.6629 60.7298C33.3657 62.8156 35.2387 64.8802 37.3672 66.4979C43.6656 71.2862 50.0938 75.9077 56.5307 80.5353L57.9067 81.5247C61.3122 83.9724 65.1434 84.9728 67.9955 81.2054C70.8051 77.4806 68.2297 74.586 65.3137 72.0105C61.2756 68.4697 57.3016 64.8649 53.3236 61.2565L53.3234 61.2563L53.3226 61.2556C51.6815 59.767 50.0397 58.2777 48.3925 56.7921C46.6685 55.2384 45.5404 53.4079 46.6898 51.0666C47.7722 48.8651 49.503 49.3993 51.1325 49.9022L51.1325 49.9022C51.3935 49.9828 51.6518 50.0625 51.9045 50.1301L52.4949 50.2901L52.4953 50.2902L52.4954 50.2902L52.4954 50.2902L52.4955 50.2902L52.4955 50.2902L52.4956 50.2902L52.4956 50.2903L52.4957 50.2903L52.4957 50.2903L52.4958 50.2903L52.4958 50.2903L52.4959 50.2903C58.8981 52.025 65.318 53.7644 71.6778 55.6641C79.702 58.0479 82.7031 62.2835 82.916 70.6909C82.9413 71.7457 82.9038 72.809 82.8663 73.8739V73.8739V73.874V73.8741V73.8741V73.8742V73.8743V73.8744V73.8744V73.8745V73.8746V73.8746V73.8747C82.7462 77.2787 82.6256 80.6986 84.5549 83.9086C84.8481 84.3952 84.995 85.0062 85.1409 85.6129C85.4928 87.076 85.8386 88.5141 88.2158 88.1229C91.302 87.6121 92.1321 85.1856 92.1747 82.4825C92.2343 79.0552 92.2209 75.6383 92.2075 72.2245ZM19.1911 45.2988C17.5105 44.9693 16.5569 43.9 15.6392 42.8709C15.3714 42.5706 15.1066 42.2738 14.8277 41.9997C5.95212 33.3582 5.95212 33.3369 14.6788 24.6528C15.9323 23.3993 17.1953 22.157 18.4576 20.9154L18.4577 20.9153L18.4578 20.9152C21.4391 17.9828 24.4168 15.054 27.2579 11.9886C29.365 9.71114 30.8124 9.00875 33.1324 11.797C34.1578 13.0275 35.5031 14.1821 36.8287 15.3199C39.2177 17.3702 41.5427 19.3657 41.8165 21.6517C42.1367 24.2573 39.4804 26.3353 36.8022 28.4303C35.5644 29.3987 34.3219 30.3706 33.3665 31.4C30.6479 34.3557 27.7767 37.1589 24.901 39.9663L24.9004 39.967L24.9002 39.9672L24.9 39.9674L24.8998 39.9675L24.8996 39.9677L24.8994 39.9679L24.8992 39.9681L24.899 39.9683L24.8988 39.9685L24.8986 39.9687L24.8984 39.9689C23.9026 40.9411 22.9062 41.9139 21.9155 42.8936C21.317 43.4921 20.6685 44.0405 20.0386 44.5732C19.75 44.8173 19.4653 45.058 19.1911 45.2988ZM112.213 136.359L112.22 136.359C113.944 136.367 115.669 136.375 117.397 136.375C118.673 136.375 119.949 136.384 121.224 136.394L121.229 136.394C124.292 136.416 127.352 136.438 130.401 136.333C131.036 136.309 131.74 136.394 132.451 136.48C134.244 136.698 136.076 136.921 136.914 135.396C138.049 133.289 136.715 131.045 135.491 128.986L135.491 128.985C135.268 128.611 135.049 128.243 134.85 127.883C134.377 127.011 133.73 126.242 133.08 125.469L133.08 125.469C132.793 125.128 132.505 124.786 132.232 124.435C129.784 121.285 127.528 121.05 125.038 124.541C124.242 125.664 123.261 126.652 122.276 127.642L122.276 127.642C121.469 128.454 120.66 129.268 119.951 130.16C118.142 132.438 116.63 132.565 114.864 130.182C114.274 129.386 113.573 128.662 112.872 127.938C112.561 127.617 112.249 127.295 111.948 126.968C105.903 120.369 103.966 120.604 99.3899 128.606C98.9351 129.42 98.5962 130.295 98.2578 131.17L98.2578 131.17L98.2577 131.17C98.0736 131.646 97.8896 132.122 97.6871 132.587C96.4527 135.524 97.602 136.46 100.561 136.397C104.449 136.323 108.327 136.341 112.209 136.359H112.209H112.209H112.21H112.21H112.211H112.211H112.211H112.212H112.212H112.213ZM21.0104 136.345L21.0072 136.345H21.0064C17.1892 136.31 13.3751 136.274 9.57158 136.439C5.4211 136.609 4.86771 134.906 6.40019 131.607C6.48329 131.425 6.56566 131.243 6.64811 131.06C7.00913 130.259 7.37178 129.454 7.80497 128.691C12.4024 120.603 14.1477 120.369 20.1925 126.946C20.3131 127.081 20.4408 127.211 20.5686 127.341C20.824 127.601 21.0794 127.861 21.278 128.159C24.1302 132.48 27.0036 133.012 30.0047 128.287C30.3878 127.691 30.9199 127.138 31.4946 126.733C32.2131 126.228 32.7415 125.423 33.2687 124.62C34.3189 123.021 35.3648 121.427 37.9012 122.221C40.8172 123.136 46.0957 131.948 45.8829 134.672C45.7271 136.612 44.5149 136.508 43.4036 136.414C43.1488 136.392 42.8992 136.371 42.6689 136.375C38.9307 136.404 35.202 136.394 31.4701 136.385H31.4677H31.4654H31.463H31.4606H31.4583H31.4559H31.4536H31.4512H31.4489C29.5782 136.38 27.7067 136.375 25.8329 136.375C24.2252 136.375 22.6176 136.36 21.0104 136.345ZM66.6846 120.228H66.6847H66.6849H66.685H66.6852H66.6853H66.6854H66.6856H66.6857C68.3091 120.245 69.9318 120.263 71.5526 120.263H85.6216C92.3262 120.263 92.8796 119.369 89.8785 113.409C85.6003 104.916 83.0462 104.491 76.8098 111.153C74.1435 114.01 72.8026 115.446 71.4694 115.439C70.1207 115.432 68.7798 113.948 66.0825 110.961C60.1228 104.342 58.569 104.491 53.9077 112.132C53.4333 112.923 53.0411 113.784 52.6526 114.637C52.5182 114.932 52.3843 115.226 52.2476 115.516C50.7151 118.751 51.0343 120.539 55.3125 120.326C59.0973 120.148 62.8926 120.188 66.6836 120.228H66.6837H66.6838H66.6839H66.6839H66.684H66.6841H66.6841H66.6846ZM117.355 113.409C112.46 113.409 108.458 109.45 108.352 104.533C108.246 99.4035 112.396 95.1679 117.483 95.253C122.4 95.3169 126.359 99.2332 126.444 104.15C126.529 109.301 122.506 113.409 117.355 113.409ZM34.7726 103.916C34.5598 98.9775 30.4944 95.1676 25.5777 95.2528C20.661 95.3379 16.7021 99.3181 16.6382 104.192C16.5744 109.301 20.7674 113.472 25.8757 113.387C31.0478 113.323 35.0067 109.109 34.7726 103.916ZM97.8797 56.9625C99.168 58.5064 100.443 60.0298 101.705 61.5389C105.908 66.5623 109.977 71.426 113.971 76.3527C115.503 78.247 115.439 80.5031 113.609 82.2059C111.608 84.0363 109.331 83.8661 107.224 82.1846C99.4548 75.9057 93.6441 68.8179 97.8797 56.9625ZM75.2336 96.5514C78.703 95.0615 80.427 92.2733 80.6824 87.6758C80.8102 86.8031 80.2993 85.2707 79.4692 83.8233C77.1492 79.6303 74.7441 79.5026 72.2325 83.4402C70.9342 85.5048 69.125 86.8883 66.8475 87.7397C62.3565 89.4424 61.9308 91.9327 65.6343 95.1467C68.5077 97.6369 71.8068 98.0414 75.2336 96.5514ZM60.5404 57.2593L60.5409 57.2594C64.3278 58.2255 67.7421 59.0964 71.1069 60.1552C76.9601 62.007 80.2379 68.1369 78.3862 73.905C77.173 77.7149 74.0441 74.8415 73.4695 74.054C70.8622 70.518 67.5843 67.682 64.1646 64.7234L64.1645 64.7233L64.1644 64.7232L64.1644 64.7232C61.0795 62.0543 57.8793 59.2856 54.952 55.8132C56.9182 56.3353 58.7701 56.8077 60.5404 57.2593ZM122.827 119.284C117.421 127.372 116.527 127.35 112.121 119.241C115.718 117.645 119.209 117.73 122.827 119.284ZM20.1708 119.241C24.0658 117.687 27.5352 117.773 31.0471 119.114C26.7264 127.202 25.6622 127.223 20.1708 119.241ZM76.4017 104.493C76.6541 104.095 76.9088 103.694 77.1705 103.299C74.5313 102.022 71.9346 102.001 69.3804 102.384C69.1785 102.41 68.9341 102.421 68.6737 102.433C67.4247 102.49 65.8077 102.563 66.7412 104.342C66.7681 104.395 66.7954 104.448 66.8231 104.501C67.8434 106.482 69.3437 109.395 71.9133 108.918C73.8091 108.579 75.0737 106.586 76.4017 104.493Z" fill="#2C65A7"/>
<path fill-rule="evenodd" clip-rule="evenodd" d="M128.615 35.8057C128.764 31.5488 126.401 29.2501 121.995 28.6328C118.1 29.0159 115.44 31.0167 115.291 35.2949C115.142 39.5517 117.547 42.191 121.697 42.3613C125.869 42.5316 128.466 40.0839 128.615 35.8057ZM124.082 35.3798C124.019 34.0814 123.146 33.6132 122.018 33.4216C120.805 33.5706 120.038 34.2304 119.953 35.4224C119.847 37.04 120.868 37.6359 122.295 37.5295C123.508 37.4231 124.146 36.6356 124.082 35.3798Z" fill="white"/>
</svg>
