<svg width="591" height="293" viewBox="0 0 591 293" fill="none" xmlns="http://www.w3.org/2000/svg">
<g filter="url(#filter0_d)">
<path d="M20.5478 247.409L31.0956 276.363H41.6434L52.1912 247.409V279L62.739 278.974V226.261H49.5542L36.3695 262.044L23.1847 226.261H10V279H20.5478V247.409Z" fill="url(#paint0_linear)"/>
<path d="M110.204 271.089C110.204 273.287 109.431 275.159 107.883 276.706C106.354 278.235 104.491 279 102.293 279H75.9237C73.7262 279 71.854 278.235 70.307 276.706C68.7776 275.159 68.0128 273.287 68.0128 271.089V226.261H78.5606V268.452H99.6562V226.261H110.204V271.089Z" fill="url(#paint1_linear)"/>
<path d="M115.478 279H157.669V268.452H126.026V226.261H115.478V279Z" fill="url(#paint2_linear)"/>
<path d="M189.349 226.261C191.546 226.261 193.409 227.034 194.939 228.581C196.486 230.111 197.259 231.974 197.259 234.171V236.808H176.164V279H165.616V236.808H144.521V234.171C144.521 231.974 145.285 230.111 146.815 228.581C148.362 227.034 150.234 226.261 152.431 226.261H189.349Z" fill="url(#paint3_linear)"/>
<path d="M202.533 279V226.261H213.081V279H202.533Z" fill="url(#paint4_linear)"/>
<path d="M252.635 226.261C254.833 226.261 256.696 227.034 258.226 228.581C259.773 230.111 260.546 231.974 260.546 234.171V236.808H228.903V247.356H252.635C254.833 247.356 256.696 248.13 258.226 249.677C259.773 251.206 260.546 253.07 260.546 255.267V271.115C260.546 273.313 259.773 275.176 258.226 276.706C256.696 278.235 254.833 279 252.635 279H226.266C224.068 279 222.196 278.235 220.649 276.706C219.12 275.159 218.355 273.286 218.355 271.089V268.452H249.998V257.904H226.266C224.068 257.904 222.196 257.139 220.649 255.61C219.12 254.063 218.355 252.191 218.355 249.993V234.171C218.355 231.974 219.12 230.111 220.649 228.581C222.196 227.034 224.068 226.261 226.266 226.261H252.635Z" fill="url(#paint5_linear)"/>
<path d="M265.82 279V226.261H276.368V279H265.82Z" fill="url(#paint6_linear)"/>
<path d="M292.189 247.409L302.737 276.363H313.285L323.833 247.409V279L334.381 278.973V226.261H321.196L308.011 262.044L294.826 226.261H281.642V279H292.189V247.409Z" fill="url(#paint7_linear)"/>
<path d="M383.138 242.082L389.73 226.261H402.915L389.73 252.63L402.915 279H389.73L383.138 263.152L376.545 279H363.361L376.545 252.63L363.361 226.261H376.545L383.138 242.082Z" fill="url(#paint8_linear)"/>
<path d="M416.126 247.356H437.222V236.808H416.126V247.356ZM439.858 226.261C442.056 226.261 443.919 227.034 445.449 228.581C446.996 230.111 447.769 231.974 447.769 234.171V249.993C447.769 252.191 446.996 254.063 445.449 255.61C443.919 257.139 442.056 257.904 439.858 257.904H437.222L453.043 279H439.858L416.126 247.383V279H405.578V226.261H439.858Z" fill="url(#paint9_linear)"/>
<path d="M512.005 268.452V279H501.458V268.452H492.492L496.711 257.904H501.458V239.445L489.855 268.452H479.571L497.502 226.261H512.005V257.904H519.916L512.005 268.452Z" fill="url(#paint10_linear)"/>
<path d="M522.553 279H533.101V268.452H522.553V279Z" fill="url(#paint11_linear)"/>
<path d="M570.018 236.808H548.923V268.452H570.018V236.808ZM572.655 226.261C574.853 226.261 576.716 227.034 578.245 228.581C579.792 230.111 580.566 231.974 580.566 234.171V271.089C580.566 273.286 579.792 275.159 578.245 276.706C576.716 278.235 574.853 279 572.655 279H546.286C544.088 279 542.216 278.235 540.669 276.706C539.14 275.159 538.375 273.286 538.375 271.089V234.171C538.375 231.974 539.14 230.111 540.669 228.581C542.216 227.034 544.088 226.261 546.286 226.261H572.655Z" fill="url(#paint12_linear)"/>
<path d="M237.016 164.253C232.194 162.11 225.184 152.198 222.282 147.51L229.649 142.822L235.677 144.831L237.016 154.207L230.319 146.84L228.31 148.849C228.846 150.992 234.337 156.439 237.016 158.895V164.253Z" fill="url(#paint13_linear)"/>
<path d="M226.971 174.3C230.09 177.037 233.561 178.543 237.23 179.798C238.052 180.084 241.558 181.939 241.705 180.997C242.025 179.264 241.036 176.309 241.036 174.3C240.366 170.047 240.539 170.489 237.659 168.627C236.466 167.874 235.336 167.006 234.204 166.197C233.625 165.747 233.155 165.601 232.602 166.222C230.85 168.227 229.039 170.229 227.287 172.235C226.824 172.831 226.213 173.84 226.971 174.3ZM232.515 170.047C233.091 169.636 233.488 168.293 234.55 169.454C236.166 170.047 238.17 170.35 237.554 173.046C236.529 177.5 236.647 177.507 232.601 174.982C229.546 173.05 229.546 173.05 232.515 170.047Z" fill="#0E7EBE"/>
<path d="M223.622 172.29C224.34 172.954 224.971 171.746 225.587 171.018C227.187 169.169 228.845 167.323 230.5 165.534C231.295 164.697 231.471 164.096 230.445 163.218C228.92 161.917 227.519 160.446 226.119 158.976C225.404 158.255 224.89 158.12 224.1 158.842C223.098 159.758 222.068 160.645 220.984 161.472C217.071 164.39 216.485 164.741 219.603 168.272C220.791 169.387 222.434 171.175 223.622 172.29ZM221.75 166.273C220.821 165.197 220.522 164.26 222.069 163.451C222.129 163.395 222.16 163.367 222.22 163.312C224.969 161.073 224.969 161.073 227.475 163.569C228.081 164.17 228.172 164.636 227.562 165.25C226.982 165.835 226.457 166.48 225.935 167.068C224.28 168.857 223.909 168.756 221.75 166.273Z" fill="url(#paint14_linear)"/>
<path d="M218.321 161.585C219.42 160.524 220.714 159.677 221.925 158.738C224.383 156.603 224.383 156.603 222.387 153.765C221.722 152.8 221.057 151.835 220.51 150.819C220.07 150.041 219.642 149.871 218.88 150.288C216.889 151.266 214.873 152.098 212.91 153.107C211.709 153.7 210.654 154.25 211.569 155.548C212.788 157.298 214.196 160.1 215.269 161.927C216.067 163.276 217.222 162.646 218.321 161.585ZM215.269 156.342C215.021 155.952 214.802 155.534 214.415 154.933C215.293 154.523 216.138 154.256 216.845 153.778C218.465 152.633 219.348 153.062 220.394 154.801C221.11 156.001 220.924 156.452 220.036 157.208C217.224 159.611 217.252 159.642 215.269 156.342Z" fill="#0E7EBE"/>
<path d="M233.002 170.95C234.683 170.045 235.72 170.868 236.35 171.62C237.296 172.717 236.304 174.715 235.681 174.969C234.185 175.578 233.371 174.703 232.332 173.629C231.652 172.694 231.662 172.29 233.002 170.95Z" fill="#0E7EBE"/>
<path d="M223.358 163.884C224.517 162.389 225.494 162.42 226.535 163.697C227.752 165.304 225.849 165.848 225.146 166.599C223.672 168.165 223.503 166.253 222.824 165.787C221.77 165.118 222.343 164.432 223.358 163.884Z" fill="#0E7EBE"/>
<path d="M218.975 157.107C218.411 157.329 218.021 158.801 217.103 157.294C216.659 156.585 215.301 155.714 216.392 155.009C217.008 154.622 217.913 153.267 219.029 154.71C219.618 155.522 220.524 156.512 218.975 157.107Z" fill="#0E7EBE"/>
<path d="M333.48 151.468C332.394 151.44 331.407 151.415 330.275 151.385C330.505 150.176 330.539 148.099 330.779 146.841C331.449 146.841 332.914 146.841 333.458 146.841C335.467 146.841 336.137 146.841 338.146 146.841C338.852 146.887 339.486 148.181 339.491 149.451C340.144 152.348 340.807 155.239 341.407 158.145C341.599 159.077 340.917 159.55 340.143 159.762C337.462 160.491 334.215 161.525 331.449 162.244C331.004 161.129 331.133 159.71 330.671 158.551C331.965 158.276 333.176 158.017 334.361 157.765C334.238 157.139 334.157 156.73 334.062 156.249C332.559 156.428 331.13 156.594 329.609 156.773C329.383 155.562 329.164 154.397 328.927 153.143C330.462 152.977 331.956 152.813 333.488 152.648C333.485 152.274 333.483 151.923 333.48 151.468Z" fill="url(#paint15_linear)"/>
<path d="M329.438 146.84C329.265 147.877 328.895 149.794 328.655 150.846C328.606 151.053 328.202 151.293 327.944 151.312C327.263 151.366 326.571 151.309 325.739 151.295C325.899 150.068 326.035 148.906 326.228 147.753C326.254 147.603 326.229 147.065 326.759 146.84C327.535 146.891 328.556 146.73 329.438 146.84Z" fill="url(#paint16_linear)"/>
<path d="M325.141 157.34C324.977 156.056 324.824 154.878 324.66 153.606C325.528 153.504 326.339 153.41 327.291 153.296C327.464 154.427 327.652 155.485 327.761 156.556C327.777 156.71 327.426 157.01 327.207 157.057C326.563 157.198 325.898 157.243 325.141 157.34Z" fill="url(#paint17_linear)"/>
<path d="M328.935 158.771C329.398 159.986 329.443 162.244 329.443 162.913C328.676 163.119 327.58 163.363 326.764 163.583C326.441 162.511 325.801 160.812 325.424 159.564C326.132 159.383 328.191 158.957 328.935 158.771Z" fill="url(#paint18_linear)"/>
<path d="M235.238 59.0308C234.274 62.4983 232.039 65.1055 228.581 66.645C227.365 67.1847 226.526 66.6934 225.596 65.961C222.842 63.7861 222.701 63.6636 224.086 60.5688C225.38 57.6745 227.481 55.542 230.456 54.497C232.46 53.7945 235.705 56.6793 235.238 59.0308ZM230.622 57.328C228.649 56.9925 226.41 58.749 226.088 60.8871C225.849 62.4704 226.596 63.6143 228.045 63.8912C230.001 64.2681 232.281 62.5623 232.676 60.4308C232.961 58.8606 232.117 57.5849 230.622 57.328Z" fill="url(#paint19_linear)"/>
<path d="M233.664 73.8363C232.284 76.1592 231.373 77.8372 229.645 76.5161C224.892 72.874 218.98 67.4525 214.241 63.7903C213.981 63.5858 211.909 62.1032 211.562 61.7839C212.232 61.1141 212.901 59.7747 214.241 58.4352C219.878 62.7691 228.051 69.5231 233.664 73.8363Z" fill="url(#paint20_linear)"/>
<path d="M242.368 56.4257C242.368 58.4348 242.369 59.1047 242.368 61.1139C237.614 57.4718 232.359 53.0274 227.619 49.3652C227.359 49.1607 224.632 46.6991 224.285 46.3797C224.955 45.71 225.625 45.0403 226.964 43.7008C232.602 48.0347 236.755 52.1126 242.368 56.4257Z" fill="url(#paint21_linear)"/>
<path d="M228.296 51.351C229.097 52.0127 229.824 52.6123 230.645 53.2882C226.288 55.1876 223.301 58.2341 222.287 63.2332C221.67 62.751 221.178 62.3223 220.645 61.9531C219.884 61.4361 219.921 60.8959 220.325 60.0958C222.157 56.4235 224.712 53.4825 228.296 51.351Z" fill="url(#paint22_linear)"/>
<path d="M236.59 58.0243C237.479 58.7776 238.181 59.3676 238.919 59.9913C237.286 63.9226 234.759 66.9564 231.413 69.2705C230.264 70.064 230.089 69.9579 228.27 67.8374C232.563 66.071 235.321 62.8545 236.59 58.0243Z" fill="url(#paint23_linear)"/>
<path d="M214.913 57.7639C216.922 54.4152 219.602 51.7376 223.62 47.0495C224.334 47.5973 226.781 50.1735 227.418 50.6592C223.74 53.2221 220.927 56.4185 219.028 60.6429C218.365 60.0813 215.591 58.3335 214.913 57.7639Z" fill="url(#paint24_linear)"/>
<path d="M234.332 73.1671C233.631 72.5771 231.989 71.0287 231.372 70.5079C235 67.9257 237.837 64.8544 239.676 60.6314C240.328 61.1304 241.607 61.8701 242.369 62.4534C239.69 66.4718 237.19 69.7903 234.332 73.1671Z" fill="url(#paint25_linear)"/>
<path d="M231.245 60.0326C230.868 62.1641 229.172 63.5616 227.949 63.0225C227.345 62.7569 226.748 61.6909 226.75 60.9904C226.755 59.5559 228.585 58.0791 229.816 58.5018C230.507 58.742 230.954 59.7056 231.245 60.0326Z" fill="#30A3E4"/>
<path d="M301.31 171.62C300.13 166.924 296.897 160.605 295.133 156.154C292.237 148.884 285.068 148.485 280.656 154.982C278.628 157.959 275.908 160.678 274.739 163.957C273.57 167.237 273.853 172.282 275.863 178.979C283.647 177.5 290.595 176.308 295.952 173.629C294.555 166.81 291.64 163.981 285.254 165.254C282.707 165.769 279.717 167.369 278.527 163.429C281.191 163.266 283.759 163.379 286.25 162.937C292.234 161.864 293.221 162.273 295.995 167.794C296.493 168.776 297.39 172.014 297.962 172.96C298.322 172.792 300.96 171.76 301.31 171.62Z" fill="url(#paint26_linear)"/>
<path d="M248.829 157.278C245.781 157.831 243.216 158.306 240.236 158.836C241.416 165.66 242.589 171.987 243.567 178.353C244.061 181.561 244.388 182.33 249.077 182.999C253.095 183 254.978 183.562 254.434 180.321C253.365 173.829 249.977 164.107 248.829 157.278Z" fill="url(#paint27_linear)"/>
<path fill-rule="evenodd" clip-rule="evenodd" d="M273.189 180.319C268.501 181.659 263.143 182.998 257.116 182.998C256.289 178.705 255.029 173.543 253.786 168.454C252.574 163.487 251.378 158.589 250.618 154.633C247.182 155.105 243.875 155.562 240.339 156.06C240.162 155.327 239.98 154.636 239.805 153.971C239.462 152.666 239.145 151.461 238.937 150.234C238.868 149.828 238.8 149.443 238.736 149.077C237.84 143.953 237.605 142.613 243.275 141.158C250.068 139.755 254.784 138.885 260.585 137.87C261.878 137.644 267.89 136.629 271.847 136.125C274.527 135.455 280.557 139.464 281.895 141.787C284.262 145.898 281.35 149.989 278.394 154.142C278.222 154.384 278.049 154.626 277.877 154.869C272.52 159.557 268.042 170.918 273.189 180.319ZM268.783 141.786C264.799 140.46 261.206 142.21 259.88 146.106C258.522 150.097 260.489 153.971 264.555 155.327C268.593 156.672 272.683 154.688 273.862 150.815C275.055 146.903 272.963 143.167 268.783 141.786ZM242.517 146.667C242.107 146.786 241.671 146.905 241.204 147.017C241.234 147.054 241.263 147.09 241.291 147.127C241.126 147.185 240.956 147.243 240.783 147.3C241.323 148.098 241.765 148.882 242.148 149.564C242.863 150.833 243.378 151.747 243.953 151.735C245.041 151.706 246.177 151.015 247.311 150.326C247.792 150.033 248.273 149.741 248.75 149.499C248.731 149.455 248.713 149.41 248.695 149.364C248.785 149.325 248.876 149.286 248.967 149.249C248.766 148.872 248.581 148.412 248.396 147.952C248.169 147.387 247.942 146.822 247.684 146.41C247.465 145.919 247.214 145.568 246.896 145.509C245.885 145.314 244.726 145.78 243.217 146.387C242.992 146.478 242.759 146.571 242.517 146.667Z" fill="url(#paint28_linear)"/>
<path d="M267.512 144.622C264.857 144.145 262.603 144.82 261.662 147.721C260.713 150.647 261.511 153.002 264.618 154.028C267.594 155.008 269.947 153.897 270.908 150.976C271.85 148.034 270.515 145.867 267.512 144.622Z" fill="url(#paint29_linear)"/>
<path d="M410.477 154.876C408.805 154.316 405.789 153.538 403.779 153.538C401.101 153.538 399.171 155.586 400.296 158.215C400.811 159.421 401.111 160.789 401.887 161.792C402.663 162.795 404.265 163.699 406.714 164.398C407.789 161.72 408.788 159.356 409.019 157.187C406.653 156.276 405.213 156.614 404.349 158.822C404.007 159.705 403.91 160.936 402.469 160.527C402.942 159.678 403.481 158.912 403.835 158.062C404.681 156.016 405 155.794 407.238 156.028C407.637 156.068 408.806 156.428 409.208 156.439C409.227 156.295 410.451 155.011 410.477 154.876Z" fill="url(#paint30_linear)"/>
<path fill-rule="evenodd" clip-rule="evenodd" d="M406.597 165.482C406.087 167.183 405.446 169.089 404.262 170.937C402.783 170.347 400.953 169.72 399.148 169.102C397.387 168.498 395.65 167.903 394.287 167.359C393.758 168.505 393.248 169.609 392.706 170.791C392.447 170.702 392.199 170.622 391.961 170.544C391.493 170.393 391.061 170.254 390.644 170.077C390.506 170.018 390.375 169.963 390.25 169.911C388.503 169.18 388.046 168.988 388.713 166.964C389.617 164.605 390.277 162.988 391.105 161.01C391.289 160.569 392.159 158.526 392.781 157.214C393.102 156.26 395.516 155.199 396.491 155.244C398.217 155.326 398.899 157.023 399.592 158.745C399.633 158.845 399.673 158.946 399.714 159.046C400.099 161.61 402.703 165.214 406.597 165.482ZM393.916 159.265C392.727 160.226 392.558 161.672 393.492 162.844C394.449 164.044 396.023 164.202 397.237 163.221C398.443 162.247 398.638 160.603 397.682 159.481C396.717 158.347 395.16 158.255 393.916 159.265ZM390.256 168.272C390.211 168.423 390.162 168.582 390.103 168.75C390.12 168.748 390.138 168.746 390.155 168.744C390.14 168.807 390.124 168.87 390.108 168.934C390.459 168.926 390.786 168.944 391.07 168.96C391.6 168.991 391.981 169.012 392.09 168.833C392.295 168.494 392.307 168.01 392.318 167.527C392.323 167.322 392.327 167.117 392.347 166.923C392.33 166.92 392.312 166.917 392.294 166.914C392.3 166.878 392.306 166.843 392.312 166.808C392.157 166.795 391.98 166.762 391.803 166.728C391.584 166.686 391.367 166.645 391.19 166.643C390.996 166.614 390.84 166.622 390.759 166.708C390.501 166.98 390.416 167.427 390.306 168.009C390.29 168.094 390.273 168.181 390.256 168.272Z" fill="url(#paint31_linear)"/>
<path d="M394.537 160.211C393.869 160.931 393.633 161.755 394.338 162.613C395.049 163.479 395.928 163.697 396.853 162.945C397.738 162.225 397.859 161.285 397.152 160.417C396.435 159.551 395.509 159.534 394.537 160.211Z" fill="url(#paint32_linear)"/>
<path d="M217.28 147.822C216.705 148.143 216.313 148.389 215.897 148.593C211.715 150.664 209.559 152.866 203.531 157.554C204.181 151.122 204.201 142.152 204.871 138.133C207.549 140.812 214.586 146.299 217.28 147.822Z" fill="#1889C9"/>
<path d="M369.014 164.344C368.905 164.463 368.825 164.541 368.752 164.631C368.018 165.526 367.391 165.868 365.959 166.978C367.411 167.488 368.698 169.363 369.623 169.611C369.216 168.611 369.166 165.224 369.014 164.344Z" fill="url(#paint33_linear)"/>
<path d="M237.65 72.1274C238.627 74.0776 239.514 75.8296 240.387 77.5895C241.507 79.854 243.642 82.5222 244.891 84.7013C245.224 86.5182 245.224 85.8485 245.224 89.1972C244.41 88.3665 241.778 86.8998 241.205 85.8485C239.487 82.6944 237.354 79.9382 235.724 76.7285C235.369 76.0317 235.115 75.5257 235.239 75.2344C235.974 74.1625 236.831 73.1191 237.65 72.1274Z" fill="url(#paint34_linear)"/>
<path d="M233.814 76.5162C234.216 77.3184 235.373 79.4036 235.732 80.1276C236.193 81.0591 237.071 82.1568 237.585 83.0532C237.585 83.7443 237.687 83.8468 237.687 85.2243C237.353 84.8826 235.732 84.2464 235.009 83.8849C233.669 83.2151 233.669 83.2151 231.66 82.5454C231.514 82.2588 232.279 79.3168 232.33 79.197C232.632 78.7561 233.477 76.9241 233.814 76.5162Z" fill="url(#paint35_linear)"/>
<path d="M243.039 65.1334C243.04 67.1414 243.71 67.8111 243.708 69.8215C244.379 72.4993 244.013 71.4215 244.378 73.8399C244.623 75.4606 244.379 75.1782 245.048 77.1887C245.049 77.5267 246.292 84.9361 245.719 83.8848C244.001 80.7307 240.65 75.042 239.02 71.8323C238.665 71.1355 238.954 70.2224 239.078 69.9311C239.813 68.8593 242.22 66.125 243.039 65.1334Z" fill="url(#paint36_linear)"/>
<path d="M372.972 177.648C370.439 175.477 367.135 173.483 363.983 172.432C363.369 172.228 362.074 172.574 361.823 173.043C361.431 173.772 361.475 174.881 361.709 175.719C361.847 176.199 362.692 176.654 363.292 176.778C364.069 176.933 364.646 176.421 364.647 175.555C364.65 174.67 364.133 174.48 363.329 174.639C363.108 174.68 362.65 174.639 362.586 174.367C362.256 173.629 362.906 173.397 363.019 173.404C363.887 173.404 364.647 173.27 365.311 173.862C365.711 174.694 365.727 175.869 365.502 176.814C365.246 177.884 364.217 178.252 363.104 178.226C361.931 178.198 360.96 177.726 360.652 176.621C360.347 175.52 360.137 174.307 360.278 173.19C360.509 171.345 363.244 170.164 365.008 171.163C367.474 172.559 370.033 173.912 372.161 175.731C373.86 177.185 375.167 177.061 376.99 176.308C374.929 174.847 373.57 173.884 371.893 172.681C369.682 171.096 367.769 169.541 365.687 168.024C364.793 167.281 363.987 167.598 363.198 168.023C362.211 168.672 361.842 168.881 360.916 169.612C358.237 170.952 356.745 174.683 357.568 176.978C358.434 179.401 359.843 180.627 362.586 180.579C365.311 180.579 370.537 178.415 372.972 177.648Z" fill="url(#paint37_linear)"/>
<path d="M194.349 112.01C185.182 121.661 171.381 138.803 170.042 146.17C169.11 148.543 170.459 155.477 172.283 156.505C175.121 158.106 178.748 158.895 182.868 157.556C184.813 157.069 186.886 153.488 187.496 151.163C188.264 148.15 186.33 145.85 182.868 145.756C179.418 146.17 178.372 147.509 178.748 150.188C178.87 151.054 180.088 152.867 178.079 153.537C176.069 153.537 174.73 152.867 173.68 152.045C171.103 149.013 174.445 143.772 176.23 142.994C179.633 141.517 184.332 141.577 188.064 142.552C192.292 143.66 193.565 147.709 193.247 152.045C192.908 156.616 191.473 158.225 186.785 161.574C182.523 163.721 177.722 164.923 172.051 162.913C164.724 161.823 161.021 147.585 165.354 140.812C169.372 132.106 177.344 124.589 185.024 116.482C191.163 110.008 198.147 104.461 195.492 97.2789C186.115 105.316 177.923 113.723 172.051 119.38C163.857 127.275 162.837 127.826 159.326 133.445C155.815 139.063 154.638 146.84 155.307 150.855C156.102 155.622 156.647 158.894 160.665 165.591C165.354 172.29 173.39 176.308 182.955 173.626C194.152 168.271 200.705 161.454 201.043 150.756C201.335 141.003 195.688 122.726 194.349 112.01Z" fill="url(#paint38_linear)"/>
<path d="M216.926 69.8177C215.65 67.7257 212.007 64.9419 210.897 63.1236C207.548 67.142 199.511 81.2064 197.503 92.5897C200.851 90.5818 203.531 86.7808 208.219 84.7711C209.076 83.7351 216.032 70.9111 216.926 69.8177Z" fill="url(#paint39_linear)"/>
<path fill-rule="evenodd" clip-rule="evenodd" d="M216.702 80.3613C215.676 81.0462 214.885 81.5746 213.576 81.2029C213.916 80.6773 214.742 79.1294 215.63 77.4665C216.788 75.2971 218.051 72.9318 218.474 72.3845C218.727 72.0536 219.442 71.7631 219.64 71.9535C220.08 72.376 220.432 72.704 220.754 73.0034C221.443 73.6441 221.991 74.1537 222.951 75.1767C222.459 75.9505 222.086 76.479 221.723 76.9929C221.368 77.4954 221.023 77.984 220.586 78.6744C218.737 79.0028 217.625 79.7454 216.702 80.3613Z" fill="url(#paint40_linear)"/>
<path d="M229.913 78.3033C228.338 77.5021 226.742 76.6166 225.088 75.9172C224.761 75.7825 224.084 76.2285 223.835 76.6561C223.177 77.7794 223 78.1034 222.306 79.5614C224.399 79.9824 224.399 79.9824 228.126 81.0412C228.356 81.1548 228.944 80.7847 229.083 80.4519C229.679 79.0502 229.308 79.9498 229.913 78.3033Z" fill="url(#paint41_linear)"/>
<path d="M376.324 172.961C376.993 173.631 379.672 174.971 380.342 175.64C383.691 174.971 389.048 174.971 394.406 173.631C392.936 172.912 390.156 172.143 388.379 170.952C387.819 170.887 387.039 172.292 376.324 172.961Z" fill="url(#paint42_linear)"/>
<path d="M233.914 47.7265C232.594 47.0575 229.953 43.7088 228.632 42.3693C229.953 41.0219 244.479 28.9667 246.46 28.3C247.2 30.4054 248.44 29.6364 246.459 34.3264C245.851 35.2546 234.559 46.7552 233.914 47.7265Z" fill="#2E9FDE"/>
<path d="M408.467 169.611C408.231 168.37 411.005 156.651 411.146 154.877C412.486 154.877 425.926 158.359 427.22 158.895C425.211 161.574 423.871 162.217 421.192 163.582C420.388 163.992 412.486 168.941 408.467 169.611Z" fill="url(#paint43_linear)"/>
<path d="M322.933 148.022C323.58 149.508 323.143 153.301 322.933 154.73C322.719 156.053 321.199 155.419 320.394 155.312C315.508 154.618 312.901 158.831 308.657 159.515C308.392 159.551 308.263 160.345 308.28 160.774C308.366 161.581 309.176 161.795 309.707 161.722C311.36 161.67 313.008 161.511 314.079 160.245C315.504 158.52 317.457 157.953 319.594 157.986C321.272 157.986 322.072 157.556 323.615 159.747C323.984 162.284 324.751 163.584 322.742 164.924C318.646 166.379 312.026 168.272 307.338 169.612C305.111 170 304.002 167.65 302.516 166.159C300.954 163.253 299.317 158.93 300.136 161.092C298.631 150.858 290.718 146.95 301.31 147.51C303.853 147.035 316.789 147.151 319.393 146.841C320.352 146.797 322.102 147.272 322.933 148.022Z" fill="url(#paint44_linear)"/>
<path d="M253.756 110.004C253.408 94.8488 241.226 83.5363 225.627 83.8847C207.327 84.2331 196.976 93.9243 197.498 111.344C197.498 113.347 198.071 114.55 198.246 116.553C199.204 124.827 203.648 133.256 211.143 138.133C222.732 145.711 241.982 140.167 249.738 128.757C253.746 122.921 253.93 116.797 253.756 110.004ZM225.085 126.656C216.981 126.569 211.143 120.647 211.143 112.546C211.143 105.143 217.591 98.6108 224.998 98.6979C232.057 98.785 238.069 105.143 238.156 112.721C238.244 120.472 232.405 126.743 225.085 126.656Z" fill="url(#paint45_linear)"/>
<path d="M224.824 121.517C219.683 121.604 215.674 117.859 215.587 112.721C215.5 107.495 219.596 103.14 224.65 103.14C229.53 103.14 233.713 107.32 233.8 112.285C233.8 117.424 229.879 121.43 224.824 121.517Z" fill="url(#paint46_linear)"/>
<path d="M388.302 162.689C388.186 167.718 384.143 171.473 378.967 171.357C372.893 171.242 369.458 168.025 369.631 162.244C369.631 161.579 369.821 161.18 369.879 160.515C370.197 157.769 371.672 154.972 374.159 153.353C378.006 150.839 384.394 152.678 386.968 156.465C388.299 158.402 388.36 160.434 388.302 162.689ZM378.787 157.162C376.097 157.191 374.159 159.157 374.159 161.845C374.159 164.302 376.3 166.47 378.758 166.441C381.1 166.412 383.096 164.302 383.125 161.787C383.154 159.215 381.216 157.133 378.787 157.162Z" fill="url(#paint47_linear)"/>
<path d="M378.701 158.868C376.994 158.84 375.664 160.082 375.635 161.788C375.606 163.522 376.966 164.968 378.643 164.968C380.262 164.968 381.651 163.58 381.68 161.932C381.68 160.227 380.378 158.897 378.701 158.868Z" fill="url(#paint48_linear)"/>
<path d="M243.006 54.4167L235.639 48.389L245.015 39.6825C243.467 46.2953 243.142 49.3998 243.006 54.4167Z" fill="#2E9FDE"/>
<path d="M294.61 146.84C289.811 145.892 285.485 143.079 283.895 142.152L286.573 148.179C287.025 149.115 287.525 149.14 288.583 148.849L294.61 146.84Z" fill="url(#paint49_linear)"/>
<path fill-rule="evenodd" clip-rule="evenodd" d="M255.276 122.499C256.845 120.887 259.599 120.038 262.234 120.029C262.895 121.218 263.654 122.418 264.506 123.609C264.065 123.344 263.612 123.098 263.162 122.872C261.747 122.16 260.391 122.599 259.312 123.614C258.289 124.576 257.749 125.815 258.624 126.995C259.397 128.036 260.623 129.069 261.841 129.455C262.359 129.618 263.179 128.885 263.889 128.249L263.889 128.249C264.055 128.101 264.215 127.958 264.364 127.833C264.438 127.769 264.23 127.416 264.023 127.062C263.925 126.896 263.827 126.729 263.758 126.592C263.656 126.634 263.54 126.667 263.425 126.701C263.171 126.775 262.919 126.848 262.812 127.008C262.256 127.861 261.599 128.15 260.688 127.359C259.795 126.587 259.783 125.62 260.638 125.07C261.302 124.649 262.529 124.306 263.148 124.612C264.221 125.15 265.405 126.1 265.807 127.096C266.065 127.736 265.264 129.19 264.505 129.553C260.599 131.409 255.661 132.346 251.154 132.655L251.237 132.326C251.922 129.62 253.176 124.664 255.276 122.499ZM267.818 127.777C267.783 129.417 266.652 131.138 264.896 131.591C264.467 131.701 264.038 131.814 263.608 131.926L263.608 131.926C260.38 132.77 257.117 133.623 253.781 133.857C250.76 134.066 249.93 135.616 249.075 137.9C249.758 137.781 250.429 137.665 251.091 137.549L251.092 137.549C253.179 137.187 255.181 136.839 257.183 136.481C258.281 136.284 259.377 136.076 260.474 135.867L260.474 135.867C262.771 135.431 265.069 134.994 267.39 134.661C268.876 134.449 269.3 134.134 269.679 132.845C269.806 132.415 269.963 131.965 270.123 131.505C270.205 131.273 270.287 131.037 270.366 130.801C269.906 130.296 269.411 129.729 268.905 129.122C268.518 128.659 268.153 128.207 267.818 127.777Z" fill="url(#paint50_linear)"/>
<path d="M344.288 158.895L341.492 146.864C353.503 146.659 361.161 147.818 373.639 148.871L366.651 156.222C359.662 155.554 348.947 157.336 344.288 158.895Z" fill="url(#paint51_linear)"/>
<path d="M379.156 149.54C379.052 149.528 378.998 149.522 378.998 149.522C379.02 149.514 379.074 149.52 379.156 149.54C380.584 149.697 391.435 150.918 401.769 152.903C398.421 153.126 391.321 153.975 389.714 155.582C386.772 152.666 380.286 149.811 379.156 149.54Z" fill="url(#paint52_linear)"/>
<path fill-rule="evenodd" clip-rule="evenodd" d="M394.327 169.442C394.462 169.115 394.599 168.78 394.744 168.427C395.909 168.924 397.41 169.391 398.894 169.853C400.363 170.31 401.816 170.763 402.911 171.234C403.135 171.33 403.291 171.425 403.391 171.527L397.655 173.093C396.942 172.792 396.22 172.491 395.486 172.185C394.846 171.918 394.196 171.647 393.534 171.368C393.814 170.695 394.065 170.082 394.327 169.442Z" fill="url(#paint53_linear)"/>
<path d="M276.701 136.142C276.576 136.016 276.451 135.891 276.325 135.766C276.482 135.891 276.607 136.016 276.701 136.142Z" fill="url(#paint54_linear)"/>
<path d="M448.587 126.613C448.336 121.63 447.083 116.834 446.142 111.976C442.601 93.9855 438.213 76.183 431.599 59.0386C428.026 49.8239 423.921 40.8599 417.809 32.993C415.082 29.4826 412.104 26.1916 407.748 24.4991C389.162 17.3217 369.98 12.4636 350.297 9.54876C334.406 7.19807 318.422 6.13243 301.528 6.19511C294.883 6.57122 287.33 6.28914 279.964 7.91895C271.094 9.89353 263.353 13.78 257.711 21.2082C252.696 27.7901 250.628 35.4377 250.408 43.5241C250.158 52.3313 251.599 61.0132 253.198 69.6324C256.019 85.0529 261.723 99.4078 269.935 112.728C274.918 120.846 282.566 125.735 291.185 129.215C303.346 134.104 316.134 135.702 329.109 136.11C332.965 136.235 336.851 136.047 340.706 136.267C354.403 137.019 368.131 137.896 381.765 139.558C391.669 140.749 401.511 142.222 411.289 144.29C416.743 145.45 421.946 147.675 427.588 148.145C437.398 148.929 445.077 145.168 447.772 134.668C448.399 132.004 448.744 129.34 448.587 126.613ZM441.002 128.337C438.589 137.834 431.631 141.25 422.761 140.529C417.652 140.122 412.951 138.084 408.03 137.05C399.191 135.17 390.29 133.885 381.326 132.788C368.977 131.283 356.597 130.468 344.185 129.81C340.706 129.622 337.196 129.779 333.685 129.685C321.932 129.309 310.398 127.867 299.397 123.447C291.592 120.313 284.697 115.863 280.184 108.528C272.756 96.4616 267.584 83.4858 265.045 69.5383C263.635 61.7341 262.319 53.8984 262.538 45.9374C262.757 38.6033 264.638 31.7079 269.151 25.7528C274.197 19.0455 281.218 15.5038 289.242 13.7173C295.918 12.2129 302.75 12.495 308.737 12.1502C324.032 12.0875 338.481 13.0591 352.867 15.1904C370.67 17.8232 388.002 22.2111 404.802 28.699C408.751 30.2348 411.415 33.181 413.891 36.378C419.407 43.4927 423.137 51.6104 426.365 59.9475C432.352 75.4621 436.301 91.5408 439.529 107.808C440.407 112.196 441.535 116.552 441.754 121.065C441.88 123.51 441.598 125.955 441.002 128.337Z" fill="url(#paint55_linear)"/>
<path d="M437.772 118.088C437.584 113.92 436.487 109.845 435.672 105.771C432.632 90.6323 428.902 75.6819 423.198 61.2643C420.158 53.5227 416.616 45.9692 411.382 39.3559C409.031 36.4097 406.492 33.6202 402.763 32.2098C386.903 26.1921 370.48 22.1489 353.617 19.6728C339.983 17.6983 326.318 16.8207 311.838 16.852C306.134 17.1654 299.677 16.9147 293.377 18.2938C285.761 19.9863 279.116 23.2459 274.321 29.483C270.058 35.0307 268.272 41.4245 268.084 48.2572C267.864 55.654 269.118 62.9568 270.466 70.1969C272.879 83.1727 277.769 95.2396 284.789 106.429C289.083 113.23 295.602 117.367 302.999 120.282C313.405 124.419 324.344 125.736 335.47 126.081C338.792 126.175 342.115 126.018 345.406 126.206C357.159 126.833 368.881 127.585 380.572 128.995C389.066 129.998 397.497 131.221 405.865 132.976C410.535 133.948 414.986 135.828 419.813 136.204C428.213 136.862 434.795 133.697 437.083 124.89C437.615 122.633 437.897 120.376 437.772 118.088ZM431.911 120.376C429.811 128.525 423.731 131.44 415.989 130.813C411.538 130.469 407.433 128.745 403.139 127.836C395.428 126.237 387.655 125.109 379.851 124.169C369.069 122.884 358.256 122.194 347.443 121.599C344.403 121.442 341.331 121.567 338.291 121.473C328.042 121.16 317.95 119.938 308.359 116.114C301.558 113.418 295.54 109.626 291.591 103.326C285.103 92.9829 280.589 81.8564 278.364 69.9149C277.11 63.2389 275.982 56.5003 276.17 49.699C276.358 43.3991 277.988 37.5067 281.937 32.3979C286.356 26.6622 292.5 23.622 299.489 22.0862C305.319 20.8012 311.274 21.0519 316.508 20.7385C329.86 20.7071 342.459 21.522 355.028 23.3399C370.574 25.5966 385.712 29.3577 400.349 34.9053C403.797 36.2217 406.116 38.7604 408.279 41.4872C413.106 47.599 416.365 54.5257 419.186 61.6718C424.42 74.961 427.868 88.7517 430.689 102.699C431.441 106.46 432.444 110.19 432.632 114.045C432.726 116.239 432.444 118.339 431.911 120.376Z" fill="url(#paint56_linear)"/>
<path d="M292.378 6.40285C298.724 6.259 304.915 6.06371 311.225 6.27948C326.42 6.74699 341.544 8.00565 356.562 10.5949C373.025 13.3999 389.066 17.7873 404.825 23.3973C411.417 25.7348 415.753 30.4099 419.525 35.912C426.012 45.2981 430.172 55.8349 433.909 66.5875C439.197 81.8353 442.863 97.5147 445.931 113.374C446.988 118.804 448.504 124.198 448.011 129.808C447.482 136.066 445.508 141.64 440.114 145.344C436.342 147.933 432.041 148.437 427.634 148.149C421.782 147.753 416.353 145.416 410.677 144.229C405.036 143.042 399.395 141.964 393.684 141.28C380.57 139.23 367.35 138.044 354.129 137.073C343.377 136.282 332.589 136.353 321.802 135.706C309.956 134.987 298.428 132.685 287.499 127.651C278.827 123.623 272.235 117.474 267.51 108.951C259.896 95.1772 254.678 80.6486 252.246 65.0412C251.258 58.1005 250.201 51.1599 250.342 44.1473C250.553 33.8982 253.55 24.7279 261.024 17.4277C266.594 11.9974 273.781 9.03719 280.872 7.68199C284.609 6.9268 288.571 6.61862 292.378 6.40285Z" fill="url(#paint57_linear)"/>
<path d="M414.272 60.1528L412.537 61.0226C411.909 53.966 409.631 47.9623 405.37 42.1197L407.105 41.2499C411.366 47.0925 413.644 53.0962 414.272 60.1528Z" fill="#858585"/>
<path d="M394.209 28.8904L392.474 29.7603C391.93 29.4635 391.377 29.1777 390.818 28.9062L392.553 28.0364C393.111 28.3079 393.663 28.5921 394.209 28.8904Z" fill="#858585"/>
<path d="M394.209 28.8904L392.474 29.7603C391.93 29.4635 391.377 29.1777 390.818 28.9062L392.553 28.0364C393.111 28.3079 393.663 28.5921 394.209 28.8904Z" fill="#858585"/>
<path d="M407.1 41.2497L405.365 42.1196C401.217 36.8531 396.243 32.7802 390.582 30.016L392.317 29.1461C397.978 31.9119 402.952 35.9833 407.1 41.2497Z" fill="#858585"/>
<path d="M414.25 74.6682L412.515 75.5381C412.87 74.3683 413.154 73.1637 413.369 71.9182L415.104 71.0483C414.889 72.2939 414.605 73.4984 414.25 74.6682Z" fill="#858585"/>
<path d="M414.145 74.998L412.412 75.8679L412.512 75.5364L414.247 74.6681L414.145 74.998Z" fill="#8C8C8C"/>
<path d="M413.338 73.7543L411.604 74.6242C412.769 70.6112 413.073 66.1578 412.533 61.0224L414.268 60.1526C414.808 65.288 414.504 69.743 413.338 73.7543Z" fill="#858585"/>
<path d="M392.556 28.0347L390.821 28.9045C388.164 27.7521 385.032 26.8538 381.22 26.1482L382.955 25.2783C386.766 25.984 389.899 26.8822 392.556 28.0347Z" fill="#858585"/>
<path d="M392.318 29.1478L390.583 30.0176C388.167 28.971 385.301 28.1311 381.841 27.4602L383.576 26.5903C387.035 27.2613 389.9 28.0995 392.318 29.1478Z" fill="#858585"/>
<path d="M382.948 25.2785L381.214 26.1483L380.619 26.0378L382.354 25.168L382.948 25.2785Z" fill="#808080"/>
<path d="M382.48 26.1594L380.747 27.0292L380.619 26.0378L382.354 25.168L382.48 26.1594Z" fill="#8E8E8E"/>
<path d="M382.485 26.1593L380.751 27.0292C380.514 27.0055 380.274 26.9834 380.032 26.966C379.885 26.955 379.739 26.9455 379.592 26.9376L381.327 26.0677C381.475 26.0756 381.622 26.0851 381.767 26.0962C382.01 26.1135 382.249 26.1356 382.485 26.1593Z" fill="#858585"/>
<path d="M379.977 25.9966L378.242 26.8664L378.951 25.6998L380.686 24.83L379.977 25.9966Z" fill="#898989"/>
<path d="M405.048 83.8008L403.313 84.6706C406.602 83.0225 409.615 80.293 411.267 75.8143L413.002 74.9445C411.35 79.4231 408.337 82.1526 405.048 83.8008Z" fill="#858585"/>
<path d="M413.342 73.7544L411.608 74.6242L393.954 73.7796L395.689 72.9114L413.342 73.7544Z" fill="#808080"/>
<path d="M412.999 74.9446L411.264 75.8129L392.754 74.9288L394.489 74.0605L412.999 74.9446Z" fill="#808080"/>
<path d="M394.491 74.0607L392.756 74.929L390.983 74.8453L392.718 73.9755L394.491 74.0607Z" fill="#808080"/>
<path d="M392.317 75.3931L390.582 76.2629C391.352 75.8777 392.074 75.4341 392.753 74.9305L394.488 74.0607C393.809 74.5627 393.087 75.0063 392.317 75.3931Z" fill="#858585"/>
<path d="M405.045 83.8011L403.31 84.671C398.045 87.3105 392.081 87.1763 389.89 87.0153C389.595 86.9932 389.369 86.9711 389.221 86.9553L390.956 86.0855C391.102 86.1013 391.33 86.1234 391.625 86.1455C393.816 86.3065 399.78 86.4391 405.045 83.8011Z" fill="#858585"/>
<path d="M390.956 86.0852L389.222 86.9551L387.978 86.8193L389.711 85.951L390.956 86.0852Z" fill="#808080"/>
<path d="M425.902 128.453L424.168 129.323L387.978 86.8193L389.711 85.951L425.902 128.453Z" fill="#898989"/>
<path d="M425.906 128.454L424.172 129.323L402.666 128.296L404.399 127.427L425.906 128.454Z" fill="#808080"/>
<path d="M415.104 71.0483C414.163 77.7387 410.791 82.4936 405.078 85.1789C400.22 87.4648 395.106 87.5722 392.277 87.3985L437.792 142.065L415.254 142.15L403.707 128.525L363.706 81.1581L362.915 75.0013L363.434 75.0234C364.574 75.0723 365.711 75.1418 366.84 75.2255C368.447 75.3439 370.038 75.4875 371.598 75.628C373.108 75.7638 374.599 75.898 376.053 76.0053C383.123 76.5263 389.426 76.4079 394.042 72.8022C393.991 72.848 393.94 72.8938 393.89 72.938L392.719 73.9736L395.803 73.8822C394.297 75.0014 391.257 76.0006 389.282 76.5531C385.409 77.6361 380.94 77.5682 376.173 77.2162C374.712 77.1088 373.224 76.9746 371.714 76.8389C370.163 76.6984 368.581 76.5563 366.983 76.4379C366.031 76.3684 365.073 76.3069 364.115 76.2611L364.691 80.7524L404.398 127.427L425.904 128.455L389.713 85.9509L390.958 86.0851C391.105 86.1009 391.333 86.123 391.628 86.1451C395.188 86.4071 408.707 86.595 413.001 74.9429L414.149 74.9982L414.25 74.6682C414.605 73.4984 414.889 72.2939 415.104 71.0483Z" fill="white"/>
<path d="M407.834 40.5455C412.296 46.6549 414.67 52.9096 415.322 60.2472C415.735 64.1954 415.666 67.7632 415.102 71.0484C414.889 72.294 414.605 73.4985 414.248 74.6683L414.147 74.9982L413 74.943L394.49 74.0589L392.717 73.9737L393.888 72.9381C393.939 72.8923 393.989 72.8481 394.04 72.8023C397.655 69.5108 399.336 64.5917 398.651 59.2732C397.683 51.7492 392.177 44.68 384.934 41.649L384.453 41.4501L384.293 40.2061L382.487 26.1591L382.359 25.1693L382.955 25.2798C386.767 25.9855 389.899 26.8837 392.532 28.0267C393.113 28.3093 393.666 28.5934 394.212 28.8902C399.381 31.7034 403.957 35.6185 407.834 40.5455ZM414.274 60.1525C413.645 53.0958 411.367 47.0922 407.106 41.2496C402.959 35.9831 397.985 31.9102 392.324 29.146C389.907 28.0993 387.042 27.2595 383.581 26.5885L385.386 40.6276C389.018 42.2015 392.272 44.7305 394.815 47.9589C397.489 51.3577 399.177 55.287 399.698 59.3221C400.372 64.5632 398.92 69.4318 395.693 72.9096L413.345 73.7542C414.509 69.7428 414.814 65.2879 414.274 60.1525Z" fill="white"/>
<path d="M383.574 26.5903C387.035 27.2613 389.9 28.0995 392.317 29.1478C397.978 31.912 402.952 35.9849 407.099 41.2514C411.36 47.094 413.638 53.0976 414.267 60.1543C414.806 65.2881 414.502 69.7431 413.337 73.756L395.684 72.9114C398.911 69.4336 400.363 64.565 399.689 59.3239C399.17 55.2888 397.482 51.3595 394.806 47.9607C392.263 44.7307 389.01 42.2017 385.377 40.6294L383.574 26.5903Z" fill="white"/>
<path d="M381.767 26.0963C382.009 26.1136 382.249 26.1357 382.486 26.1594L384.475 40.4807C382.538 39.8334 380.037 39.035 377.548 38.8503C376.252 38.7556 374.908 38.7524 373.549 38.8724L381.328 26.0663C381.475 26.0758 381.622 26.0852 381.767 26.0963Z" fill="white"/>
<path d="M373.552 38.8723L371.818 39.7421L379.598 26.9376L381.331 26.0677L373.552 38.8723Z" fill="#898989"/>
<path d="M372.912 37.6204L371.177 38.4902L378.238 26.8665L379.973 25.9967L372.912 37.6204Z" fill="#898989"/>
<path d="M371.205 40.4366L369.472 41.3048L371.181 38.4901L372.916 37.6202L371.205 40.4366Z" fill="#898989"/>
<path d="M372.555 40.2363L370.821 41.1046L369.472 41.3051L371.205 40.4368L372.555 40.2363Z" fill="#808080"/>
<path d="M379.972 25.9969L378.237 26.8668L352.639 25.6433L354.374 24.775L379.972 25.9969Z" fill="#808080"/>
<path d="M396.611 127.055L394.878 127.924L349.068 74.1583L350.802 73.2885L396.611 127.055Z" fill="#898989"/>
<path d="M335.626 56.8296L333.893 57.6995L352.639 25.6432L354.374 24.7749L335.626 56.8296Z" fill="#898989"/>
<path d="M413.028 74.933C408.734 86.5835 395.213 86.3972 391.654 86.1352C391.359 86.1131 391.133 86.091 390.985 86.0752L389.739 85.941L440.849 145.33C437.681 147.525 431.103 150.124 418.564 146.331L364.51 80.7309L363.825 76.0421C364.783 76.0879 366.058 76.3585 367.01 76.428C368.606 76.5448 370.189 76.6885 371.741 76.829C373.25 76.9647 374.739 77.0989 376.199 77.2063C380.968 77.5567 385.436 77.6246 389.308 76.5432C391.282 75.9923 393.012 75.1682 394.518 74.049L413.028 74.933Z" fill="white"/>
<path d="M335.629 56.8296L333.895 57.6995L306.143 23.422L307.878 22.5521L335.629 56.8296Z" fill="#8A8A8A"/>
<path d="M317.85 123.291L316.116 124.161L337.543 89.7636L339.277 88.8938L317.85 123.291Z" fill="#888888"/>
<path d="M317.848 123.291L316.114 124.161L289.437 122.887L291.17 122.017L317.848 123.291Z" fill="#808080"/>
<path d="M291.17 122.017L289.437 122.887L321.812 72.0888L323.547 71.219L291.17 122.017Z" fill="#888888"/>
<path d="M382.277 24.8569C383.159 24.9388 383.896 25.1496 383.896 25.1496C384.002 25.3076 382.648 25.3187 382.421 25.3076L380.045 25.9556L354.447 24.7322L335.7 56.7869L307.949 22.5094L281.98 21.2686L323.62 71.1764L291.244 121.975L317.921 123.249L339.349 88.8511L369.861 125.732L396.686 127.014L350.876 73.246L372.985 37.5777L371.275 40.3925L372.625 40.192L352.253 73.2966L399.145 128.337L369.534 126.922L339.589 90.7281L318.561 124.485L289.119 123.078L322.244 71.1069L271.574 10.5123C278.159 7.2816 284.565 6.45993 297.337 6.29761L335.446 54.8672L353.793 23.4945L382.277 24.8569Z" fill="white"/>
<path d="M381.603 24.8821C381.798 24.8963 381.991 24.9136 382.184 24.931C385.903 25.2878 389.029 26.3723 391.07 27.2674C392.268 27.7915 393.403 28.3946 394.21 28.8903C393.665 28.5935 393.113 28.3078 392.554 28.0362C389.897 26.8838 386.765 25.9855 382.952 25.2799L382.357 25.1694L382.485 26.1592C382.248 26.1355 382.008 26.1134 381.767 26.0961C381.62 26.085 381.473 26.0755 381.326 26.0676L373.547 38.8737C374.906 38.7538 376.251 38.7569 377.545 38.8516C380.035 39.0348 382.352 39.5605 384.289 40.2077L384.449 41.4517L384.825 41.6064C384.861 41.6206 384.896 41.6364 384.93 41.6506C382.962 40.9244 380.42 40.2709 377.626 40.0641C376.049 39.9472 374.391 39.9741 372.71 40.2124C372.656 40.2203 372.603 40.2282 372.549 40.2361L371.199 40.4366L372.909 37.6219L379.97 25.9982L380.679 24.8315L380.924 24.8426C381.153 24.8521 381.378 24.8663 381.603 24.8821Z" fill="white"/>
<path d="M350.802 73.2885L349.068 74.1584L371.176 38.4901L372.911 37.6202L350.802 73.2885Z" fill="#888888"/>
<path d="M380.471 25.7291L374.707 36.9117L351.523 73.264L397.119 127.567L369.95 126.3L339.61 89.2178L317.948 123.552L290.909 122.262L323.552 71.1204L281.53 20.8295L307.98 22.1495L335.634 56.6987L354.384 24.5722L380.471 25.7291Z" fill="white"/>
</g>
<defs>
<filter id="filter0_d" x="0" y="0.183472" width="590.566" height="292.817" filterUnits="userSpaceOnUse" color-interpolation-filters="sRGB">
<feFlood flood-opacity="0" result="BackgroundImageFix"/>
<feColorMatrix in="SourceAlpha" type="matrix" values="0 0 0 0 0 0 0 0 0 0 0 0 0 0 0 0 0 0 127 0"/>
<feOffset dy="4"/>
<feGaussianBlur stdDeviation="5"/>
<feColorMatrix type="matrix" values="0 0 0 0 0 0 0 0 0 0 0 0 0 0 0 0 0 0 0.45 0"/>
<feBlend mode="normal" in2="BackgroundImageFix" result="effect1_dropShadow"/>
<feBlend mode="normal" in="SourceGraphic" in2="effect1_dropShadow" result="shape"/>
</filter>
<linearGradient id="paint0_linear" x1="121.624" y1="228.928" x2="83.2728" y2="309.167" gradientUnits="userSpaceOnUse">
<stop stop-color="#4DBFFF"/>
<stop offset="1" stop-color="#2899D8"/>
</linearGradient>
<linearGradient id="paint1_linear" x1="121.624" y1="228.928" x2="83.2728" y2="309.167" gradientUnits="userSpaceOnUse">
<stop stop-color="#4DBFFF"/>
<stop offset="1" stop-color="#2899D8"/>
</linearGradient>
<linearGradient id="paint2_linear" x1="121.624" y1="228.928" x2="83.2728" y2="309.167" gradientUnits="userSpaceOnUse">
<stop stop-color="#4DBFFF"/>
<stop offset="1" stop-color="#2899D8"/>
</linearGradient>
<linearGradient id="paint3_linear" x1="474.13" y1="228.927" x2="458.582" y2="324.98" gradientUnits="userSpaceOnUse">
<stop stop-color="#4DBFFF"/>
<stop offset="1" stop-color="#2899D8"/>
</linearGradient>
<linearGradient id="paint4_linear" x1="474.13" y1="228.927" x2="458.582" y2="324.98" gradientUnits="userSpaceOnUse">
<stop stop-color="#4DBFFF"/>
<stop offset="1" stop-color="#2899D8"/>
</linearGradient>
<linearGradient id="paint5_linear" x1="474.13" y1="228.927" x2="458.582" y2="324.98" gradientUnits="userSpaceOnUse">
<stop stop-color="#4DBFFF"/>
<stop offset="1" stop-color="#2899D8"/>
</linearGradient>
<linearGradient id="paint6_linear" x1="474.13" y1="228.927" x2="458.582" y2="324.98" gradientUnits="userSpaceOnUse">
<stop stop-color="#4DBFFF"/>
<stop offset="1" stop-color="#2899D8"/>
</linearGradient>
<linearGradient id="paint7_linear" x1="474.13" y1="228.927" x2="458.582" y2="324.98" gradientUnits="userSpaceOnUse">
<stop stop-color="#4DBFFF"/>
<stop offset="1" stop-color="#2899D8"/>
</linearGradient>
<linearGradient id="paint8_linear" x1="474.13" y1="228.927" x2="458.582" y2="324.98" gradientUnits="userSpaceOnUse">
<stop stop-color="#4DBFFF"/>
<stop offset="1" stop-color="#2899D8"/>
</linearGradient>
<linearGradient id="paint9_linear" x1="474.13" y1="228.927" x2="458.582" y2="324.98" gradientUnits="userSpaceOnUse">
<stop stop-color="#4DBFFF"/>
<stop offset="1" stop-color="#2899D8"/>
</linearGradient>
<linearGradient id="paint10_linear" x1="474.13" y1="228.927" x2="458.582" y2="324.98" gradientUnits="userSpaceOnUse">
<stop stop-color="#4DBFFF"/>
<stop offset="1" stop-color="#2899D8"/>
</linearGradient>
<linearGradient id="paint11_linear" x1="474.13" y1="228.927" x2="458.582" y2="324.98" gradientUnits="userSpaceOnUse">
<stop stop-color="#4DBFFF"/>
<stop offset="1" stop-color="#2899D8"/>
</linearGradient>
<linearGradient id="paint12_linear" x1="474.13" y1="228.927" x2="458.582" y2="324.98" gradientUnits="userSpaceOnUse">
<stop stop-color="#4DBFFF"/>
<stop offset="1" stop-color="#2899D8"/>
</linearGradient>
<linearGradient id="paint13_linear" x1="260.419" y1="128.757" x2="229.649" y2="164.253" gradientUnits="userSpaceOnUse">
<stop stop-color="#2292D2"/>
<stop offset="1" stop-color="#0D7EBF"/>
</linearGradient>
<linearGradient id="paint14_linear" x1="210.19" y1="175.639" x2="338.109" y2="78.5273" gradientUnits="userSpaceOnUse">
<stop stop-color="#0C7CBC"/>
<stop offset="1" stop-color="#1A8BCA"/>
</linearGradient>
<linearGradient id="paint15_linear" x1="334.761" y1="154.207" x2="325.384" y2="156.216" gradientUnits="userSpaceOnUse">
<stop offset="0.0989583" stop-color="#40B4F5"/>
<stop offset="1" stop-color="#0D80C1"/>
</linearGradient>
<linearGradient id="paint16_linear" x1="325.858" y1="148.042" x2="314.667" y2="153.537" gradientUnits="userSpaceOnUse">
<stop offset="0.0989583" stop-color="#40B4F5"/>
<stop offset="1" stop-color="#0D80C1"/>
</linearGradient>
<linearGradient id="paint17_linear" x1="324.314" y1="154.191" x2="318.019" y2="158.895" gradientUnits="userSpaceOnUse">
<stop offset="0.0989583" stop-color="#40B4F5"/>
<stop offset="1" stop-color="#0D80C1"/>
</linearGradient>
<linearGradient id="paint18_linear" x1="327.395" y1="161.574" x2="321.367" y2="166.932" gradientUnits="userSpaceOnUse">
<stop offset="0.0989583" stop-color="#40B4F5"/>
<stop offset="1" stop-color="#0D80C1"/>
</linearGradient>
<linearGradient id="paint19_linear" x1="228.286" y1="67.015" x2="230.388" y2="54.2364" gradientUnits="userSpaceOnUse">
<stop stop-color="#2597D8"/>
<stop offset="1" stop-color="#40B4F5"/>
</linearGradient>
<linearGradient id="paint20_linear" x1="221.377" y1="75.4827" x2="231.617" y2="61.7837" gradientUnits="userSpaceOnUse">
<stop stop-color="#2090D0"/>
<stop offset="1" stop-color="#32ADF1"/>
</linearGradient>
<linearGradient id="paint21_linear" x1="230.274" y1="59.1047" x2="236.302" y2="45.71" gradientUnits="userSpaceOnUse">
<stop stop-color="#3DB1F2"/>
<stop offset="1" stop-color="#2C9DDD"/>
</linearGradient>
<linearGradient id="paint22_linear" x1="224.324" y1="63.5681" x2="226.384" y2="51.0367" gradientUnits="userSpaceOnUse">
<stop stop-color="#2597D8"/>
<stop offset="1" stop-color="#40B4F5"/>
</linearGradient>
<linearGradient id="paint23_linear" x1="232.619" y1="70.0956" x2="234.656" y2="57.7062" gradientUnits="userSpaceOnUse">
<stop stop-color="#2597D8"/>
<stop offset="1" stop-color="#40B4F5"/>
</linearGradient>
<linearGradient id="paint24_linear" x1="220.122" y1="60.8228" x2="222.42" y2="46.852" gradientUnits="userSpaceOnUse">
<stop stop-color="#2597D8"/>
<stop offset="1" stop-color="#40B4F5"/>
</linearGradient>
<linearGradient id="paint25_linear" x1="235.777" y1="73.4048" x2="237.925" y2="60.3434" gradientUnits="userSpaceOnUse">
<stop stop-color="#2597D8"/>
<stop offset="1" stop-color="#40B4F5"/>
</linearGradient>
<linearGradient id="paint26_linear" x1="292.565" y1="150.858" x2="280.51" y2="173.629" gradientUnits="userSpaceOnUse">
<stop offset="0.0989583" stop-color="#40B4F5"/>
<stop offset="1" stop-color="#0D80C1"/>
</linearGradient>
<linearGradient id="paint27_linear" x1="275.155" y1="142.822" x2="243.453" y2="181.443" gradientUnits="userSpaceOnUse">
<stop stop-color="#2091D1"/>
<stop offset="1" stop-color="#1686C6"/>
</linearGradient>
<linearGradient id="paint28_linear" x1="329.406" y1="94.6009" x2="212.203" y2="185.015" gradientUnits="userSpaceOnUse">
<stop stop-color="#4DBFFF"/>
<stop offset="1" stop-color="#0878B8"/>
</linearGradient>
<linearGradient id="paint29_linear" x1="284.53" y1="128.757" x2="249.034" y2="187.024" gradientUnits="userSpaceOnUse">
<stop stop-color="#2C9DDD"/>
<stop offset="1" stop-color="#0878B8"/>
</linearGradient>
<linearGradient id="paint30_linear" x1="402.352" y1="153.427" x2="409.324" y2="162.36" gradientUnits="userSpaceOnUse">
<stop offset="0.0989583" stop-color="#40B4F5"/>
<stop offset="1" stop-color="#0D80C1"/>
</linearGradient>
<linearGradient id="paint31_linear" x1="390.792" y1="158.5" x2="401.923" y2="172.762" gradientUnits="userSpaceOnUse">
<stop offset="0.0989583" stop-color="#40B4F5"/>
<stop offset="1" stop-color="#0D80C1"/>
</linearGradient>
<linearGradient id="paint32_linear" x1="397.043" y1="160.235" x2="395.034" y2="163.584" gradientUnits="userSpaceOnUse">
<stop stop-color="#35A9EA"/>
<stop offset="1" stop-color="#2A9EDF"/>
</linearGradient>
<linearGradient id="paint33_linear" x1="367.309" y1="164.639" x2="368.214" y2="169.855" gradientUnits="userSpaceOnUse">
<stop offset="0.0989583" stop-color="#40B4F5"/>
<stop offset="1" stop-color="#0D80C1"/>
</linearGradient>
<linearGradient id="paint34_linear" x1="407.758" y1="30.976" x2="172.812" y2="175.6" gradientUnits="userSpaceOnUse">
<stop stop-color="#4DBFFF"/>
<stop offset="1" stop-color="#0878B8"/>
</linearGradient>
<linearGradient id="paint35_linear" x1="403.073" y1="34.9942" x2="170.103" y2="173.58" gradientUnits="userSpaceOnUse">
<stop stop-color="#4DBFFF"/>
<stop offset="1" stop-color="#0878B8"/>
</linearGradient>
<linearGradient id="paint36_linear" x1="408.426" y1="29.6362" x2="176.84" y2="176.251" gradientUnits="userSpaceOnUse">
<stop stop-color="#4DBFFF"/>
<stop offset="1" stop-color="#0878B8"/>
</linearGradient>
<linearGradient id="paint37_linear" x1="357.666" y1="177.246" x2="374.534" y2="170.324" gradientUnits="userSpaceOnUse">
<stop offset="0.0989583" stop-color="#40B4F5"/>
<stop offset="1" stop-color="#0D80C1"/>
</linearGradient>
<linearGradient id="paint38_linear" x1="170.003" y1="170.95" x2="299.932" y2="41.0218" gradientUnits="userSpaceOnUse">
<stop stop-color="#0774B1"/>
<stop offset="0.329879" stop-color="#2392D0"/>
<stop offset="1" stop-color="#4DBFFF"/>
</linearGradient>
<linearGradient id="paint39_linear" x1="196.124" y1="103.307" x2="229.611" y2="48.3889" gradientUnits="userSpaceOnUse">
<stop stop-color="#2392D1"/>
<stop offset="1" stop-color="#2EA1E1"/>
</linearGradient>
<linearGradient id="paint40_linear" x1="215.58" y1="82.3934" x2="223.583" y2="70.4903" gradientUnits="userSpaceOnUse">
<stop stop-color="#1E8ECE"/>
<stop offset="1" stop-color="#34A8E9"/>
</linearGradient>
<linearGradient id="paint41_linear" x1="224.936" y1="81.1236" x2="227.473" y2="76.8532" gradientUnits="userSpaceOnUse">
<stop stop-color="#2191D1"/>
<stop offset="1" stop-color="#2DA0E0"/>
</linearGradient>
<linearGradient id="paint42_linear" x1="394.377" y1="172.898" x2="376.349" y2="173.611" gradientUnits="userSpaceOnUse">
<stop offset="0.0989583" stop-color="#40B4F5"/>
<stop offset="1" stop-color="#0D80C1"/>
</linearGradient>
<linearGradient id="paint43_linear" x1="410.438" y1="168.271" x2="419.814" y2="156.886" gradientUnits="userSpaceOnUse">
<stop stop-color="#2A9EDF"/>
<stop offset="1" stop-color="#41B2F2"/>
</linearGradient>
<linearGradient id="paint44_linear" x1="329.4" y1="153.537" x2="287.876" y2="161.574" gradientUnits="userSpaceOnUse">
<stop offset="0.0989583" stop-color="#40B4F5"/>
<stop offset="1" stop-color="#0D80C1"/>
</linearGradient>
<linearGradient id="paint45_linear" x1="391.013" y1="18.9204" x2="170.67" y2="174.299" gradientUnits="userSpaceOnUse">
<stop stop-color="#4DBFFF"/>
<stop offset="1" stop-color="#0979B8"/>
</linearGradient>
<linearGradient id="paint46_linear" x1="234.296" y1="104.647" x2="218.222" y2="122.73" gradientUnits="userSpaceOnUse">
<stop stop-color="#2798D8"/>
<stop offset="1" stop-color="#1B8CCC"/>
</linearGradient>
<linearGradient id="paint47_linear" x1="378.971" y1="171.36" x2="387.669" y2="152.867" gradientUnits="userSpaceOnUse">
<stop stop-color="#1B8FD0"/>
<stop offset="1" stop-color="#39ACED"/>
</linearGradient>
<linearGradient id="paint48_linear" x1="375.615" y1="166.263" x2="381.642" y2="157.556" gradientUnits="userSpaceOnUse">
<stop stop-color="#2195D6"/>
<stop offset="1" stop-color="#2FA2E3"/>
</linearGradient>
<linearGradient id="paint49_linear" x1="289.252" y1="142.152" x2="289.252" y2="149.013" gradientUnits="userSpaceOnUse">
<stop offset="0.0989583" stop-color="#40B4F5"/>
<stop offset="1" stop-color="#0D80C1"/>
</linearGradient>
<linearGradient id="paint50_linear" x1="259.721" y1="120.029" x2="259.721" y2="137.9" gradientUnits="userSpaceOnUse">
<stop offset="0.0989583" stop-color="#40B4F5"/>
<stop offset="1" stop-color="#0D80C1"/>
</linearGradient>
<linearGradient id="paint51_linear" x1="357.527" y1="152.198" x2="322.701" y2="158.895" gradientUnits="userSpaceOnUse">
<stop offset="0.0989583" stop-color="#40B4F5"/>
<stop offset="1" stop-color="#0D80C1"/>
</linearGradient>
<linearGradient id="paint52_linear" x1="393.694" y1="150.188" x2="390.384" y2="155.582" gradientUnits="userSpaceOnUse">
<stop stop-color="#3FB1F1"/>
<stop offset="1" stop-color="#35A9EA"/>
</linearGradient>
<linearGradient id="paint53_linear" x1="398.463" y1="168.427" x2="398.463" y2="173.093" gradientUnits="userSpaceOnUse">
<stop offset="0.0989583" stop-color="#40B4F5"/>
<stop offset="1" stop-color="#0D80C1"/>
</linearGradient>
<linearGradient id="paint54_linear" x1="276.513" y1="135.766" x2="276.513" y2="136.142" gradientUnits="userSpaceOnUse">
<stop offset="0.0989583" stop-color="#40B4F5"/>
<stop offset="1" stop-color="#0D80C1"/>
</linearGradient>
<linearGradient id="paint55_linear" x1="389.011" y1="13.5635" x2="167.998" y2="174.97" gradientUnits="userSpaceOnUse">
<stop stop-color="#4DBFFF"/>
<stop offset="1" stop-color="#0A7AB9"/>
</linearGradient>
<linearGradient id="paint56_linear" x1="415.13" y1="27.6271" x2="167.998" y2="175.638" gradientUnits="userSpaceOnUse">
<stop stop-color="#4DBFFF"/>
<stop offset="1" stop-color="#0878B8"/>
</linearGradient>
<linearGradient id="paint57_linear" x1="399.83" y1="13.3652" x2="267.2" y2="151.362" gradientUnits="userSpaceOnUse">
<stop stop-color="#4DBFFF"/>
<stop offset="1" stop-color="#2899D8"/>
</linearGradient>
</defs>
</svg>
