<svg width="189" height="193" viewBox="0 0 189 193" fill="none" xmlns="http://www.w3.org/2000/svg">
<path d="M173.091 39.3128C187.229 39.4055 185.699 37.8295 185.746 51.7352C185.746 53.682 185.676 55.6519 185.746 57.5987C185.815 59.9395 184.61 60.5885 182.478 60.5885C180.508 60.5885 179.557 59.8468 179.627 57.8537C179.65 57.2743 179.604 56.6717 179.604 56.0923C179.21 45.3617 179.21 45.3617 168.711 45.3617C167.529 45.3617 166.37 45.3617 165.188 45.3386C163.218 45.3154 161.179 45.4776 161.132 42.5111C161.063 39.2432 163.242 39.2896 165.49 39.2896C167.993 39.3128 170.542 39.3128 173.091 39.3128Z" fill="#F8F9FB"/>
<path d="M185.719 128.309C184.305 130.673 188.663 136.536 182.451 136.444C177.051 136.351 180.458 130.997 179.693 128.1C179.207 126.293 179.578 124.253 179.624 122.306C179.67 120.383 179.438 118.343 182.451 118.343C185.603 118.343 185.766 120.29 185.719 122.584C185.696 124.346 185.719 126.084 185.719 128.309Z" fill="#F8F9FB"/>
<path d="M115.313 24.503C80.4564 24.4335 45.5763 24.4103 10.7194 24.2249C6.89534 24.2017 6.17686 25.7777 6.17686 29.1382C6.24639 65.3857 6.24641 101.61 6.1537 137.857C6.1537 141.264 6.94169 142.748 10.7194 142.748C45.5763 142.562 80.4564 142.539 115.313 142.47C113.76 144.555 111.443 144.046 109.357 144.046C76.8409 144.069 44.3248 143.976 11.8318 144.161C6.45498 144.185 4.67042 142.354 4.69359 137C4.85583 101.355 4.85583 65.7102 4.69359 30.0653C4.67042 24.7579 6.36231 22.8343 11.7855 22.8575C44.3016 23.0429 76.7945 22.9502 109.311 22.9734C111.443 22.9502 113.714 22.4635 115.313 24.503Z" fill="#F8F9FB"/>
<path fill-rule="evenodd" clip-rule="evenodd" d="M147.572 57.7508C149.518 58.4954 151.465 59.2401 153.411 59.9859V61.4692C150.224 62.6753 147.036 63.8878 143.847 65.1008C138.458 67.1509 133.065 69.2024 127.663 71.2263C127.554 71.2675 127.446 71.3081 127.339 71.3484C125.155 72.1695 123.298 72.8679 124.557 76.0933C125.688 78.9927 127.348 78.3162 129.084 77.6088C129.305 77.5189 129.526 77.4285 129.749 77.3448C132.084 76.4637 134.423 75.5907 136.762 74.7176C143.22 72.307 149.679 69.8957 156.077 67.3096C159.993 65.7104 161.222 66.4752 161.152 70.786C161.141 71.5367 161.13 72.2874 161.119 73.038C160.942 85.0341 160.765 97.0277 161.245 108.98C161.477 114.797 159.762 118.019 154.315 119.966C154.156 120.022 154.002 120.078 153.854 120.132C151.509 120.982 150.4 121.383 149.332 118.158C147.617 112.99 142.704 110.301 138.509 111.391C133.781 112.596 131.046 117.138 131.603 122.863C131.639 123.217 131.664 123.574 131.689 123.932C131.761 124.953 131.833 125.974 132.159 126.919C133.04 129.422 132.367 130.951 129.911 132.017C129.859 132.039 129.808 132.061 129.756 132.083C128.052 132.807 126.121 133.628 127.245 136.282C128.138 138.387 129.369 138.436 131.632 138.526L131.719 138.53C135.032 138.66 135.067 140.986 135.103 143.316C135.118 144.311 135.133 145.306 135.404 146.132C136.218 148.613 134.786 148.697 133.252 148.787C132.995 148.802 132.736 148.817 132.483 148.843C123.19 149.84 119.203 157.998 124.58 165.692C129.308 172.413 133.897 179.181 137.721 186.481C140.27 191.348 144.604 193.62 149.912 192.855C159.808 191.464 169.658 189.772 179.438 187.849C185.441 186.643 188.593 182.634 188.57 176.631C188.546 168.821 188.361 160.964 187.897 153.154C187.411 144.88 182.358 140.523 174.015 139.179C171.476 138.771 168.919 138.592 166.36 138.413C163.103 138.184 159.842 137.956 156.61 137.255C153.266 136.54 152.727 134.528 152.119 132.256C152.057 132.024 151.995 131.79 151.928 131.554C151.067 128.495 153.153 127.54 155.326 126.546C155.375 126.524 155.425 126.501 155.474 126.478C156.811 125.859 158.117 125.178 159.422 124.498C160.899 123.729 162.373 122.96 163.887 122.283C166.344 121.194 167.317 119.502 167.317 116.791C167.248 98.5839 167.271 80.3772 167.294 62.1705L167.294 62.1413C167.294 60.0091 166.738 58.155 164.675 57.3438C159.141 55.2006 153.597 53.0818 148.052 50.9627C141.545 48.4761 135.038 45.989 128.543 43.4613C125.855 42.4184 125.136 43.8553 124.418 45.9644C123.471 48.7679 125.217 49.3132 126.885 49.8341C127.216 49.9376 127.545 50.0402 127.848 50.1592C134.412 52.717 140.99 55.2333 147.572 57.7508ZM168.061 183.282C182.454 180.594 182.454 180.571 181.99 166.016C181.925 164.52 181.845 163.027 181.765 161.535C181.646 159.307 181.526 157.08 181.457 154.845C181.341 149.283 179.047 146.224 173.044 145.876C167.586 145.572 162.152 144.935 156.716 144.298C154.697 144.061 152.677 143.825 150.656 143.605C148.408 143.35 147.365 142.029 146.971 139.781C146.485 136.953 145.936 134.13 145.386 131.305C144.782 128.203 144.178 125.099 143.657 121.982C143.263 119.571 142.707 117.532 139.763 118.227C137.335 118.793 137.698 120.579 138.045 122.287C138.096 122.536 138.146 122.783 138.187 123.024C139.879 133.037 141.571 143.072 143.193 153.107C143.264 153.543 143.369 153.995 143.475 154.451C143.954 156.52 144.456 158.691 141.988 159.944C139.697 161.119 138.245 159.452 136.881 157.886C136.659 157.63 136.438 157.377 136.217 157.14C134.502 155.332 132.741 153.802 130.191 155.819C127.433 157.997 128.43 160.315 130.145 162.447C135.174 168.728 139.392 175.542 142.938 182.749C144.607 186.11 147.203 186.944 150.725 186.272C153.746 185.702 156.773 185.202 159.8 184.701C162.556 184.246 165.311 183.79 168.061 183.282Z" fill="#F8F9FB"/>
<path d="M83.9062 61.4458C92.4814 64.7137 101.033 68.051 109.632 71.203C112.181 72.13 113.873 73.1498 112.714 76.209C111.509 79.3378 109.446 78.0863 107.43 77.3215C98.484 73.9146 89.4685 70.6699 80.5689 67.1008C76.9766 65.6639 75.6555 66.2201 75.6787 70.2759C75.7946 84.367 75.7946 98.4581 75.6787 112.549C75.6555 115.585 76.9302 117.022 79.5491 118.274C88.7037 122.654 97.7656 127.289 106.851 131.855C108.867 132.875 111.463 133.338 109.678 136.838C107.917 140.337 105.924 138.553 103.93 137.579C94.1037 132.736 84.393 127.73 74.4967 123.025C70.9971 121.356 69.7224 119.131 69.7688 115.284C69.9542 98.0641 69.9542 80.8443 69.7688 63.6244C69.7224 59.6613 71.1362 57.7608 74.8907 56.4166C85.3663 52.6621 95.6334 48.3281 106.063 44.4577C108.241 43.6466 111.254 41.074 112.761 45.5238C114.221 49.8346 110.304 49.8346 108.148 50.7153C100.06 53.9831 91.8788 56.9497 83.7208 60.0321C83.7904 60.4724 83.8367 60.9591 83.9062 61.4458Z" fill="#F8F9FB"/>
<path d="M36.2114 124.415C29.6062 124.323 24.3916 119.015 24.3916 112.387C24.4148 105.527 29.838 100.243 36.7677 100.335C43.4656 100.428 48.4948 105.596 48.4948 112.364C48.4948 119.433 43.3033 124.508 36.2114 124.415Z" fill="#F8F9FB"/>
<path d="M30.5607 130.487C30.6534 135.215 26.5976 139.41 21.7075 139.596C16.6551 139.804 11.9735 135.54 11.9271 130.719C11.8808 126.177 16.2147 121.68 20.8731 121.449C25.8096 121.217 30.4912 125.574 30.5607 130.487Z" fill="#F8F9FB"/>
<path d="M64.2773 136.745C51.8086 136.768 51.8086 136.768 51.8086 124.392C51.8086 122.445 51.8781 120.475 51.8086 118.529C51.739 116.674 52.2721 115.562 54.4043 115.608C56.3511 115.655 57.9039 115.817 57.8112 118.366C57.7185 120.916 57.9966 123.465 57.7649 125.991C57.4636 129.491 58.6919 131.044 62.3537 130.812C65.6679 130.603 69.0053 130.812 72.3195 130.766C74.3358 130.742 75.7032 131.183 75.6568 133.639C75.6337 135.887 74.6834 136.814 72.4585 136.768C69.7469 136.699 67.0121 136.745 64.2773 136.745Z" fill="#F8F9FB"/>
<path d="M64.6938 39.3357C67.4286 39.3357 70.1634 39.3821 72.875 39.3126C75.3317 39.2662 75.6793 40.7727 75.6561 42.7426C75.6561 44.8517 74.4973 45.4311 72.6664 45.3384C72.087 45.3152 71.4844 45.3152 70.905 45.3615C66.8492 45.6397 61.9359 43.7624 58.9461 46.1727C55.9796 48.5598 58.0654 53.4964 57.8569 57.3204C57.7178 59.893 56.7212 60.6114 54.2877 60.6114C51.4834 60.6114 51.8311 58.7805 51.7847 57.0423C51.7615 55.4895 51.7847 53.9135 51.7847 52.3607C51.8079 39.3126 51.8079 39.3126 64.6938 39.3357Z" fill="#F8F9FB"/>
<path d="M16.7409 106.222C12.4302 106.222 8.86102 102.676 9.16231 98.3652C9.50995 93.7995 12.3606 91.1343 16.7409 91.1111C21.1676 91.0879 23.9023 94.0313 24.4586 98.3884C24.9453 102.212 20.7504 106.222 16.7409 106.222Z" fill="#F8F9FB"/>
<path d="M82.3533 107.335C82.3533 105.967 82.3997 104.6 82.3533 103.232C82.2838 101.401 82.7936 100.266 84.949 100.312C86.9885 100.359 88.3327 100.845 88.3791 103.232C88.4486 106.639 87.8229 110.046 91.531 112.596C93.0838 113.662 91.3688 117.138 89.8624 117.323C86.8031 117.717 83.6512 116.396 82.4924 113.152C81.8666 111.414 82.3765 109.281 82.3765 107.335C82.3997 107.335 82.3765 107.335 82.3533 107.335Z" fill="#F8F9FB"/>
<path d="M104.441 119.896C103.236 121.634 103.375 124.578 100.548 123.627C98.7629 123.025 95.866 122.654 96.6308 119.595C97.0016 118.088 97.5346 115.724 99.8754 116.327C101.753 116.814 103.978 117.509 104.441 119.896Z" fill="#F8F9FB"/>
<path d="M18.6453 33.2173C18.7843 35.6508 17.7182 36.7864 15.2616 36.8096C12.8744 36.8327 11.7852 35.8825 11.7852 33.4027C11.7852 31.0155 12.5731 29.9031 15.1225 29.9263C17.4865 29.9494 18.7843 30.7374 18.6453 33.2173Z" fill="#F8F9FB"/>
<path d="M30.6051 33.1013C30.8368 35.4189 30.0488 36.7863 27.4299 36.7863C25.205 36.7863 24.3243 35.7434 24.278 33.588C24.2316 31.2936 24.7879 29.8799 27.4995 29.9726C29.6548 30.0421 30.8136 30.8069 30.6051 33.1013Z" fill="#F8F9FB"/>
<path d="M42.6295 33.3562C42.7222 35.3725 42.0732 36.7167 39.7788 36.7862C37.3453 36.8558 36.3487 35.7201 36.3256 33.3098C36.3024 30.8068 37.3916 29.9029 39.8251 29.9724C42.1891 30.0188 42.7222 31.3862 42.6295 33.3562Z" fill="#F8F9FB"/>
<path d="M60.2885 14.9544C56.3718 14.9544 52.455 14.9312 48.5382 14.9544C46.5451 14.9776 45.0618 14.5604 45.1545 12.0806C45.224 9.94835 46.0584 8.81272 48.3065 8.81272C56.3254 8.8359 64.3443 8.8359 72.3865 8.78954C74.5418 8.76637 75.5848 9.57753 75.7006 11.8488C75.8397 14.6531 74.2869 15.0471 72.0388 15.0007C68.1221 14.9312 64.2053 14.9776 60.2885 14.9544C60.2885 14.9776 60.2885 14.9544 60.2885 14.9544Z" fill="#F8F9FB"/>
<path fill-rule="evenodd" clip-rule="evenodd" d="M0.00612796 61.5633C0.00870278 68.8097 0.0112773 76.0553 0.0112773 83.3008C0.0112773 90.5464 0.00870278 97.7919 0.00612796 105.038C0.000976791 119.534 -0.00417437 134.033 0.0112773 148.542C0.0112773 160.547 6.54695 167.268 18.4131 167.291C46.8271 167.361 75.2178 167.361 103.632 167.291C114.664 167.268 121.616 160.338 121.616 149.306C121.663 105.434 121.663 61.5384 121.616 17.666C121.593 6.72687 114.988 0.0753224 104.095 0.0521463C75.3105 -0.0173821 46.5026 -0.0173821 17.7178 0.0521463C6.36154 0.0753224 0.0344534 6.56464 0.0112773 18.06C-0.00417438 32.5691 0.000976791 47.0679 0.00612796 61.5633ZM115.316 24.5808V24.5033C114.623 23.226 113.527 23.3566 112.481 23.4812C112.199 23.5149 111.92 23.5481 111.654 23.5531C99.8342 23.5367 88.0143 23.5377 76.1955 23.5386H76.1953H76.1951H76.195H76.1948C54.5273 23.5404 32.8632 23.5421 11.2088 23.4372C6.36495 23.414 5.27566 25.384 5.29884 29.7643C5.37609 53.5122 5.37094 77.2704 5.36579 101.025V101.026V101.026V101.027V101.028C5.36321 112.904 5.36064 124.78 5.36836 136.653C5.39154 143.281 5.57693 143.466 12.4139 143.466C18.9106 143.466 25.4081 143.467 31.9063 143.468H31.908H31.9096H31.9113H31.913C57.913 143.472 83.9219 143.476 109.916 143.42C110.369 143.414 110.845 143.474 111.327 143.535H111.327H111.328H111.328C112.744 143.713 114.215 143.899 115.339 142.447C115.316 103.166 115.316 63.8617 115.316 24.5808ZM73.4467 148.979H73.4489H73.4612C85.7889 148.975 98.1232 148.971 110.444 149.005C115.566 149.005 116.517 150.697 114.268 155.356C112.438 159.133 109.147 160.848 105.23 160.871C75.6802 160.987 46.1074 160.987 16.5579 160.895C12.4325 160.871 8.86338 159.18 7.1947 155.008C5.66507 151.184 5.89686 148.843 11.2042 148.913C22.9911 149.077 34.778 149.043 46.5649 149.01C51.4185 148.996 56.272 148.982 61.1256 148.982C65.23 148.982 69.3358 148.981 73.4424 148.979H73.4445H73.4467ZM48.5416 18.1585H48.5438H48.546C52.6018 18.1556 56.6569 18.1527 60.7105 18.1527C64.7653 18.1527 68.8215 18.1556 72.8787 18.1585C85.0549 18.1672 97.2408 18.1759 109.427 18.1063C109.907 18.1063 110.443 18.19 110.991 18.2756C112.643 18.5332 114.409 18.8088 115.105 16.878C115.962 14.4445 114.711 11.9183 113.065 9.83245C111.119 7.32943 108.477 6.2865 105.371 6.2865H16.1892C12.8518 6.2865 10.0475 7.49166 8.17023 10.3191C6.84919 12.2891 5.78308 14.6531 6.75648 16.9243C7.4955 18.6663 9.11619 18.4445 10.6348 18.2367L10.6348 18.2367C11.1164 18.1708 11.5878 18.1063 12.0175 18.1063C24.1853 18.1759 36.3662 18.1672 48.5406 18.1585H48.5411H48.5416Z" fill="#F8F9FB"/>
</svg>
