<svg width="199" height="202" viewBox="0 0 199 202" fill="none" xmlns="http://www.w3.org/2000/svg">
<path fill-rule="evenodd" clip-rule="evenodd" d="M175.49 66.6609V73.0766C175.49 79.6668 175.494 86.2552 175.497 92.8428V92.8583V92.8607V92.863V92.8653V92.8677V92.87V92.8723V92.8747V92.877V92.8793V92.8817V92.884V92.8863C175.506 109.345 175.515 125.798 175.468 142.263C175.423 154.625 168.448 161.6 156.153 161.667C154.442 161.678 152.73 161.69 151.018 161.702L151.008 161.703L150.998 161.703L150.988 161.703C138.913 161.788 126.824 161.874 114.753 161.6C109.835 161.488 107.555 162.494 109.164 167.77C109.542 169.013 109.611 170.366 109.677 171.676L109.679 171.704C109.688 171.875 109.698 172.044 109.708 172.213L109.708 172.217L109.708 172.218C110.023 177.795 110.296 182.634 118.799 181.853C124.522 181.339 128.367 187.039 127.987 192.606C127.629 198.015 123.807 201.838 117.771 201.883C97.7413 202.039 77.7118 202.039 57.6599 201.883C51.5124 201.838 47.4216 197.613 47.2874 192.091C47.1533 186.503 51.4901 181.294 57.6599 181.674C64.4333 182.077 65.1933 178.768 65.5957 173.493L65.637 172.962C66.0731 167.363 66.2921 164.551 64.9911 163.138C63.678 161.712 60.8162 161.712 55.0659 161.712H54.9997C51.6075 161.712 48.2172 161.715 44.8276 161.719L44.7875 161.719H44.7852H44.7829H44.7805H44.7782H44.7759H44.7735H44.7712H44.7689H44.7665H44.7642H44.7619H44.7595H44.7572C36.2645 161.728 27.7766 161.737 19.2774 161.689C6.87066 161.622 0.0525279 154.804 0.0301735 142.308C-0.0145353 110.185 -0.0145135 78.0392 0.0525497 45.916C0.0749041 33.7105 6.02116 27.563 18.3384 26.9594C20.7974 26.8476 21.9375 26.0652 22.8764 23.7851C29.1803 8.31584 40.9611 0 57.4587 0C73.9786 0 85.6476 8.49468 91.9962 23.8522C92.9351 26.1323 94.1423 26.8476 96.5566 26.9594C103.039 27.25 108.65 27.0935 113.278 20.7896C117.257 15.3798 124.097 13.3903 131.005 13.3679L134.187 13.3522C146.919 13.2887 159.652 13.2252 172.405 13.3903C186.377 13.5691 197.733 24.3663 198.515 38.226C198.873 44.4406 198.783 50.6998 198.604 56.9367C198.403 63.3524 194.648 67.0632 188.277 67.3315L188.069 67.3394C184.046 67.4937 179.973 67.6498 175.49 66.6609ZM168.471 101.909V101.912V101.914C168.449 109.008 168.426 116.107 168.555 123.195C168.623 126.593 167.594 127.8 164.062 127.778C144.614 127.621 125.143 127.643 105.695 127.755C102.208 127.778 100.911 126.593 101.179 123.15C101.299 121.703 101.268 120.24 101.238 118.779C101.217 117.781 101.197 116.785 101.224 115.796C101.537 104.283 96.2613 96.3696 85.8441 91.7199C84.5707 91.1515 83.2904 90.5924 82.0091 90.0329L82.0075 90.0322L82.007 90.032C79.3077 88.8533 76.6039 87.6727 73.9516 86.3995C70.2184 84.5888 70.1737 81.9734 72.968 79.2461C76.2317 76.0718 79.5849 73.6799 84.8159 74.0376C92.394 74.5517 94.6741 71.9362 94.7635 64.4475C94.8082 61.6085 94.9871 58.9483 96.4401 56.2882C98.5414 52.4432 98.2508 48.3076 96.4625 44.2838C96.3303 43.9852 96.1874 43.6854 96.0438 43.3844C95.532 42.3109 95.0122 41.2209 94.9424 40.1036C94.912 39.6572 94.8355 39.1704 94.7571 38.6717C94.4901 36.9725 94.201 35.1331 95.6354 34.2691C97.8317 32.9143 100.65 33.3878 103.225 33.8205C103.454 33.859 103.682 33.8972 103.906 33.9338C105.322 34.167 105.1 35.2318 104.885 36.2588C104.812 36.6101 104.739 36.9569 104.734 37.2646C104.704 39.2745 104.657 41.2868 104.61 43.3001L104.61 43.3006C104.515 47.3328 104.421 51.3684 104.465 55.394C104.577 63.3969 108.467 66.7053 116.246 67.5548C123.735 68.3819 129.748 65.9229 134.398 60.6249C141.211 52.8833 149.927 53.5021 158.664 54.1223L158.943 54.1421C163.995 54.4998 168.533 60.2449 168.533 65.4088C168.511 74.8423 168.488 84.2759 168.488 93.7318C168.488 96.447 168.48 99.1639 168.471 101.882V101.884V101.886V101.889V101.891V101.893V101.896V101.898V101.9V101.902V101.905V101.907V101.909ZM107.286 134.704C100.827 134.694 94.3659 134.685 87.9038 134.685H60.1172C56.9021 134.685 53.6879 134.684 50.4742 134.683H50.4726H50.471H50.4694H50.4678H50.4662H50.4646H50.463H50.4614H50.4598H50.4582H50.4566H50.455C37.6094 134.68 24.7724 134.676 11.9211 134.73C11.5724 134.73 11.2063 134.696 10.8362 134.662L10.8359 134.662H10.8357H10.8355H10.8352H10.835H10.8348C9.23612 134.513 7.56284 134.358 6.89138 136.898C4.11944 147.338 9.55156 154.715 20.237 154.715C65.0352 154.737 109.833 154.737 154.632 154.715C165.228 154.715 168.178 151.406 168.581 140.788C168.782 135.624 167.061 134.529 162.187 134.573C143.89 134.755 125.604 134.729 107.312 134.704H107.31H107.308H107.306H107.304H107.302H107.299H107.297H107.295H107.293H107.291H107.289H107.286ZM57.079 127.778C54.133 127.778 51.1869 127.749 48.2414 127.72C41.1741 127.65 34.11 127.581 27.0571 127.912C21.4238 128.158 19.6354 126.168 20.3508 120.87C20.5323 119.574 20.4957 118.255 20.4591 116.935C20.4327 115.979 20.4062 115.023 20.4625 114.075C20.8202 107.055 24.151 101.914 30.4102 98.7171C31.5946 98.1151 32.8268 97.5958 34.0589 97.0767C35.6175 96.4199 37.1759 95.7632 38.6367 94.9392C42.3698 92.8603 44.8735 92.905 48.0255 96.6381C53.3682 102.942 62.3323 102.473 67.7644 95.7887C70.1787 92.8379 72.0341 92.8603 74.8284 94.3803C75.8642 94.9369 76.9533 95.3758 78.0442 95.8154L78.0452 95.8158C78.5315 96.0118 79.0181 96.2079 79.5005 96.4146C92.712 102.249 97.1605 110.878 94.5227 125.006C94.0128 127.712 92.4364 127.735 90.6837 127.76H90.6834C90.4382 127.763 90.1896 127.767 89.94 127.778H89.3811H57.079ZM158.153 20.2237C156.139 20.2382 154.125 20.2527 152.11 20.2527C149.948 20.2527 147.786 20.2369 145.623 20.221H145.623C140.99 20.1871 136.356 20.1531 131.723 20.2751C120.009 20.588 111.917 28.658 111.425 40.3493C111.311 43.1198 111.328 45.8902 111.345 48.6606L111.345 48.6643C111.352 49.6705 111.358 50.6768 111.358 51.683C111.381 60.1106 112.431 60.9601 120.903 60.4683C124.301 60.2895 126.559 58.2776 128.616 56.1986C136.172 48.5981 145.024 45.6026 155.754 46.6756C160.471 47.1451 164.584 47.9275 168.205 51.0347C171.335 53.7396 174.644 56.2657 177.952 58.7694C181.663 61.586 186.022 61.0495 189.822 59.6635C192.321 58.7519 192.104 56.3996 191.896 54.1471V54.147V54.1468V54.1466V54.1463V54.1461V54.1459L191.896 54.1457L191.896 54.1443C191.828 53.4151 191.762 52.6965 191.789 52.0407C191.968 48.084 191.923 44.1049 191.767 40.1481C191.32 28.6803 183.362 20.6551 171.939 20.2974C167.352 20.1575 162.754 20.1906 158.153 20.2237H158.153ZM6.89402 83.8509C6.89402 79.9492 6.88799 76.0454 6.88196 72.1408C6.86788 63.0257 6.85379 53.9063 6.91639 44.7978C6.9611 38.6056 10.6048 34.4254 16.104 33.7547C18.7195 33.4194 20.5302 33.7324 20.3067 37.1302C20.1502 39.6116 19.7702 41.8247 18.6525 44.1272C14.5616 52.6442 18.496 61.2059 27.6166 63.5084C30.2991 64.2014 31.7969 65.1403 32.7134 67.8452C34.2559 72.4502 37.5643 75.8034 41.2975 78.8212C45.2766 82.0626 44.9412 84.5216 40.3139 86.6676C36.7383 88.3437 33.0956 89.9081 29.4529 91.4724L29.4527 91.4725L29.4525 91.4726L29.4524 91.4726L29.4522 91.4727L29.452 91.4728L29.4519 91.4728L29.4517 91.4729L29.4515 91.473L29.4513 91.473L29.4496 91.4738C18.5407 96.1906 13.3321 104.573 13.4662 116.377C13.4774 117.606 13.4718 118.83 13.4662 120.054V120.054C13.4606 121.278 13.455 122.502 13.4662 123.731C13.4675 123.848 13.4693 123.965 13.4711 124.08C13.5025 126.063 13.5299 127.797 10.4037 127.755C7.09522 127.71 6.82696 126.011 6.82696 123.441C6.87167 114.662 6.87663 105.864 6.8816 97.059V97.0586C6.88408 92.6571 6.88657 88.254 6.89402 83.8509ZM37.4986 59.0605C38.8176 72.8308 52.4091 80.7219 66.7829 74.5968C65.9747 74.5288 65.3145 74.4659 64.7532 74.4125C63.6533 74.3077 62.9331 74.2391 62.2226 74.2391C62.0174 74.2373 61.8131 74.238 61.6112 74.2387C59.3497 74.2467 57.3699 74.2537 57.3494 70.6624C57.3288 67.0497 59.3252 67.0748 61.5729 67.103C61.773 67.1055 61.9751 67.1081 62.1779 67.1081C64.1898 67.123 66.2017 67.118 68.2136 67.113L68.2228 67.113C69.2257 67.1105 70.2286 67.1081 71.2314 67.1081L71.3447 67.1081C73.0046 67.1091 74.6283 67.11 75.5682 65.2303C77.6693 61.0091 77.5585 56.5315 77.4481 52.0688V52.0688L77.4481 52.0679C77.4281 51.2607 77.4081 50.4539 77.4013 49.6493C77.3746 47.3724 75.9125 47.2289 74.4321 47.0837C73.427 46.9851 72.4136 46.8856 71.8351 46.1173C71.62 45.8376 71.3272 45.6149 71.0341 45.3919C70.7179 45.1513 70.4012 44.9104 70.1808 44.5972C67.7889 41.1322 65.1287 41.5793 61.9768 43.5912C57.7741 46.2738 53.1914 47.4362 48.0499 47.3021C36.3809 47.0114 36.3586 47.2126 37.4986 59.0605ZM85.2409 26.4675C80.9041 27.6747 77.998 26.2216 74.9131 23.3826C64.876 14.1726 49.3397 14.3515 39.4367 23.7627C36.4635 26.6017 33.5798 27.5182 29.8243 26.4899C31.9256 16.1398 43.3934 7.37688 55.7107 6.70625C68.9221 6.01326 81.1947 14.1056 85.2409 26.4675ZM72.9498 37.019C73.5087 37.712 74.1793 38.472 75.61 38.1591C75.5889 37.948 75.5788 37.7303 75.5687 37.5109V37.5107C75.5467 37.0329 75.5243 36.5467 75.3864 36.1025C73.1286 29.2397 65.7963 23.9864 58.017 23.6511C50.4836 23.3157 42.3019 28.569 39.3734 35.2977C38.0545 38.3379 39.0829 39.2991 42.0113 39.7909C49.4777 41.0428 56.2957 39.098 62.5773 35.3871C66.8023 32.8834 69.9543 33.3305 72.9498 37.019ZM57.4144 83.9633C58.2144 84.4182 59.2952 84.2182 60.3515 84.0226C62.3057 83.6609 64.1764 83.3146 64.0313 87.16C63.8748 91.2955 61.6171 93.9557 57.3027 93.8886C53.0106 93.7992 50.7975 91.1167 50.8422 86.9364C50.8843 83.2449 52.7067 83.6604 54.533 84.0767C55.6153 84.3235 56.699 84.5705 57.4144 83.9633ZM84.1391 47.7457C84.1896 48.5934 84.2419 49.4706 83.9698 50.1857C84.4344 50.9038 84.3053 51.9219 84.1783 52.9228C83.9693 54.5706 83.7662 56.1717 86.2276 56.3108C89.089 56.4673 90.9891 53.5389 90.8549 50.3422C90.7208 47.2796 89.1336 44.3736 86.0264 44.5524C83.9558 44.669 84.0443 46.1554 84.1391 47.7457ZM30.5653 50.454C30.0858 51.1353 30.2077 52.1079 30.326 53.0513C30.522 54.6149 30.708 56.0984 28.1286 56.0426C25.4014 55.9755 23.859 53.2036 23.9708 50.2528C24.0602 47.3467 25.692 44.5077 28.3746 44.6195C30.72 44.7305 30.5409 46.2115 30.3514 47.7786C30.2357 48.7358 30.116 49.725 30.5653 50.454ZM82.7837 65.8561C82.8061 67.3315 84.0803 67.4656 85.2427 67.5327C86.6734 67.4433 87.9476 67.0632 87.8805 65.3196C87.8135 63.9113 86.7181 63.5089 85.4662 63.5983C84.0356 63.6877 82.7614 64.2019 82.7837 65.8561ZM31.6633 35.4539C31.261 36.6164 30.2773 37.2423 28.8243 37.0634C27.796 36.9293 27.1254 36.2587 27.2595 35.2304C27.4831 33.5538 28.8243 33.442 30.1656 33.5538C31.1492 33.5985 31.9092 34.0009 31.6633 35.4539ZM87.3891 35.5658C87.5009 34.1352 86.7408 33.4869 85.3549 33.5316C85.2308 33.5417 85.1025 33.549 84.9726 33.5563C83.9556 33.6138 82.844 33.6767 82.9629 35.1635C83.0971 36.3929 84.1477 36.9965 85.4219 37.0412C86.4949 37.0859 87.2997 36.7506 87.3891 35.5658Z" fill="#F8F9FB"/>
</svg>
