<svg width="204" height="203" viewBox="0 0 204 203" fill="none" xmlns="http://www.w3.org/2000/svg">
<path fill-rule="evenodd" clip-rule="evenodd" d="M105.938 40.155C103.592 53.0013 106.348 64.8682 112.339 76.4162C111.764 75.8036 111.195 75.1885 110.627 74.5742C109.505 73.3613 108.386 72.1518 107.236 70.9725C76.0318 39.1073 22.9611 49.2659 5.65049 90.2875C0.746057 101.876 0.865836 113.878 0.986595 125.978C0.992584 126.578 0.998574 127.178 1.00395 127.779C1.14062 141.946 4.57996 155.703 14.7386 165.361C24.7149 174.859 28.997 184.881 26.9926 198.023C26.6054 200.46 27.471 202.078 30.432 202.009C33.1197 201.964 33.5525 200.483 33.5297 198.274C33.4614 191.167 33.4386 184.038 33.5297 176.909C33.5525 174.722 32.6186 173.424 30.9331 172.171C14.283 159.917 6.97156 143.244 7.40433 122.745C7.49543 118.531 8.54318 117.073 12.9392 117.119C32.368 117.347 51.8197 117.278 71.2714 117.164C74.3007 117.164 76.0546 117.871 77.4667 120.877C80.4278 127.186 85.8032 130.239 92.7958 130.284C94.2278 130.295 95.6599 130.314 97.092 130.333C101.628 130.392 106.163 130.452 110.699 130.261C114.89 130.102 117.714 131.651 117.919 135.773C117.953 136.409 118.039 137.084 118.126 137.771C118.556 141.17 119.025 144.878 113.568 145.75C109.742 146.365 108.353 148.574 108.125 152.446C107.8 157.915 107.266 163.366 106.732 168.815C106.441 171.786 106.15 174.756 105.893 177.729C105.665 180.439 105.209 182.466 101.61 182.375C97.8029 182.27 93.9913 182.294 90.1807 182.317H90.1802C84.9413 182.35 79.7045 182.383 74.4829 182.079C62.5933 181.396 54.0974 172.763 53.1636 160.988C53.1514 160.84 53.14 160.694 53.1287 160.55L53.1286 160.549L53.1284 160.546L53.1278 160.538L53.1277 160.537L53.1276 160.536C52.9292 157.988 52.7726 155.979 49.2003 156.409C46.0437 156.783 46.3487 158.78 46.6235 160.58C46.6838 160.975 46.7427 161.36 46.7632 161.717C47.6515 176.453 58.9262 187.819 74.0274 188.776C78.1728 189.049 79.0384 190.461 79.175 194.265C79.2019 194.916 79.066 195.708 78.9245 196.531C78.4672 199.194 77.9514 202.196 82.6827 201.918C86.777 201.678 86.22 198.926 85.7214 196.462C85.557 195.65 85.399 194.869 85.416 194.219C85.5298 190.325 86.4637 188.662 90.6319 188.912C93.4985 189.082 96.3781 189.045 99.2568 189.008H99.257H99.2571H99.2573H99.2575H99.2576H99.2578H99.2579H99.2581C101.777 188.975 104.295 188.943 106.804 189.049C110.425 189.186 111.86 188.07 112.065 184.22C112.346 179.067 112.826 173.914 113.307 168.762L113.307 168.761L113.307 168.761L113.307 168.761L113.307 168.76L113.307 168.76L113.307 168.76L113.307 168.76L113.307 168.76L113.307 168.76C113.685 164.711 114.062 160.663 114.343 156.614C114.571 153.471 115.664 151.376 118.853 150.966C123.978 150.305 125.549 147.367 124.843 142.584C124.251 138.712 125.185 136.639 129.945 136.707C137.781 136.821 140.969 133.222 141.06 125.273C141.07 124.503 141.079 123.734 141.089 122.964V122.963C141.175 116.034 141.261 109.106 141.015 102.177C140.855 97.69 141.675 96.4145 146.755 97.0978C166.594 99.7855 182.993 92.9752 194.291 76.3934C205.839 59.4472 206.271 41.2939 195.748 23.6872C185.954 7.31041 170.898 -0.547694 151.72 0.272282C133.202 1.0467 119.65 10.112 110.972 26.2838C108.785 30.3153 107.305 31.1808 104.48 27.2404C99.8111 20.7261 93.5702 18.0157 85.5982 19.3595C80.9289 20.1567 78.765 18.1751 76.9201 13.5969C71.2714 -0.388254 52.9358 -4.39703 41.6383 5.39713C34.2586 11.7975 31.5936 21.5689 34.8052 30.5203C38.0396 39.5628 46.3532 45.4621 55.9879 45.576C65.8504 45.6899 73.7085 40.36 77.5351 31.0897C77.7147 30.6543 77.8423 30.1889 77.9701 29.7228C78.377 28.2386 78.7859 26.7473 80.8833 26.1926C88.8325 24.0971 102.02 30.247 105.596 37.9456C105.893 38.5834 106.075 39.4489 105.938 40.155ZM143.27 89.6496C153.885 92.5879 163.907 91.4263 173.154 84.707C171.524 84.707 169.891 84.7206 168.256 84.7342H168.256H168.255H168.255H168.255H168.255H168.255H168.254H168.254C164.705 84.7638 161.145 84.7934 157.574 84.6842C151.675 84.4792 147.507 80.3566 147.461 75.004C147.416 69.6969 151.607 65.4376 157.461 65.187C160.243 65.0579 163.034 65.0824 165.823 65.1068H165.823H165.823H165.823H165.823H165.824H165.824H165.824H165.824H165.825C167.465 65.1212 169.104 65.1355 170.74 65.1187C171.046 65.1158 171.365 65.1228 171.689 65.13H171.689H171.689H171.69H171.69H171.69H171.691H171.691H171.691C173.921 65.1791 176.386 65.2334 176.525 62.1121C176.672 58.9004 174.13 58.7453 171.716 58.5981C171.51 58.5856 171.306 58.5732 171.104 58.5589C164.316 58.0578 160.513 54.5045 160.513 48.8558C160.513 43.1615 164.909 39.2211 171.765 39.0389C177.732 38.8794 183.7 38.8111 189.667 39.0389C193.836 39.1983 195.248 38.3328 193.562 33.8685C186.365 14.8951 165.455 3.18769 145.639 7.53812C145.248 7.62381 144.852 7.70597 144.452 7.78879L144.452 7.78885C140.925 8.5205 137.149 9.30358 134.182 13.0274C135.282 13.0274 136.281 13.0245 137.215 13.0219H137.216C138.913 13.017 140.397 13.0127 141.881 13.0274C149.671 13.1185 154.112 16.7856 153.998 23.0038C153.885 28.9714 149.489 32.4107 142.109 32.6841C141.541 32.7028 140.903 32.6501 140.247 32.5959C137.719 32.387 134.929 32.1565 134.911 35.9184C134.911 39.1206 137.206 39.0279 139.445 38.9376C140.247 38.9052 141.042 38.8731 141.722 38.9933C141.844 39.0086 141.976 39.0034 142.105 38.9983C142.169 38.9958 142.231 38.9933 142.291 38.9933C149.671 39.2667 154.044 42.9793 154.021 48.9241C153.998 54.9601 149.716 58.4905 142.2 58.5589C138.341 58.5908 134.478 58.5879 130.614 58.5851H130.613C126.198 58.5819 121.782 58.5786 117.373 58.6272C117.114 58.6272 116.835 58.6043 116.55 58.5808L116.55 58.5808C115.177 58.4679 113.656 58.3428 113.524 60.6999C113.25 66.2575 119.127 72.0885 124.707 71.7468C137.462 70.9724 139.603 72.8174 141.038 86.142L141.042 86.175C141.222 87.8 141.37 89.1293 143.27 89.6496ZM103.93 78.3293C102.602 78.3293 101.347 78.3253 100.143 78.3214C97.3 78.3123 94.7444 78.3041 92.2 78.3521C85.4352 78.4887 80.242 81.427 77.4632 87.6224C76.1422 90.5606 74.4567 91.4717 71.3362 91.4489C53.4341 91.3123 35.5321 91.3578 17.63 91.4034H17.6277C17.4958 91.4034 17.3653 91.4037 17.2363 91.4041C14.3368 91.4123 12.2592 91.4183 14.4617 87.144C31.089 55.0283 78.306 48.8557 102.632 75.7555C102.845 75.9967 102.987 76.3088 103.257 76.9009C103.42 77.2591 103.63 77.7197 103.93 78.3293ZM38.3538 110.777H38.3561H38.3583H38.3606H38.3629H38.3651H38.3674C41.3347 110.77 44.3012 110.764 47.2661 110.764C50.7236 110.764 54.1812 110.752 57.6387 110.739C65.7064 110.711 73.7741 110.682 81.8417 110.81C86.4655 110.901 88.971 109.921 88.9937 104.523C89.0165 99.1476 86.9893 97.576 81.8189 97.6443C69.3785 97.81 56.938 97.7829 44.4976 97.7558C39.8324 97.7456 35.1673 97.7354 30.5021 97.7354C28.8813 97.7354 27.2625 97.7293 25.6451 97.7231C21.8759 97.7088 18.1145 97.6945 14.3531 97.7582C9.79769 97.8265 7.72498 101.243 7.90719 107.666C8.01479 111.432 10.2683 111.118 12.2892 110.836H12.2892H12.2893L12.2894 110.836L12.29 110.836L12.2901 110.836C12.8357 110.76 13.3644 110.686 13.8292 110.696C21.9978 110.813 30.1787 110.795 38.3538 110.777ZM83.4321 118.007C94.1829 115.684 98.1689 108.782 95.0939 98.692C93.864 94.6604 91.3129 92.1322 87.0081 91.5172C86.7207 91.4735 86.3957 91.4863 86.0668 91.4992C85.1964 91.5335 84.299 91.5689 84.0015 90.5606C83.5687 89.08 84.867 88.0778 85.892 87.3034C86.0367 87.1942 86.1839 87.0808 86.3335 86.9656C87.4319 86.1197 88.6524 85.1797 89.8552 85.1396C97.3242 84.8663 104.816 84.8435 112.285 84.8207H112.285H112.285H112.285H112.285H112.285L112.291 84.8207C114.751 84.8207 114.796 86.734 114.796 88.5106C114.796 91.5257 114.792 94.5389 114.789 97.5514L114.789 97.5675V97.5699C114.779 105.111 114.77 112.646 114.819 120.194C114.842 122.95 113.68 123.929 111.015 123.883C108.177 123.832 105.334 123.841 102.49 123.849H102.49C98.9901 123.86 95.4897 123.87 91.9963 123.77C88.3975 123.633 85.5048 121.925 83.4321 118.007ZM124.679 52.2119L124.681 52.212C125.943 52.2194 127.205 52.2268 128.467 52.2268C128.467 52.2268 128.467 52.204 128.444 52.204C129.868 52.204 131.293 52.2077 132.719 52.2115L132.722 52.2115C136.292 52.2208 139.867 52.2301 143.431 52.1813C145.663 52.1585 147.121 50.9968 147.007 48.628C146.916 46.5098 145.345 45.7126 143.454 45.6214C142.568 45.5829 141.673 45.5892 140.777 45.5955C139.555 45.6041 138.331 45.6127 137.122 45.5076C131.747 45.0292 128.216 41.2938 128.102 36.1234C127.988 31.0213 131.428 26.8759 136.598 26.147C138.239 25.9126 139.923 25.9494 141.605 25.9862C142.047 25.9959 142.489 26.0056 142.93 26.0103C145.071 26.0331 146.962 25.4865 147.053 23.0493C147.167 20.2477 145.071 19.6555 142.748 19.6555C140.356 19.6458 137.969 19.6486 135.582 19.6514C132.399 19.6551 129.218 19.6588 126.03 19.6328C124.116 19.61 122.704 20.3616 121.565 21.7966C115.233 29.7002 111.817 38.6517 111.885 48.8786C111.908 51.3157 112.705 52.3407 115.21 52.2724C118.367 52.1748 121.523 52.1933 124.679 52.2119ZM134.239 110.678V110.68V110.681V110.681V110.682C134.201 115.417 134.163 120.157 134.339 124.886C134.499 129.441 132.221 130.375 128.303 130.284L128.187 130.281C124.48 130.192 121.38 130.117 121.447 125.022C121.584 111.197 121.561 97.3481 121.447 83.5224C121.406 78.6948 124.261 78.6136 127.457 78.5227C127.79 78.5132 128.126 78.5037 128.463 78.4886C132.494 78.3064 134.521 79.4908 134.362 83.9779C134.152 88.8583 134.194 93.7615 134.236 98.6715V98.6721C134.254 100.682 134.271 102.694 134.271 104.705C134.271 106.693 134.255 108.682 134.239 110.673V110.675V110.678ZM166.37 78.289C167.65 78.2865 168.932 78.2839 170.216 78.2839C171.673 78.293 173.131 78.2876 174.589 78.2821C176.775 78.2739 178.962 78.2657 181.149 78.3067C183.426 78.3523 185.043 77.6234 186.57 75.7785C192.788 68.2392 195.885 59.6067 196.295 49.8809C196.432 46.6693 195.339 45.4165 192.036 45.5077C187.815 45.6443 183.593 45.619 179.372 45.5937C177.261 45.5811 175.151 45.5684 173.04 45.576C172.935 45.576 172.828 45.5757 172.721 45.5754C170.264 45.569 167.482 45.5618 167.482 48.9015C167.482 52.023 169.895 52.1292 172.231 52.232L172.231 52.232C172.503 52.2439 172.774 52.2558 173.04 52.2725C179.486 52.6597 183.472 56.6001 183.312 62.2488C183.153 67.6015 179.076 71.5191 173.017 71.7697C169.601 71.9161 166.174 71.8882 162.743 71.8603H162.743H162.742C161.369 71.8492 159.996 71.838 158.622 71.838C156.527 71.838 154.613 72.2024 154.499 74.7535C154.385 77.5778 156.344 78.2612 158.69 78.2839C161.256 78.2991 163.811 78.2941 166.37 78.289ZM56.0567 38.9023C47.0142 38.7884 40.0672 31.6592 40.1811 22.5939C40.2949 13.7336 47.7203 6.51325 56.5578 6.64991C65.327 6.7638 72.6612 14.3714 72.5246 23.1406C72.3651 32.0464 65.0992 39.0162 56.0567 38.9023Z" fill="#F8F9FB"/>
</svg>
